<svg id="Isolation_Mode" data-name="Isolation Mode" xmlns="http://www.w3.org/2000/svg" xmlns:xlink="http://www.w3.org/1999/xlink" viewBox="0 0 426.5 426.5"><defs><style>.cls-1{mask:url(#mask);filter:url(#luminosity-noclip-2);}.cls-2{mix-blend-mode:multiply;fill:url(#linear-gradient);}.cls-3{mask:url(#mask-2);}.cls-4{fill:url(#linear-gradient-2);}.cls-5{fill:url(#linear-gradient-3);}.cls-6{fill:url(#linear-gradient-4);}.cls-7{fill:#191919;}.cls-8{fill:url(#linear-gradient-5);}.cls-9{fill:url(#linear-gradient-6);}.cls-10{fill:url(#linear-gradient-7);}.cls-11{filter:url(#luminosity-noclip);}</style><filter id="luminosity-noclip" x="37.41" y="-8407.35" width="351.67" height="32766" filterUnits="userSpaceOnUse" color-interpolation-filters="sRGB"><feFlood flood-color="#fff" result="bg"/><feBlend in="SourceGraphic" in2="bg"/></filter><mask id="mask" x="37.41" y="-8407.35" width="351.67" height="32766" maskUnits="userSpaceOnUse"><g class="cls-11"/></mask><linearGradient id="linear-gradient" x1="88.91" y1="338.12" x2="337.58" y2="89.45" gradientUnits="userSpaceOnUse"><stop offset="0" stop-color="#fff"/><stop offset="0.54"/><stop offset="1" stop-color="#f1f1f1"/></linearGradient><filter id="luminosity-noclip-2" x="37.41" y="37.94" width="351.67" height="351.67" filterUnits="userSpaceOnUse" color-interpolation-filters="sRGB"><feFlood flood-color="#fff" result="bg"/><feBlend in="SourceGraphic" in2="bg"/></filter><mask id="mask-2" x="37.41" y="37.94" width="351.67" height="351.67" maskUnits="userSpaceOnUse"><g class="cls-1"><path class="cls-2" d="M213.25,389.62A175.89,175.89,0,0,1,144.8,51.76a175.88,175.88,0,0,1,136.89,324A174.7,174.7,0,0,1,213.25,389.62Zm0-350.25a174.45,174.45,0,0,0-67.89,335.11A174.45,174.45,0,0,0,281.14,53.08,173.28,173.28,0,0,0,213.25,39.37Z"/></g></mask><linearGradient id="linear-gradient-2" x1="88.91" y1="338.12" x2="337.58" y2="89.45" gradientUnits="userSpaceOnUse"><stop offset="0" stop-color="#d7b676"/><stop offset="0.54"/><stop offset="1" stop-color="#c5a76e"/></linearGradient><linearGradient id="linear-gradient-3" x1="383.72" y1="217.93" x2="393.03" y2="208.62" gradientUnits="userSpaceOnUse"><stop offset="0" stop-color="#ab8d60"/><stop offset="0.07" stop-color="#b29466"/><stop offset="0.51" stop-color="#dbc087"/><stop offset="1" stop-color="#ab8d60"/></linearGradient><linearGradient id="linear-gradient-4" x1="33.29" y1="218.08" x2="42.96" y2="208.41" xlink:href="#linear-gradient-3"/><linearGradient id="linear-gradient-5" x1="-369.01" y1="2326.13" x2="-305.5" y2="2326.13" gradientTransform="translate(2357.88 369.01) rotate(90)" xlink:href="#linear-gradient-3"/><linearGradient id="linear-gradient-6" x1="-358.53" y1="2325.94" x2="-315.9" y2="2325.94" gradientTransform="translate(2357.88 369.01) rotate(90)" xlink:href="#linear-gradient-3"/><linearGradient id="linear-gradient-7" x1="-6.27" y1="1963.27" x2="57.49" y2="1963.27" gradientTransform="translate(2357.88 369.01) rotate(90)" xlink:href="#linear-gradient-3"/></defs><g class="cls-3"><path class="cls-4" d="M213.25,389.62A175.89,175.89,0,0,1,144.8,51.76a175.88,175.88,0,0,1,136.89,324A174.7,174.7,0,0,1,213.25,389.62Zm0-350.25a174.45,174.45,0,0,0-67.89,335.11A174.45,174.45,0,0,0,281.14,53.08,173.28,173.28,0,0,0,213.25,39.37Z"/></g><circle class="cls-5" cx="388.37" cy="213.27" r="6.58"/><path class="cls-6" d="M31.29,213.25a6.84,6.84,0,1,1,6.83,6.83A6.83,6.83,0,0,1,31.29,213.25Z"/><path class="cls-7" d="M27.06,36.59l5,23.16,5.07-23.32,22.58-4.91L37.06,26.58c-1.49-6.87-5-22.83-5-22.83L27.17,26.43,3.75,31.52Z"/><path class="cls-8" d="M0,31.52l26.5-5.76L32.1,0l5.63,25.91L63.5,31.52,37.84,37.1,32.1,63.5,26.39,37.26Zm32.1-24L27.84,27.1,7.51,31.52l20.22,4.4L32.1,56l4.4-20.23L56,31.52l-19.6-4.26Z"/><path class="cls-7" d="M25.47,31.85l-12,18.6,18.73-12L50.37,50.07,38.66,31.85,50.45,13.51,32.24,25.22,13.44,13.13Z"/><path class="cls-9" d="M10.78,10.47l21.46,13.8L53.1,10.86l-13.49,21L53,52.72,32.24,39.36,10.86,53.1,24.52,31.85Zm37,5.7-15.55,10L16.09,15.78,26.42,31.85,16.17,47.79,32.24,37.46l15.48,9.95-10-15.56Z"/><path class="cls-7" d="M390.36,402.35l4.26,20.26,4.25-20.26,10,6.54-6.54-10,20.26-4.25-20.26-4.26,6.54-10-10,6.54-4.25-20.26s-2.56,12.16-4.26,20.26l-10-6.54,6.54,10-20.26,4.26,20.26,4.25-6.54,10Z"/><path class="cls-10" d="M362.74,394.62l22.84-4.8-8-12.23,12.23,8,4.8-22.84,4.79,22.84,12.23-8-8,12.23,22.84,4.8-22.84,4.79,8,12.23-12.23-8-4.79,22.84-4.8-22.84-12.23,8,8-12.23Zm25.45-3.72-17.69,3.72,17.69,3.71-5.11,7.82L390.9,401l3.72,17.69L398.33,401l7.82,5.11L401,398.33l17.69-3.71L401,390.9l5.11-7.82-7.82,5.11-3.71-17.69-3.72,17.69-7.82-5.11Z"/></svg>