<svg id="Isolation_Mode" data-name="Isolation Mode" xmlns="http://www.w3.org/2000/svg" xmlns:xlink="http://www.w3.org/1999/xlink" viewBox="0 0 639.94 935.38"><defs><style>.cls-1{fill:url(#linear-gradient);}.cls-2{fill:url(#linear-gradient-2);}.cls-3{fill:url(#linear-gradient-3);}.cls-4{fill:url(#linear-gradient-4);}.cls-5{fill:url(#linear-gradient-5);}.cls-6{fill:url(#linear-gradient-6);}.cls-7{fill:url(#linear-gradient-7);}.cls-8{fill:url(#linear-gradient-8);}.cls-9{fill:url(#linear-gradient-9);}.cls-10{fill:url(#linear-gradient-10);}.cls-11{fill:url(#linear-gradient-11);}.cls-12{fill:url(#linear-gradient-12);}.cls-13{fill:url(#linear-gradient-13);}.cls-14{fill:url(#linear-gradient-14);}.cls-15{fill:url(#linear-gradient-15);}.cls-16{fill:url(#linear-gradient-16);}.cls-17{fill:url(#linear-gradient-17);}.cls-18{fill:url(#linear-gradient-18);}.cls-19{fill:url(#linear-gradient-19);}.cls-20{fill:url(#linear-gradient-20);}.cls-21{fill:url(#linear-gradient-21);}.cls-22{fill:url(#linear-gradient-22);}.cls-23{fill:url(#linear-gradient-23);}.cls-24{fill:url(#linear-gradient-24);}.cls-25{fill:url(#linear-gradient-25);}.cls-26{fill:url(#linear-gradient-26);}.cls-27{fill:url(#linear-gradient-27);}.cls-28{fill:url(#linear-gradient-28);}.cls-29{fill:url(#linear-gradient-29);}.cls-30{fill:url(#linear-gradient-30);}.cls-31{fill:url(#linear-gradient-31);}.cls-32{fill:url(#linear-gradient-32);}.cls-33{fill:url(#linear-gradient-33);}.cls-34{fill:url(#linear-gradient-34);}.cls-35{fill:url(#linear-gradient-35);}.cls-36{fill:url(#linear-gradient-36);}.cls-37{fill:url(#linear-gradient-37);}.cls-38{fill:url(#linear-gradient-38);}</style><linearGradient id="linear-gradient" x1="8.35" y1="467.69" x2="631.6" y2="467.69" gradientUnits="userSpaceOnUse"><stop offset="0" stop-color="#ab8d60"/><stop offset="0.07" stop-color="#b29466"/><stop offset="0.51" stop-color="#dbc087"/><stop offset="1" stop-color="#ab8d60"/></linearGradient><linearGradient id="linear-gradient-2" x1="2757.34" y1="-1439.42" x2="2756.56" y2="-1442.33" gradientTransform="translate(2988.73 1847.66) rotate(-135)" xlink:href="#linear-gradient"/><linearGradient id="linear-gradient-3" x1="2757.34" y1="-1443.77" x2="2756.56" y2="-1446.68" gradientTransform="translate(2988.73 1847.66) rotate(-135)" xlink:href="#linear-gradient"/><linearGradient id="linear-gradient-4" x1="2754.99" y1="-1442.27" x2="2754.59" y2="-1443.76" gradientTransform="translate(2988.73 1847.66) rotate(-135)" xlink:href="#linear-gradient"/><linearGradient id="linear-gradient-5" x1="2759.34" y1="-1442.26" x2="2758.94" y2="-1443.77" gradientTransform="translate(2988.73 1847.66) rotate(-135)" xlink:href="#linear-gradient"/><linearGradient id="linear-gradient-6" x1="5452.95" y1="14.81" x2="5452.45" y2="12.92" gradientTransform="translate(5468.2 932.45) rotate(180)" xlink:href="#linear-gradient"/><linearGradient id="linear-gradient-7" x1="5446.17" y1="14.8" x2="5445.66" y2="12.92" gradientTransform="translate(5468.2 932.45) rotate(180)" xlink:href="#linear-gradient"/><linearGradient id="linear-gradient-8" x1="5449.91" y1="19.43" x2="5448.73" y2="15.05" gradientTransform="translate(5468.2 932.45) rotate(180)" xlink:href="#linear-gradient"/><linearGradient id="linear-gradient-9" x1="5449.9" y1="12.62" x2="5448.74" y2="8.29" gradientTransform="translate(5468.2 932.45) rotate(180)" xlink:href="#linear-gradient"/><linearGradient id="linear-gradient-10" x1="5449.83" y1="15.84" x2="5448.76" y2="11.85" gradientTransform="translate(5468.2 932.45) rotate(180)" xlink:href="#linear-gradient"/><linearGradient id="linear-gradient-11" x1="-653.44" y1="1971.36" x2="-654.22" y2="1968.44" gradientTransform="matrix(0.71, -0.71, -0.71, -0.71, 2474.11, 1847.66)" xlink:href="#linear-gradient"/><linearGradient id="linear-gradient-12" x1="-653.44" y1="1967.01" x2="-654.22" y2="1964.1" gradientTransform="matrix(0.71, -0.71, -0.71, -0.71, 2474.11, 1847.66)" xlink:href="#linear-gradient"/><linearGradient id="linear-gradient-13" x1="-655.79" y1="1968.51" x2="-656.19" y2="1967.02" gradientTransform="matrix(0.71, -0.71, -0.71, -0.71, 2474.11, 1847.66)" xlink:href="#linear-gradient"/><linearGradient id="linear-gradient-14" x1="-651.44" y1="1968.52" x2="-651.84" y2="1967.01" gradientTransform="matrix(0.71, -0.71, -0.71, -0.71, 2474.11, 1847.66)" xlink:href="#linear-gradient"/><linearGradient id="linear-gradient-15" x1="629.43" y1="14.81" x2="628.92" y2="12.92" gradientTransform="matrix(1, 0, 0, -1, -5.37, 932.45)" xlink:href="#linear-gradient"/><linearGradient id="linear-gradient-16" x1="622.65" y1="14.8" x2="622.14" y2="12.92" gradientTransform="matrix(1, 0, 0, -1, -5.37, 932.45)" xlink:href="#linear-gradient"/><linearGradient id="linear-gradient-17" x1="626.39" y1="19.43" x2="625.21" y2="15.05" gradientTransform="matrix(1, 0, 0, -1, -5.37, 932.45)" xlink:href="#linear-gradient"/><linearGradient id="linear-gradient-18" x1="626.38" y1="12.62" x2="625.22" y2="8.29" gradientTransform="matrix(1, 0, 0, -1, -5.37, 932.45)" xlink:href="#linear-gradient"/><linearGradient id="linear-gradient-19" x1="626.31" y1="15.84" x2="625.24" y2="11.85" gradientTransform="matrix(1, 0, 0, -1, -5.37, 932.45)" xlink:href="#linear-gradient"/><linearGradient id="linear-gradient-20" x1="-651.52" y1="1973.27" x2="-652.3" y2="1970.36" gradientTransform="translate(2474.11 -915.22) rotate(45)" xlink:href="#linear-gradient"/><linearGradient id="linear-gradient-21" x1="-651.52" y1="1968.93" x2="-652.3" y2="1966.01" gradientTransform="translate(2474.11 -915.22) rotate(45)" xlink:href="#linear-gradient"/><linearGradient id="linear-gradient-22" x1="-653.87" y1="1970.43" x2="-654.27" y2="1968.93" gradientTransform="translate(2474.11 -915.22) rotate(45)" xlink:href="#linear-gradient"/><linearGradient id="linear-gradient-23" x1="-649.52" y1="1970.43" x2="-649.93" y2="1968.92" gradientTransform="translate(2474.11 -915.22) rotate(45)" xlink:href="#linear-gradient"/><linearGradient id="linear-gradient-24" x1="629.43" y1="17.52" x2="628.92" y2="15.63" gradientTransform="translate(-5.37)" xlink:href="#linear-gradient"/><linearGradient id="linear-gradient-25" x1="622.65" y1="17.51" x2="622.14" y2="15.63" gradientTransform="translate(-5.37)" xlink:href="#linear-gradient"/><linearGradient id="linear-gradient-26" x1="626.39" y1="22.14" x2="625.21" y2="17.77" gradientTransform="translate(-5.37)" xlink:href="#linear-gradient"/><linearGradient id="linear-gradient-27" x1="626.38" y1="15.33" x2="625.22" y2="11.01" gradientTransform="translate(-5.37)" xlink:href="#linear-gradient"/><linearGradient id="linear-gradient-28" x1="626.31" y1="18.55" x2="625.24" y2="14.56" gradientTransform="translate(-5.37)" xlink:href="#linear-gradient"/><linearGradient id="linear-gradient-29" x1="-1076.89" y1="2398.64" x2="-1077.67" y2="2395.73" gradientTransform="translate(2474.11 -915.22) rotate(45)" xlink:href="#linear-gradient"/><linearGradient id="linear-gradient-30" x1="-1076.89" y1="2394.29" x2="-1077.67" y2="2391.38" gradientTransform="translate(2474.11 -915.22) rotate(45)" xlink:href="#linear-gradient"/><linearGradient id="linear-gradient-31" x1="-1079.24" y1="2395.79" x2="-1079.64" y2="2394.3" gradientTransform="translate(2474.11 -915.22) rotate(45)" xlink:href="#linear-gradient"/><linearGradient id="linear-gradient-32" x1="-1074.89" y1="2395.8" x2="-1075.29" y2="2394.29" gradientTransform="translate(2474.11 -915.22) rotate(45)" xlink:href="#linear-gradient"/><linearGradient id="linear-gradient-33" x1="27.88" y1="17.52" x2="27.37" y2="15.63" gradientTransform="translate(-5.37)" xlink:href="#linear-gradient"/><linearGradient id="linear-gradient-34" x1="21.1" y1="17.51" x2="20.59" y2="15.63" gradientTransform="translate(-5.37)" xlink:href="#linear-gradient"/><linearGradient id="linear-gradient-35" x1="24.83" y1="22.14" x2="23.66" y2="17.77" gradientTransform="translate(-5.37)" xlink:href="#linear-gradient"/><linearGradient id="linear-gradient-36" x1="24.83" y1="15.33" x2="23.67" y2="11.01" gradientTransform="translate(-5.37)" xlink:href="#linear-gradient"/><linearGradient id="linear-gradient-37" x1="24.76" y1="18.55" x2="23.69" y2="14.56" gradientTransform="translate(-5.37)" xlink:href="#linear-gradient"/><linearGradient id="linear-gradient-38" x1="0" y1="467.69" x2="639.94" y2="467.69" xlink:href="#linear-gradient"/></defs><path class="cls-1" d="M631.6,928.4H8.35V7H631.6Zm-622.25-1H630.6V8H9.35Z"/><path class="cls-2" d="M21.18,915.83a.51.51,0,0,1,.36.87l-1.47,1.46a.51.51,0,0,1-.72-.72L20.81,916A.51.51,0,0,1,21.18,915.83Z"/><path class="cls-3" d="M18.1,918.9a.51.51,0,0,1,.36.87L17,921.23a.51.51,0,0,1-.72-.72l1.46-1.46A.51.51,0,0,1,18.1,918.9Z"/><path class="cls-4" d="M19.74,918.88a.51.51,0,0,1,.36.15l1.44,1.43a.51.51,0,0,1,0,.72.52.52,0,0,1-.73,0l-1.43-1.43a.51.51,0,0,1,.36-.87Z"/><path class="cls-5" d="M16.64,915.78a.51.51,0,0,1,.36.15l1.49,1.48a.52.52,0,0,1,0,.73.53.53,0,0,1-.72,0l-1.49-1.49a.51.51,0,0,1,.36-.87Z"/><path class="cls-6" d="M13.69,918.07h3.63a.51.51,0,1,1,0,1H13.69a.51.51,0,0,1,0-1Z"/><path class="cls-7" d="M20.49,918.07h3.59a.51.51,0,1,1,0,1H20.49a.51.51,0,0,1,0-1Z"/><path class="cls-8" d="M18.88,912.87a.51.51,0,0,1,.51.51V917a.51.51,0,0,1-1,0v-3.64A.51.51,0,0,1,18.88,912.87Z"/><path class="cls-9" d="M18.88,919.68a.51.51,0,0,1,.51.51v3.59a.51.51,0,0,1-1,0v-3.59A.51.51,0,0,1,18.88,919.68Z"/><path class="cls-10" d="M16.93,919l1.62,1.61a.53.53,0,0,0,.72,0L20.88,919a.51.51,0,0,0,0-.72l-1.61-1.62a.51.51,0,0,0-.72,0l-1.62,1.62A.51.51,0,0,0,16.93,919Z"/><path class="cls-11" d="M618.14,915.83a.51.51,0,0,0-.36.87l1.46,1.46a.51.51,0,0,0,.72-.72L618.5,916A.51.51,0,0,0,618.14,915.83Z"/><path class="cls-12" d="M621.22,918.9a.51.51,0,0,0-.37.15.53.53,0,0,0,0,.72l1.47,1.46a.51.51,0,1,0,.72-.72l-1.46-1.46A.51.51,0,0,0,621.22,918.9Z"/><path class="cls-13" d="M619.58,918.88a.51.51,0,0,0-.36.15l-1.44,1.43a.51.51,0,0,0,.72.72l1.44-1.43a.51.51,0,0,0-.36-.87Z"/><path class="cls-14" d="M622.68,915.78a.51.51,0,0,0-.36.15l-1.49,1.48a.52.52,0,0,0,0,.73.53.53,0,0,0,.72,0l1.49-1.49a.51.51,0,0,0-.36-.87Z"/><path class="cls-15" d="M625.63,918.07H622a.51.51,0,0,0,0,1h3.63a.51.51,0,0,0,0-1Z"/><path class="cls-16" d="M618.82,918.07h-3.58a.51.51,0,0,0,0,1h3.58a.51.51,0,0,0,0-1Z"/><path class="cls-17" d="M620.43,912.87a.51.51,0,0,0-.51.51V917a.51.51,0,0,0,.51.51.51.51,0,0,0,.51-.51v-3.64A.51.51,0,0,0,620.43,912.87Z"/><path class="cls-18" d="M620.43,919.68a.51.51,0,0,0-.51.51v3.59a.51.51,0,0,0,.51.51.51.51,0,0,0,.51-.51v-3.59A.51.51,0,0,0,620.43,919.68Z"/><path class="cls-19" d="M622.38,919l-1.61,1.61a.53.53,0,0,1-.72,0L618.44,919a.51.51,0,0,1,0-.72l1.61-1.62a.51.51,0,0,1,.72,0l1.61,1.62A.51.51,0,0,1,622.38,919Z"/><path class="cls-20" d="M618.14,19.33a.51.51,0,0,1-.36-.87L619.24,17a.51.51,0,1,1,.72.72l-1.46,1.46A.51.51,0,0,1,618.14,19.33Z"/><path class="cls-21" d="M621.22,16.25a.51.51,0,0,1-.37-.15.53.53,0,0,1,0-.72l1.47-1.46a.51.51,0,1,1,.72.72l-1.46,1.46A.51.51,0,0,1,621.22,16.25Z"/><path class="cls-22" d="M619.58,16.28a.51.51,0,0,1-.36-.15l-1.44-1.44a.51.51,0,0,1,.72-.72l1.44,1.44a.51.51,0,0,1-.36.87Z"/><path class="cls-23" d="M622.68,19.38a.51.51,0,0,1-.36-.15l-1.49-1.49a.51.51,0,0,1,.72-.72L623,18.51a.51.51,0,0,1-.36.87Z"/><path class="cls-24" d="M625.63,17.08H622a.5.5,0,0,1-.51-.51.51.51,0,0,1,.51-.51h3.63a.51.51,0,0,1,.51.51A.51.51,0,0,1,625.63,17.08Z"/><path class="cls-25" d="M618.82,17.08h-3.58a.51.51,0,0,1-.51-.51.51.51,0,0,1,.51-.51h3.58a.51.51,0,0,1,.51.51A.51.51,0,0,1,618.82,17.08Z"/><path class="cls-26" d="M620.43,22.28a.51.51,0,0,1-.51-.51V18.14a.51.51,0,0,1,.51-.51.5.5,0,0,1,.51.51v3.63A.51.51,0,0,1,620.43,22.28Z"/><path class="cls-27" d="M620.43,15.47a.51.51,0,0,1-.51-.51V11.38a.51.51,0,0,1,.51-.51.51.51,0,0,1,.51.51V15A.51.51,0,0,1,620.43,15.47Z"/><path class="cls-28" d="M622.38,16.19l-1.61-1.61a.51.51,0,0,0-.72,0l-1.61,1.61a.51.51,0,0,0,0,.72l1.61,1.61a.51.51,0,0,0,.72,0l1.61-1.61A.51.51,0,0,0,622.38,16.19Z"/><path class="cls-29" d="M16.59,19.33a.51.51,0,0,1-.36-.87L17.69,17a.51.51,0,0,1,.72.72L17,19.18A.51.51,0,0,1,16.59,19.33Z"/><path class="cls-30" d="M19.66,16.25a.51.51,0,0,1-.36-.87l1.46-1.46a.52.52,0,0,1,.73,0,.53.53,0,0,1,0,.72L20,16.1A.51.51,0,0,1,19.66,16.25Z"/><path class="cls-31" d="M18,16.28a.51.51,0,0,1-.37-.15l-1.43-1.44A.51.51,0,0,1,17,14l1.44,1.44a.51.51,0,0,1-.36.87Z"/><path class="cls-32" d="M21.12,19.38a.51.51,0,0,1-.36-.15l-1.48-1.49A.51.51,0,0,1,20,17l1.49,1.49a.53.53,0,0,1,0,.72A.51.51,0,0,1,21.12,19.38Z"/><path class="cls-33" d="M24.08,17.08H20.44a.51.51,0,0,1-.51-.51.51.51,0,0,1,.51-.51h3.64a.51.51,0,0,1,.51.51A.51.51,0,0,1,24.08,17.08Z"/><path class="cls-34" d="M17.27,17.08H13.69a.5.5,0,0,1-.51-.51.51.51,0,0,1,.51-.51h3.58a.51.51,0,0,1,.51.51A.51.51,0,0,1,17.27,17.08Z"/><path class="cls-35" d="M18.88,22.28a.51.51,0,0,1-.51-.51V18.14a.51.51,0,0,1,1,0v3.63A.51.51,0,0,1,18.88,22.28Z"/><path class="cls-36" d="M18.88,15.47a.51.51,0,0,1-.51-.51V11.38a.51.51,0,1,1,1,0V15A.51.51,0,0,1,18.88,15.47Z"/><path class="cls-37" d="M20.83,16.19l-1.61-1.61a.51.51,0,0,0-.72,0l-1.62,1.61a.51.51,0,0,0,0,.72l1.62,1.61a.51.51,0,0,0,.72,0l1.61-1.61A.51.51,0,0,0,20.83,16.19Z"/><path class="cls-38" d="M592.55,935.38H47.4L0,888V47.4L47.4,0H592.55l47.39,47.4V888Zm-544.74-1H592.13l46.81-46.82V47.81L592.13,1H47.81L1,47.81V887.56Z"/></svg>