<svg id="Isolation_Mode" data-name="Isolation Mode" xmlns="http://www.w3.org/2000/svg" xmlns:xlink="http://www.w3.org/1999/xlink" viewBox="0 0 363.66 351.67"><defs><style>.cls-1{mask:url(#mask);filter:url(#luminosity-noclip-2);}.cls-2{mix-blend-mode:multiply;fill:url(#linear-gradient);}.cls-3{fill:url(#radial-gradient);}.cls-4{fill:url(#radial-gradient-2);}.cls-5{fill:url(#radial-gradient-3);}.cls-6{fill:url(#radial-gradient-4);}.cls-7{fill:url(#radial-gradient-5);}.cls-8{fill:url(#radial-gradient-6);}.cls-9{fill:url(#radial-gradient-7);}.cls-10{fill:url(#radial-gradient-8);}.cls-11{fill:url(#radial-gradient-9);}.cls-12{fill:url(#radial-gradient-10);}.cls-13{fill:url(#radial-gradient-11);}.cls-14{fill:url(#radial-gradient-12);}.cls-15{fill:url(#radial-gradient-13);}.cls-16{fill:url(#radial-gradient-14);}.cls-17{fill:url(#radial-gradient-15);}.cls-18{fill:url(#radial-gradient-16);}.cls-19{fill:url(#radial-gradient-17);}.cls-20{fill:url(#radial-gradient-18);}.cls-21{fill:url(#radial-gradient-19);}.cls-22{fill:url(#radial-gradient-20);}.cls-23{fill:url(#radial-gradient-21);}.cls-24{fill:url(#radial-gradient-22);}.cls-25{fill:url(#radial-gradient-23);}.cls-26{fill:url(#radial-gradient-24);}.cls-27{fill:url(#radial-gradient-25);}.cls-28{fill:url(#radial-gradient-26);}.cls-29{fill:url(#radial-gradient-27);}.cls-30{fill:url(#radial-gradient-28);}.cls-31{fill:url(#radial-gradient-29);}.cls-32{fill:url(#radial-gradient-30);}.cls-33{fill:url(#radial-gradient-31);}.cls-34{fill:url(#radial-gradient-32);}.cls-35{fill:url(#radial-gradient-33);}.cls-36{fill:url(#radial-gradient-34);}.cls-37{fill:url(#radial-gradient-35);}.cls-38{fill:url(#radial-gradient-36);}.cls-39{fill:url(#radial-gradient-37);}.cls-40{fill:url(#radial-gradient-38);}.cls-41{fill:url(#radial-gradient-39);}.cls-42{fill:url(#radial-gradient-40);}.cls-43{fill:url(#radial-gradient-41);}.cls-44{fill:url(#radial-gradient-42);}.cls-45{fill:url(#radial-gradient-43);}.cls-46{fill:url(#radial-gradient-44);}.cls-47{fill:url(#radial-gradient-45);}.cls-48{fill:url(#radial-gradient-46);}.cls-49{fill:url(#radial-gradient-47);}.cls-50{fill:url(#radial-gradient-48);}.cls-51{fill:url(#radial-gradient-49);}.cls-52{fill:url(#radial-gradient-50);}.cls-53{fill:url(#radial-gradient-51);}.cls-54{fill:url(#radial-gradient-52);}.cls-55{fill:url(#radial-gradient-53);}.cls-56{fill:url(#radial-gradient-54);}.cls-57{fill:url(#radial-gradient-55);}.cls-58{fill:url(#radial-gradient-56);}.cls-59{fill:url(#radial-gradient-57);}.cls-60{fill:url(#radial-gradient-58);}.cls-61{fill:url(#radial-gradient-59);}.cls-62{fill:url(#radial-gradient-60);}.cls-63{fill:url(#radial-gradient-61);}.cls-64{fill:url(#radial-gradient-62);}.cls-65{fill:url(#radial-gradient-63);}.cls-66{fill:url(#radial-gradient-64);}.cls-67{fill:url(#radial-gradient-65);}.cls-68{fill:url(#radial-gradient-66);}.cls-69{fill:url(#radial-gradient-67);}.cls-70{fill:url(#radial-gradient-68);}.cls-71{fill:url(#radial-gradient-69);}.cls-72{fill:url(#radial-gradient-70);}.cls-73{fill:url(#radial-gradient-71);}.cls-74{fill:url(#radial-gradient-72);}.cls-75{fill:url(#radial-gradient-73);}.cls-76{fill:url(#radial-gradient-74);}.cls-77{fill:url(#radial-gradient-75);}.cls-78{fill:url(#radial-gradient-76);}.cls-79{mask:url(#mask-2);}.cls-80{fill:url(#linear-gradient-2);}.cls-81{fill:url(#linear-gradient-3);}.cls-82{fill:url(#linear-gradient-4);}.cls-83{filter:url(#luminosity-noclip);}</style><filter id="luminosity-noclip" x="6.12" y="-8369.4" width="351.67" height="32766" filterUnits="userSpaceOnUse" color-interpolation-filters="sRGB"><feFlood flood-color="#fff" result="bg"/><feBlend in="SourceGraphic" in2="bg"/></filter><mask id="mask" x="6.12" y="-8369.4" width="351.67" height="32766" maskUnits="userSpaceOnUse"><g class="cls-83"/></mask><linearGradient id="linear-gradient" x1="57.62" y1="300.17" x2="306.29" y2="51.5" gradientUnits="userSpaceOnUse"><stop offset="0" stop-color="#fff"/><stop offset="0.54"/><stop offset="1" stop-color="#f1f1f1"/></linearGradient><radialGradient id="radial-gradient" cx="1105.75" cy="335.66" r="55.16" gradientTransform="translate(-453.61 -867.33) rotate(39.75)" gradientUnits="userSpaceOnUse"><stop offset="0.06" stop-color="#191919"/><stop offset="0.22" stop-color="#1c1c1b"/><stop offset="0.35" stop-color="#272521"/><stop offset="0.48" stop-color="#39352b"/><stop offset="0.61" stop-color="#524a39"/><stop offset="0.73" stop-color="#73664c"/><stop offset="0.85" stop-color="#9b8962"/><stop offset="0.96" stop-color="#c9b07d"/><stop offset="1" stop-color="#dbc087"/></radialGradient><radialGradient id="radial-gradient-2" cx="188.25" cy="103.92" r="50.58" gradientTransform="translate(277.91 -91.52) rotate(85.74)" xlink:href="#radial-gradient"/><radialGradient id="radial-gradient-3" cx="1345.09" cy="287.53" r="55.16" gradientTransform="matrix(0.65, 0.76, -0.76, 0.65, -465.17, -1107.92)" xlink:href="#radial-gradient"/><radialGradient id="radial-gradient-4" cx="1466.02" cy="253.99" r="49.67" gradientTransform="matrix(-0.65, 0.76, -0.76, -0.65, 1340.74, -847.04)" xlink:href="#radial-gradient"/><radialGradient id="radial-gradient-5" cx="207.37" cy="101.84" r="54.97" gradientTransform="matrix(1, 0, 0, 1, 0, 0)" xlink:href="#radial-gradient"/><radialGradient id="radial-gradient-6" cx="1683.92" cy="148.67" r="51.05" gradientTransform="translate(1412.41 -1079.88) rotate(130.24)" xlink:href="#radial-gradient"/><radialGradient id="radial-gradient-7" cx="219.13" cy="106.89" r="55.08" gradientTransform="matrix(1, 0, 0, 1, 0, 0)" xlink:href="#radial-gradient"/><radialGradient id="radial-gradient-8" cx="1883.04" cy="8.31" r="51.05" gradientTransform="matrix(-0.65, 0.76, -0.76, -0.65, 1444.66, -1316.79)" xlink:href="#radial-gradient"/><radialGradient id="radial-gradient-9" cx="1969.92" cy="-77.77" r="55.16" gradientTransform="translate(-264.12 -1794.68) rotate(77.75)" xlink:href="#radial-gradient"/><radialGradient id="radial-gradient-10" cx="2061.91" cy="-155.9" r="45.33" gradientTransform="translate(1438.85 -1546.14) rotate(130.25)" xlink:href="#radial-gradient"/><radialGradient id="radial-gradient-11" cx="2128.31" cy="-261.68" r="55.16" gradientTransform="matrix(0.05, 1, -1, 0.05, -124.36, -1990.74)" xlink:href="#radial-gradient"/><radialGradient id="radial-gradient-12" cx="2199.28" cy="-359.61" r="51.05" gradientTransform="translate(1385.75 -1779.98) rotate(130.25)" xlink:href="#radial-gradient"/><radialGradient id="radial-gradient-13" cx="2253.99" cy="-470.54" r="55.16" gradientTransform="translate(44.62 -2161.2) rotate(96.74)" xlink:href="#radial-gradient"/><radialGradient id="radial-gradient-14" cx="2311.43" cy="-572.17" r="46.2" gradientTransform="matrix(-0.65, 0.76, -0.76, -0.65, 1296.15, -1990.03)" xlink:href="#radial-gradient"/><radialGradient id="radial-gradient-15" cx="2344.28" cy="-697.05" r="55.16" gradientTransform="matrix(-0.28, 0.96, -0.96, -0.28, 239.91, -2302.02)" xlink:href="#radial-gradient"/><radialGradient id="radial-gradient-16" cx="2392.07" cy="-794.83" r="36.87" gradientTransform="translate(1170.92 -2180.77) rotate(130.26)" xlink:href="#radial-gradient"/><radialGradient id="radial-gradient-17" cx="2395.54" cy="-935.08" r="55.16" gradientTransform="translate(455.74 -2408.23) rotate(115.74)" xlink:href="#radial-gradient"/><radialGradient id="radial-gradient-18" cx="2413.01" cy="-1048.05" r="48.34" gradientTransform="translate(1008.89 -2355) rotate(130.25)" xlink:href="#radial-gradient"/><radialGradient id="radial-gradient-19" cx="2406.85" cy="-1177.16" r="55.16" gradientTransform="matrix(-0.58, 0.82, -0.82, -0.58, 686.85, -2476.63)" xlink:href="#radial-gradient"/><radialGradient id="radial-gradient-20" cx="2410.89" cy="-1283.81" r="40.82" gradientTransform="translate(819.28 -2494.38) rotate(130.28)" xlink:href="#radial-gradient"/><radialGradient id="radial-gradient-21" cx="2378.09" cy="-1419.18" r="55.16" gradientTransform="matrix(-0.7, 0.71, -0.71, -0.7, 925.42, -2507.03)" xlink:href="#radial-gradient"/><radialGradient id="radial-gradient-22" cx="2352.4" cy="-1533.04" r="51.05" gradientTransform="matrix(-0.76, -0.65, 0.65, -0.76, 3039.49, 536.47)" xlink:href="#radial-gradient"/><radialGradient id="radial-gradient-23" cx="2310" cy="-1653.17" r="55.16" gradientTransform="translate(1165.91 -2497.75) rotate(144.23)" xlink:href="#radial-gradient"/><radialGradient id="radial-gradient-24" cx="2273.36" cy="-1751.27" r="42.41" gradientTransform="translate(3105.69 326.57) rotate(-139.75)" xlink:href="#radial-gradient"/><radialGradient id="radial-gradient-25" cx="253.75" cy="205.94" r="55.03" gradientTransform="matrix(1, 0, 0, 1, 0, 0)" xlink:href="#radial-gradient"/><radialGradient id="radial-gradient-26" cx="2144.09" cy="-1966.14" r="47.61" gradientTransform="translate(3148.58 91.35) rotate(-139.75)" xlink:href="#radial-gradient"/><radialGradient id="radial-gradient-27" cx="2062.93" cy="-2070.97" r="55.16" gradientTransform="translate(1625.27 -2361.09) rotate(163.23)" xlink:href="#radial-gradient"/><radialGradient id="radial-gradient-28" cx="1984.79" cy="-2156.72" r="51.04" gradientTransform="translate(3147.97 -144.64) rotate(-139.75)" xlink:href="#radial-gradient"/><radialGradient id="radial-gradient-29" cx="1892.61" cy="-2243.41" r="55.16" gradientTransform="translate(1833.12 -2237.5) rotate(172.73)" xlink:href="#radial-gradient"/><radialGradient id="radial-gradient-30" cx="1799.86" cy="-2313.79" r="51.05" gradientTransform="matrix(-0.76, -0.65, 0.65, -0.76, 3100.13, -375.39)" xlink:href="#radial-gradient"/><radialGradient id="radial-gradient-31" cx="1694.88" cy="-2385.44" r="55.16" gradientTransform="matrix(-1, -0.04, 0.04, -1, 2016.55, -2081.73)" xlink:href="#radial-gradient"/><radialGradient id="radial-gradient-32" cx="1596.87" cy="-2432.9" r="44.88" gradientTransform="matrix(-0.76, -0.65, 0.65, -0.76, 3008.16, -597.34)" xlink:href="#radial-gradient"/><radialGradient id="radial-gradient-33" cx="1475.41" cy="-2492.87" r="55.16" gradientTransform="translate(2170.79 -1898.3) rotate(-168.28)" xlink:href="#radial-gradient"/><radialGradient id="radial-gradient-34" cx="1364.3" cy="-2528.47" r="51.05" gradientTransform="matrix(-0.76, -0.65, 0.65, -0.76, 2886.85, -807.72)" xlink:href="#radial-gradient"/><radialGradient id="radial-gradient-35" cx="1242.98" cy="-2562.82" r="55.16" gradientTransform="translate(2294.24 -1691) rotate(-158.78)" xlink:href="#radial-gradient"/><radialGradient id="radial-gradient-36" cx="1130.76" cy="-2575.84" r="47.99" gradientTransform="translate(2699.24 -1046.76) rotate(-140.94)" xlink:href="#radial-gradient"/><radialGradient id="radial-gradient-37" cx="1001.6" cy="-2593.79" r="55.16" gradientTransform="translate(2381.63 -1466.88) rotate(-149.28)" xlink:href="#radial-gradient"/><radialGradient id="radial-gradient-38" cx="181.8" cy="252.34" r="54.6" gradientTransform="translate(431.63 67.1) rotate(89.22)" xlink:href="#radial-gradient"/><radialGradient id="radial-gradient-39" cx="175.43" cy="103.61" r="50.8" gradientTransform="translate(8.14 -12.69) rotate(4.24)" xlink:href="#radial-gradient"/><radialGradient id="radial-gradient-40" cx="176.6" cy="244.09" r="49.05" gradientTransform="translate(403.45 45.83) rotate(84.73)" xlink:href="#radial-gradient"/><radialGradient id="radial-gradient-41" cx="187.2" cy="244.58" r="49.41" gradientTransform="translate(23.49 -16.31) rotate(5.32)" xlink:href="#radial-gradient"/><radialGradient id="radial-gradient-42" cx="5370.01" cy="-4384.26" r="55.16" gradientTransform="matrix(-0.65, 0.76, 0.76, 0.65, 6995.26, -1107.92)" xlink:href="#radial-gradient"/><radialGradient id="radial-gradient-43" cx="161.61" cy="97.01" r="57.12" gradientTransform="translate(27.69 -35.64) rotate(13.75)" xlink:href="#radial-gradient"/><radialGradient id="radial-gradient-44" cx="4771.95" cy="-5071.1" r="55.16" gradientTransform="matrix(-0.52, 0.85, 0.85, 0.52, 6966.8, -1347.32)" xlink:href="#radial-gradient"/><radialGradient id="radial-gradient-45" cx="152.51" cy="109.47" r="50.92" gradientTransform="translate(55.6 -51.31) rotate(23.25)" xlink:href="#radial-gradient"/><radialGradient id="radial-gradient-46" cx="144.55" cy="106.89" r="55.08" gradientTransform="matrix(1, 0, 0, 1, 0, 0)" xlink:href="#radial-gradient"/><radialGradient id="radial-gradient-47" cx="142.06" cy="115.02" r="51.01" gradientTransform="translate(84.8 -58.56) rotate(32.75)" xlink:href="#radial-gradient"/><radialGradient id="radial-gradient-48" cx="133.78" cy="113.82" r="55.15" gradientTransform="matrix(1, 0, 0, 1, 0, 0)" xlink:href="#radial-gradient"/><radialGradient id="radial-gradient-49" cx="138.1" cy="128.21" r="45.34" gradientTransform="translate(122.07 -59.55) rotate(42.25)" xlink:href="#radial-gradient"/><radialGradient id="radial-gradient-50" cx="2424.94" cy="-6421.21" r="55.16" gradientTransform="matrix(-0.05, 1, 1, 0.05, 6654.45, -1990.74)" xlink:href="#radial-gradient"/><radialGradient id="radial-gradient-51" cx="124.6" cy="130.88" r="51.04" gradientTransform="translate(150.22 -48) rotate(51.74)" xlink:href="#radial-gradient"/><radialGradient id="radial-gradient-52" cx="1530.07" cy="-6594.22" r="55.16" gradientTransform="matrix(0.12, 0.99, 0.99, -0.12, 6485.47, -2161.2)" xlink:href="#radial-gradient"/><radialGradient id="radial-gradient-53" cx="124.07" cy="144.05" r="46.13" gradientTransform="translate(190.66 -34.02) rotate(61.24)" xlink:href="#radial-gradient"/><radialGradient id="radial-gradient-54" cx="619.58" cy="-6617.29" r="55.16" gradientTransform="matrix(0.28, 0.96, 0.96, -0.28, 6290.18, -2302.02)" xlink:href="#radial-gradient"/><radialGradient id="radial-gradient-55" cx="132.18" cy="158.18" r="36.68" gradientTransform="translate(237.9 -18.78) rotate(70.74)" xlink:href="#radial-gradient"/><radialGradient id="radial-gradient-56" cx="-282.38" cy="-6489.47" r="55.16" gradientTransform="matrix(0.43, 0.9, 0.9, -0.43, 6074.35, -2408.23)" xlink:href="#radial-gradient"/><radialGradient id="radial-gradient-57" cx="114.06" cy="163.67" r="48.01" gradientTransform="translate(256.02 23.51) rotate(80.24)" xlink:href="#radial-gradient"/><radialGradient id="radial-gradient-58" cx="-1150.64" cy="-6214.01" r="55.16" gradientTransform="matrix(0.58, 0.82, 0.82, -0.58, 5843.24, -2476.63)" xlink:href="#radial-gradient"/><radialGradient id="radial-gradient-59" cx="123.82" cy="174.85" r="40.33" gradientTransform="translate(298.03 50.13) rotate(89.71)" xlink:href="#radial-gradient"/><radialGradient id="radial-gradient-60" cx="-1961.82" cy="-5799.79" r="55.16" gradientTransform="matrix(0.7, 0.71, 0.71, -0.7, 5604.67, -2507.03)" xlink:href="#radial-gradient"/><radialGradient id="radial-gradient-61" cx="110.17" cy="186.62" r="50.71" gradientTransform="translate(31.32 -15.24) rotate(9.22)" xlink:href="#radial-gradient"/><radialGradient id="radial-gradient-62" cx="-2693.38" cy="-5257.4" r="55.16" gradientTransform="matrix(0.81, 0.58, 0.58, -0.81, 5364.18, -2497.75)" xlink:href="#radial-gradient"/><radialGradient id="radial-gradient-63" cx="124.6" cy="194.18" r="42.22" gradientTransform="translate(68.91 -29.71) rotate(18.72)" xlink:href="#radial-gradient"/><radialGradient id="radial-gradient-64" cx="6420.16" cy="205.94" r="55.03" gradientTransform="matrix(-1, 0, 0, 1, 6530.09, 0)" xlink:href="#radial-gradient"/><radialGradient id="radial-gradient-65" cx="122.02" cy="206.66" r="47.54" gradientTransform="translate(112.21 -33.13) rotate(28.22)" xlink:href="#radial-gradient"/><radialGradient id="radial-gradient-66" cx="-3840.84" cy="-3850.42" r="55.16" gradientTransform="matrix(0.96, 0.29, 0.29, -0.96, 4904.82, -2361.09)" xlink:href="#radial-gradient"/><radialGradient id="radial-gradient-67" cx="124.19" cy="218.89" r="51.04" gradientTransform="translate(159.91 -30.23) rotate(37.73)" xlink:href="#radial-gradient"/><radialGradient id="radial-gradient-68" cx="-4224.51" cy="-3024.17" r="55.16" gradientTransform="matrix(0.99, 0.13, 0.13, -0.99, 4696.97, -2237.5)" xlink:href="#radial-gradient"/><radialGradient id="radial-gradient-69" cx="132.18" cy="227.62" r="51.05" gradientTransform="translate(209.46 -24) rotate(47.22)" xlink:href="#radial-gradient"/><radialGradient id="radial-gradient-70" cx="-4467.18" cy="-2146.16" r="55.16" gradientTransform="matrix(1, -0.04, -0.04, -1, 4513.55, -2081.73)" xlink:href="#radial-gradient"/><radialGradient id="radial-gradient-71" cx="146.29" cy="227.62" r="44.84" gradientTransform="matrix(0.55, 0.84, -0.84, 0.55, 256.28, -19.59)" xlink:href="#radial-gradient"/><radialGradient id="radial-gradient-72" cx="-4562.25" cy="-1240.57" r="55.16" gradientTransform="matrix(0.98, -0.2, -0.2, -0.98, 4359.31, -1898.3)" xlink:href="#radial-gradient"/><radialGradient id="radial-gradient-73" cx="151.9" cy="240.56" r="50.92" gradientTransform="translate(310.86 4.6) rotate(66.24)" xlink:href="#radial-gradient"/><radialGradient id="radial-gradient-74" cx="-4505.53" cy="-331.12" r="55.16" gradientTransform="matrix(0.93, -0.36, -0.36, -0.93, 4235.85, -1691)" xlink:href="#radial-gradient"/><radialGradient id="radial-gradient-75" cx="165.51" cy="240.56" r="47.72" gradientTransform="translate(362.32 24.85) rotate(76.9)" xlink:href="#radial-gradient"/><radialGradient id="radial-gradient-76" cx="-4299.66" cy="556.02" r="55.16" gradientTransform="matrix(0.86, -0.51, -0.51, -0.86, 4148.46, -1466.88)" xlink:href="#radial-gradient"/><filter id="luminosity-noclip-2" x="6.12" y="0" width="351.67" height="351.67" filterUnits="userSpaceOnUse" color-interpolation-filters="sRGB"><feFlood flood-color="#fff" result="bg"/><feBlend in="SourceGraphic" in2="bg"/></filter><mask id="mask-2" x="6.12" y="0" width="351.67" height="351.67" maskUnits="userSpaceOnUse"><g class="cls-1"><path class="cls-2" d="M182,351.67A175.88,175.88,0,0,1,113.51,13.82,175.83,175.83,0,0,1,306.29,300.17,175.31,175.31,0,0,1,182,351.67ZM182,1.43a174.45,174.45,0,0,0-67.89,335.11A174.46,174.46,0,0,0,249.85,15.13,173.45,173.45,0,0,0,182,1.43Z"/></g></mask><linearGradient id="linear-gradient-2" x1="57.62" y1="300.17" x2="306.29" y2="51.5" gradientUnits="userSpaceOnUse"><stop offset="0" stop-color="#d7b676"/><stop offset="0.54"/><stop offset="1" stop-color="#c5a76e"/></linearGradient><linearGradient id="linear-gradient-3" x1="352.43" y1="179.98" x2="361.74" y2="170.67" gradientUnits="userSpaceOnUse"><stop offset="0" stop-color="#ab8d60"/><stop offset="0.07" stop-color="#b29466"/><stop offset="0.51" stop-color="#dbc087"/><stop offset="1" stop-color="#ab8d60"/></linearGradient><linearGradient id="linear-gradient-4" x1="2" y1="180.14" x2="11.67" y2="170.47" xlink:href="#linear-gradient-3"/></defs><path class="cls-3" d="M182.13,175.16l-.25-19,1.43,0,.25,19Zm-.28-21.42,0-1.9h0l-.25-19,1.43,0,.27,20.94Zm-.3-23.32-.28-20.94,1.43,0,.25,19h0l0,1.9Zm-.31-23.32L181,86.16l1.43,0,.25,19h0l0,1.9Zm-.3-23.32-.27-20.94,1.43,0,.24,19h0l0,1.9Zm-.3-23.32-.28-20.94h1.43l.25,19h0l0,1.91Zm-.31-23.32,0-1.9h0l-.19-14.66,1.43,0,.21,16.57Z"/><rect class="cls-4" x="116.83" y="103.21" width="142.84" height="1.43" transform="translate(70.64 283.94) rotate(-85.74)"/><path class="cls-5" d="M183.55,175.26l-1.41-.22,1.49-9.41,1.41.23Zm1.86-11.75-1.41-.23.3-1.88,1.41.23Zm.52-3.29-1.41-.23,1.49-9.4,1.41.22Zm1.86-11.76-1.41-.22.3-1.88,1.41.22Zm.52-3.29L186.9,145l1.49-9.4,1.41.22Zm1.87-11.75-1.41-.22.29-1.88,1.41.22Zm.52-3.29-1.41-.22,1.49-9.4,1.41.22Zm1.86-11.75-1.41-.22.3-1.88,1.41.22Zm.52-3.29-1.41-.22,1.49-9.41,1.41.23Zm1.86-11.75-1.41-.23.3-1.88,1.41.23Zm.53-3.29-1.42-.23,1.49-9.4,1.41.22Zm1.86-11.76-1.41-.22.29-1.88,1.41.22Zm.52-3.29-1.41-.22,1.49-9.4,1.41.22Zm1.86-11.75L198.3,73l.3-1.88,1.41.22Zm.52-3.29-1.41-.22,1.49-9.4,1.41.22Zm1.86-11.75L200.68,58l.3-1.88,1.41.22Zm.53-3.29-1.41-.22,1.48-9.41,1.42.23Zm1.86-11.75-1.41-.23.29-1.88,1.42.23Zm.52-3.29-1.41-.23,1.49-9.4,1.41.22Zm1.86-11.76-1.41-.22.3-1.88,1.41.22Zm.52-3.29L206,24.61l.36-2.27,1.41.22Z"/><rect class="cls-6" x="129.94" y="106.89" width="139.08" height="1.43" transform="translate(47.56 275.79) rotate(-76.25)"/><path class="cls-7" d="M183.52,175.37l-1.35-.45,6-18,1.35.45Zm6.8-20.31-1.36-.45,6.65-19.86,1.35.45-6,18.06-.54-.18.54.18Zm7.4-22.11-1.36-.46L203,112.64l1.35.45-6,18-.68-.22.68.22Zm7.4-22.12-1.36-.45,6.65-19.86,1.35.45-6,18.06-.73-.25.73.25Zm7.4-22.11-1.36-.46,6.65-19.86,1.35.46-6,18-.76-.26.76.26Zm7.4-22.12-1.36-.45,6.65-19.86,1.35.45-6,18.05-.81-.27.81.27Zm7.4-22.12L226,44l5.26-15.72,1.36.45-4.66,13.92-.68-.23.68.23Z"/><rect class="cls-8" x="139.68" y="108.75" width="142.97" height="1.43" transform="translate(27.21 260.24) rotate(-66.74)"/><path class="cls-9" d="M183.47,175.48l-1.26-.67L191.15,158l1.26.67Zm10.06-18.91-1.26-.67.89-1.68.63.34-.63-.34,8.94-16.81,1.26.67ZM204.48,136l-1.26-.67,9.83-18.49,1.26.67-8.94,16.81-.48-.25.48.25Zm10.94-20.59-1.26-.67.9-1.68.76.4-.76-.4L224,96.23l1.27.67Zm11-20.59-1.26-.67,9.83-18.49,1.26.67-8.93,16.81-.63-.34.63.34Zm10.95-20.59-1.26-.67.89-1.69,1.26.67L237,71.85,245.89,55l1.26.67Zm11-20.6L247,52.94l7.78-14.64,1.26.67-6.89,13-.78-.42.78.42Z"/><rect class="cls-10" x="150.13" y="114.31" width="142.97" height="1.43" transform="translate(5 239.2) rotate(-57.25)"/><path class="cls-11" d="M183.41,175.58l-1.13-.87,5.79-7.55,1.13.87Zm7.24-9.44-1.13-.87,1.16-1.51,1.13.87Zm2-2.64-1.13-.87,5.79-7.55,1.13.87Zm7.24-9.44-1.13-.87,1.16-1.51,1.13.87Zm2-2.65-1.13-.86,5.79-7.56,1.14.87Zm7.24-9.44-1.13-.86,1.16-1.51,1.13.86Zm2-2.64-1.13-.87,5.79-7.55,1.14.87Zm7.24-9.44-1.13-.87,1.16-1.51,1.13.87Zm2-2.64-1.13-.87,5.79-7.55,1.14.87Zm7.25-9.44-1.14-.87,1.16-1.51,1.13.87Zm2-2.65-1.13-.86,5.79-7.56,1.14.87Zm7.25-9.44-1.14-.87,1.16-1.51,1.14.87Zm2-2.64-1.13-.87,5.8-7.55,1.13.87Zm7.25-9.44-1.14-.87,1.16-1.51,1.14.87Zm2-2.64-1.13-.87,5.8-7.55,1.13.87Zm7.25-9.44-1.14-.87,1.16-1.51,1.14.87Zm2-2.65L256.44,78l5.8-7.55,1.13.87Zm7.24-9.44-1.13-.87,1.15-1.51L266,68Zm2-2.64L265.71,66l5.8-7.55,1.13.87Zm7.24-9.44L273,56.52,274.12,55l1.13.87Zm2-2.64L275,53.88l1.41-1.83,1.13.87Z"/><rect class="cls-12" x="162.17" y="127.5" width="126.81" height="1.43" transform="translate(-20.99 209.01) rotate(-47.76)"/><path class="cls-13" d="M183.33,175.67l-1-1,7-6.5,1,1.05Zm8.7-8.12-1-1,1.39-1.3,1,1Zm2.44-2.27-1-1,7-6.5,1,1Zm8.7-8.11-1-1,1.4-1.3,1,1.05Zm2.44-2.28-1-1,7-6.49,1,1Zm8.7-8.11-1-1.05,1.39-1.3,1,1Zm2.43-2.27-1-1,7-6.49,1,1Zm8.7-8.12-1-1,1.39-1.3,1,1Zm2.44-2.27-1-1.05,7-6.49,1,1Zm8.7-8.12-1-1,1.39-1.3,1,1Zm2.44-2.27-1-1,7-6.49,1,1Zm8.7-8.12-1-1,1.39-1.3,1,1Zm2.44-2.27-1-1,7-6.5,1,1Zm8.7-8.11-1-1,1.39-1.3,1,1.05Zm2.43-2.28-1-1,7-6.49,1,1Zm8.7-8.11-1-1,1.39-1.3,1,1.05Zm2.44-2.28-1-1,7-6.49,1,1Zm8.7-8.11-1-1,1.39-1.3,1,1Zm2.44-2.27-1-1.05,7-6.49,1,1Zm8.7-8.12-1-1,1.39-1.3,1,1Zm2.44-2.27-1-1.05,1.69-1.57,1,1Z"/><rect class="cls-14" x="167.59" y="130.17" width="142.97" height="1.43" transform="translate(-29.69 176.16) rotate(-38.26)"/><path class="cls-15" d="M183.24,175.74l-.79-1.19L198.32,164l.79,1.19Zm17.86-11.82-.79-1.19,1.58-1,.79,1.19Zm2.77-1.84-.79-1.19L219,150.38l.79,1.19Zm17.86-11.82-.79-1.19,1.59-1.06.79,1.2Zm2.78-1.84-.79-1.19,15.87-10.51.79,1.19Zm17.86-11.83-.79-1.19,1.59-1.05.78,1.19Zm2.77-1.84-.78-1.19,15.87-10.51.79,1.19ZM263,122.93l-.79-1.19,1.59-1,.79,1.19Zm2.78-1.84L265,119.9l15.88-10.51.78,1.19Zm17.86-11.82-.79-1.19,1.59-1,.79,1.19Zm2.78-1.84-.79-1.19L301.5,95.73l.79,1.19ZM304.27,95.6l-.78-1.19,1.58-1,.79,1.19Zm2.78-1.83-.79-1.19,5.1-3.38.79,1.19Z"/><rect class="cls-16" x="174.97" y="143.34" width="129.27" height="1.43" transform="translate(-39.75 133.02) rotate(-28.75)"/><path class="cls-17" d="M183.13,175.8l-.58-1.3,5.22-2.33.58,1.31Zm7.39-3.29-.58-1.31,7-3.1.58,1.31Zm9.13-4.07-.58-1.3,7-3.1.58,1.3-5.22,2.33-.3-.7.3.7Zm9.13-4.07-.58-1.3,7-3.1.58,1.3-5.22,2.33-.29-.65.29.65Zm9.13-4.06-.58-1.31,1.74-.77.29.65-.29-.65,5.22-2.33.58,1.31Zm9.13-4.07-.58-1.3,7-3.1.58,1.3-5.22,2.32-.25-.57.25.57Zm9.13-4.07-.58-1.3,7-3.1.58,1.3-5.22,2.33-.29-.65.29.65Zm9.13-4.06-.58-1.31,1.74-.77.58,1.3-.58-1.3,5.22-2.33.58,1.31Zm9.13-4.07-.58-1.31,1.74-.77.29.65-.29-.65,5.22-2.32.58,1.3Zm9.13-4.07-.58-1.3,7-3.1.58,1.3-5.22,2.33-.29-.65.29.65Zm9.13-4.07-.58-1.3,7-3.1.58,1.31-5.22,2.32-.29-.65.29.65Zm9.13-4.06-.58-1.31,1.74-.77.24.53-.24-.53,5.22-2.32.58,1.3Zm9.13-4.07-.58-1.3,7-3.1.58,1.3L292.69,127l-.32-.73.32.73Zm9.13-4.07-.58-1.3,7-3.1.58,1.31-5.22,2.32-.29-.65.29.65Zm9.13-4.06-.58-1.31,1.74-.77.35.77-.35-.77,5.22-2.33.58,1.31Zm9.13-4.07-.58-1.3,1.74-.78.18.4-.18-.4,4.28-1.9.58,1.3Z"/><rect class="cls-18" x="180.07" y="157.47" width="102.86" height="1.43" transform="translate(-39.24 85.27) rotate(-19.27)"/><path class="cls-19" d="M183,175.84l-.36-1.38,9.22-2.39.36,1.38Zm11.52-3-.36-1.39L196,171l.35,1.38Zm3.23-.84-.36-1.38,9.21-2.39.36,1.39Zm11.51-3-.35-1.38,1.84-.48.36,1.38Zm3.23-.83-.36-1.39,9.22-2.38.36,1.38Zm11.52-3-.36-1.38,1.84-.48.36,1.39Zm3.22-.83L226.9,163l9.21-2.39.36,1.38Zm11.52-3-.35-1.39,1.84-.47.36,1.38Zm3.23-.84-.36-1.38,9.22-2.39.35,1.39Zm11.52-3-.36-1.38,1.84-.48.36,1.38Zm3.22-.83-.36-1.39L265.6,153l.36,1.38Zm11.52-3-.36-1.38,1.85-.48.35,1.39Zm3.23-.83-.36-1.38,9.21-2.39.36,1.38ZM283,150l-.36-1.38,1.84-.48.36,1.38Zm3.22-.84-.36-1.38,9.22-2.39.36,1.39Zm11.52-3-.36-1.38,1.85-.48.35,1.38Zm3.23-.83-.36-1.39,9.21-2.38.36,1.38Zm11.51-3-.35-1.38,1.84-.48.36,1.39Zm3.23-.83-.36-1.38,9.22-2.39.36,1.38Zm11.52-3-.36-1.38,1.84-.48.36,1.38Zm3.22-.84-.35-1.38,2.22-.58.36,1.39Z"/><rect class="cls-20" x="181.97" y="162.96" width="135.3" height="1.43" transform="translate(-24.15 44.72) rotate(-9.77)"/><path class="cls-21" d="M182.91,175.86l-.13-1.42,19-1.67.12,1.42ZM204.24,174l-.12-1.43L225,170.73l.12,1.43Zm23.23-2-.12-1.42,20.86-1.84.12,1.43Zm23.23-2-.12-1.42,20.86-1.83.13,1.42Zm23.24-2-.13-1.42,20.86-1.83.13,1.42Zm23.23-2-.13-1.42,20.87-1.83L318,164Zm23.23-2-.12-1.42,16.51-1.45.13,1.42-14.62,1.29-.07-.71.07.71Z"/><rect class="cls-22" x="182.84" y="174.13" width="114.04" height="1.43" transform="translate(-0.9 1.25) rotate(-0.3)"/><path class="cls-23" d="M336.92,187.94l-16.53-1.29.11-1.43,1.9.15-.06.71.06-.71L337,186.52ZM318,186.46l-20.88-1.64.11-1.42,1.9.15-.06.71.06-.71,19,1.49Zm-23.25-1.82L273.89,183l.11-1.42,1.9.15-.06.74.06-.74,19,1.48Zm-23.25-1.82-20.88-1.64.11-1.42,1.9.14-.06.72.06-.72,19,1.49ZM248.27,181l-20.88-1.63.11-1.43,1.9.15-.06.71.06-.71,19,1.49ZM225,179.17l-20.88-1.64.11-1.42,1.9.15-.06.71.06-.71,19,1.49Zm-23.25-1.82-19-1.49.11-1.42,19,1.48Z"/><rect class="cls-24" x="252.79" y="115.13" width="1.43" height="142.97" transform="translate(28.64 406.9) rotate(-80.77)"/><path class="cls-25" d="M332.69,213.19l-2.23-.56.35-1.38,2.23.56Zm-3.62-.9-1.84-.46.34-1.39,1.85.46Zm-4.15-1L315.68,209l.35-1.39,9.23,2.3Zm-10.62-2.64-1.85-.46.34-1.38,1.85.46Zm-4.16-1-9.24-2.3.35-1.39,9.23,2.3Zm-10.62-2.65-1.85-.46.34-1.38,1.85.46Zm-4.16-1-9.24-2.3.35-1.39,9.24,2.3Zm-10.62-2.65-1.85-.46.35-1.38,1.84.46Zm-4.16-1-9.24-2.3.35-1.39,9.24,2.3ZM270,197.57l-1.85-.46.35-1.38,1.84.46Zm-4.16-1-9.23-2.3.34-1.39,9.24,2.3Zm-10.62-2.65-1.85-.46.35-1.38,1.84.46Zm-4.16-1-9.23-2.3.34-1.39,9.24,2.3Zm-10.62-2.65-1.85-.46.35-1.38,1.85.46Zm-4.16-1-9.23-2.3.34-1.39,9.24,2.3Zm-10.62-2.65-1.85-.46.35-1.38,1.85.46Zm-4.15-1-9.24-2.3.34-1.39,9.24,2.3Zm-10.63-2.65-1.84-.46.34-1.38,1.85.46Zm-4.15-1-9.24-2.3.34-1.39,9.24,2.3Zm-10.63-2.65-1.84-.46.34-1.38,1.85.46Zm-4.15-1-9.24-2.3.35-1.39,9.23,2.3Z"/><rect class="cls-26" x="238.37" y="134.91" width="1.43" height="118.55" transform="translate(-21.58 358.25) rotate(-71.27)"/><path class="cls-27" d="M324.36,237.4l-2.11-.92.57-1.31,2.11.92Zm-3.42-1.49-1.74-.76.56-1.31,1.75.76ZM317,234.2l-8.73-3.79.57-1.31,8.73,3.79Zm-10-4.36-1.74-.76.57-1.31,1.74.76Zm-3.93-1.7-8.73-3.8.57-1.31,8.73,3.8Zm-10-4.37-1.74-.75.57-1.31,1.74.76Zm-3.93-1.7-8.73-3.79.57-1.31,8.73,3.79Zm-10-4.36-1.74-.76.57-1.31,1.74.76ZM275.11,216l-8.74-3.79.57-1.31,8.73,3.79Zm-10.05-4.36-1.74-.76.57-1.31,1.74.76Zm-3.92-1.71-8.74-3.79.57-1.31,8.73,3.79Zm-10-4.36-1.75-.76.57-1.31,1.74.76Zm-3.93-1.7-8.73-3.8.56-1.31,8.74,3.8Zm-10-4.37-1.75-.75.57-1.31,1.74.75Zm-3.93-1.7L224.47,194l.57-1.31,8.73,3.79Zm-10-4.36-1.75-.76.57-1.31,1.75.76Zm-3.93-1.71-8.73-3.79.57-1.31,8.73,3.79Zm-10-4.36-1.75-.76.57-1.31,1.75.76Zm-3.93-1.71-8.73-3.79.57-1.31,8.73,3.79Zm-10-4.36-1.75-.76.57-1.31,1.75.76Zm-3.93-1.71-8.73-3.79.57-1.31,8.73,3.79Z"/><rect class="cls-28" x="240.94" y="140.03" width="1.43" height="133.27" transform="translate(-54.72 321.84) rotate(-61.77)"/><path class="cls-29" d="M312.15,259.9,307,256.57l.77-1.2,5.13,3.33Zm-6.32-4.11-1.6-1,.78-1.2,1.6,1Zm-3.6-2.33-16-10.36.78-1.2,16,10.36Zm-17.16-11.14-1.6-1,.78-1.2,1.59,1Zm-3.6-2.33-16-10.36.78-1.2,16,10.36ZM264.3,228.85l-1.59-1,.77-1.2,1.6,1Zm-3.59-2.33-16-10.36.78-1.2,16,10.36Zm-17.17-11.14-1.59-1,.77-1.19,1.6,1ZM240,213.05l-16-10.36.78-1.2,16,10.36Zm-17.17-11.14-1.6-1,.78-1.19,1.6,1Zm-3.59-2.33-16-10.36L204,188l16,10.36ZM202,188.44l-1.6-1,.78-1.19,1.6,1Zm-3.6-2.33-16-10.36.78-1.2,16,10.36Z"/><rect class="cls-30" x="238.78" y="147.4" width="1.43" height="142.97" transform="translate(-80.18 274.38) rotate(-52.28)"/><path class="cls-31" d="M296.4,280.07l-1.7-1.55,1-1.06,1.7,1.56Zm-2.76-2.52-1.4-1.28,1-1.06,1.41,1.29Zm-3.16-2.89-7-6.43,1-1.05,7,6.43Zm-8.07-7.39L281,266l1-1.05,1.4,1.28Zm-3.16-2.9-7-6.42,1-1.06,7,6.43ZM271.18,257l-1.41-1.28,1-1.06,1.4,1.29ZM268,254.09l-7-6.43,1-1,7,6.43Zm-8.08-7.39-1.4-1.29,1-1,1.41,1.29Zm-3.16-2.89-7-6.43,1-1,7,6.42Zm-8.07-7.4-1.4-1.28,1-1,1.4,1.28Zm-3.16-2.89-7-6.43,1-1.05,7,6.43Zm-8.07-7.39-1.41-1.29,1-1.05,1.4,1.29Zm-3.16-2.89-7-6.43,1-1.05,7,6.42Zm-8.08-7.39-1.4-1.29,1-1.05,1.41,1.28Zm-3.16-2.9-7-6.42,1-1.06,7,6.43ZM215,205.56l-1.41-1.28,1-1.06,1.4,1.29Zm-3.16-2.89-7-6.43,1-1.05,7,6.43Zm-8.07-7.39L202.37,194l1-1.05,1.41,1.28Zm-3.16-2.89-7-6.43,1-1.06,7,6.43Zm-8.08-7.4-1.4-1.28,1-1.05,1.41,1.28Zm-3.16-2.89-7-6.43,1-1,7,6.43Z"/><rect class="cls-32" x="230.78" y="156.13" width="1.43" height="142.97" transform="translate(-93.01 217.77) rotate(-42.78)"/><path class="cls-33" d="M277.53,297.37l-3.77-4.81,1.13-.88,3.76,4.81Zm-4.65-5.94-1.17-1.5,1.12-.88,1.18,1.5Zm-2.64-3.37-11.73-15,1.13-.88,11.73,15Zm-12.61-16.12-1.17-1.5,1.13-.88,1.17,1.5ZM255,268.56l-11.73-15,1.12-.88,11.73,15Zm-12.61-16.12-1.17-1.5,1.12-.88,1.17,1.5Zm-2.64-3.37-11.73-15,1.13-.88,11.72,15ZM227.14,233l-1.17-1.5,1.12-.88,1.18,1.5Zm-2.64-3.38-11.73-15,1.13-.88,11.73,15Zm-12.61-16.12-1.17-1.5,1.13-.88,1.17,1.5Zm-2.63-3.37-11.73-15,1.12-.88,11.73,15ZM196.65,194l-1.18-1.5,1.13-.88,1.17,1.5ZM194,190.58l-11.73-15,1.13-.88,11.72,15Z"/><rect class="cls-34" x="216.67" y="164.85" width="1.43" height="125.53" transform="translate(-89.25 156.62) rotate(-33.28)"/><path class="cls-35" d="M256.06,311.32l-1.1-2,1.25-.68,1.1,2ZM254.28,308l-.91-1.67,1.25-.69.91,1.68Zm-2.05-3.76-4.54-8.37,1.25-.68,4.55,8.36ZM247,294.66l-.91-1.67,1.26-.69.91,1.68Zm-2-3.76-4.55-8.37,1.26-.68,4.54,8.36Zm-5.23-9.62-.91-1.67,1.25-.69.91,1.68Zm-2-3.76-4.54-8.37,1.25-.68,4.55,8.36Zm-5.23-9.62-.9-1.67,1.25-.69.91,1.68Zm-2-3.77-4.55-8.36,1.26-.68,4.54,8.36Zm-5.23-9.61-.91-1.67,1.26-.69.9,1.68Zm-2.05-3.77-4.54-8.36,1.25-.68,4.55,8.36Zm-5.22-9.61-.91-1.68,1.25-.68.91,1.68Zm-2-3.77L211.31,229l1.26-.68,4.54,8.36Zm-5.23-9.61-.91-1.68,1.26-.68.91,1.67Zm-2-3.77L204,215.63l1.25-.68,4.55,8.36Zm-5.23-9.61-.91-1.68,1.25-.68.91,1.67Zm-2.05-3.77-4.55-8.36,1.26-.68,4.55,8.36ZM196.08,201l-.91-1.67,1.26-.68.91,1.67Zm-2-3.76-4.55-8.36,1.25-.68,4.55,8.36Zm-5.23-9.62-.91-1.67,1.25-.68.91,1.67Zm-2.05-3.76-4.54-8.36,1.25-.68,4.55,8.36Z"/><rect class="cls-36" x="211.06" y="169.08" width="1.43" height="142.97" transform="translate(-79.03 105.83) rotate(-23.78)"/><path class="cls-37" d="M232.59,321.53l-4.79-13.87.68-.24-.68.24-.62-1.8,1.35-.47,5.41,15.68Zm-6.19-17.92-6.83-19.8,1.35-.46.63,1.8-.63.21.63-.21,6.2,18Zm-7.6-22.05L212,261.77l1.35-.47.62,1.8-.49.17.49-.17,6.21,18Zm-7.61-22-6.83-19.8,1.35-.47.62,1.8-.67.24.67-.24,6.21,18Zm-7.6-22-6.83-19.8,1.35-.46.62,1.8-.56.19.56-.19,6.21,18ZM196,215.42l-6.21-18,.68-.24-.68.24-.62-1.8,1.35-.47,6.83,19.8Zm-7.6-22-6.21-18,1.35-.47,6.21,18Z"/><rect class="cls-38" x="197.45" y="173.4" width="1.43" height="134.33" transform="translate(-49.36 51.17) rotate(-13.1)"/><path class="cls-39" d="M207.75,327.73l-2.43-14.47h0l-.32-1.88,1.41-.24.32,1.88-.73.12.73-.12,2.43,14.48ZM204.61,309l-3.15-18.77h0l-.32-1.88,1.41-.23.31,1.87-.71.12.71-.12L206,308.8Zm-3.86-23-3.47-20.66,1.41-.23L199,267l-.78.14L199,267l3.15,18.78Zm-3.87-23-3.15-18.78.7-.12-.7.12-.32-1.88,1.41-.23,3.47,20.65ZM193,240l-3.15-18.78.71-.12-.71.12-.32-1.87,1.41-.24,3.47,20.65Zm-3.86-23L186,198.26l.64-.1-.64.1-.31-1.87,1.41-.24,3.46,20.65Zm-3.87-23-3.15-18.77,1.41-.24,3.15,18.77Z"/><rect class="cls-40" x="104.61" y="251.62" width="154.39" height="1.43" transform="translate(-72.99 430.67) rotate(-89.22)"/><rect class="cls-41" x="174.71" y="31.87" width="1.43" height="143.47" transform="translate(-7.18 13.25) rotate(-4.24)"/><rect class="cls-42" x="107.36" y="243.38" width="138.47" height="1.43" transform="translate(-82.67 397.54) rotate(-84.73)"/><rect class="cls-43" x="186.48" y="174.85" width="1.43" height="139.47" transform="translate(-21.88 18.41) rotate(-5.32)"/><path class="cls-44" d="M180.13,175.26l-1.49-9.4,1.41-.23,1.49,9.41Zm-1.86-11.75-.3-1.88,1.41-.23.3,1.88Zm-.52-3.29-1.49-9.41,1.41-.22,1.49,9.4Zm-1.87-11.76-.29-1.88,1.41-.22.29,1.88Zm-.52-3.29-1.49-9.4,1.41-.22,1.49,9.4Zm-1.86-11.75-.3-1.88,1.41-.22.3,1.88Zm-.52-3.29-1.49-9.4,1.41-.22,1.49,9.4Zm-1.86-11.75-.3-1.88,1.41-.22.3,1.88Zm-.52-3.29-1.49-9.4,1.41-.23,1.49,9.41Zm-1.87-11.75-.29-1.88,1.41-.23.29,1.88Zm-.52-3.29-1.49-9.41,1.41-.22,1.49,9.4Zm-1.86-11.76-.3-1.88,1.41-.22.3,1.88ZM165.83,85l-1.49-9.4,1.41-.22,1.49,9.4ZM164,73.25l-.3-1.88,1.41-.22.3,1.88ZM163.45,70,162,60.56l1.41-.22,1.49,9.4Zm-1.87-11.75-.29-1.88,1.41-.22L163,58Zm-.52-3.29-1.49-9.4,1.41-.23,1.49,9.41ZM159.2,43.17l-.3-1.88,1.41-.23.3,1.88Zm-.52-3.29-1.49-9.41,1.41-.22,1.49,9.4Zm-1.86-11.76-.3-1.88,1.41-.22.3,1.88Zm-.52-3.29-.36-2.27,1.41-.22.36,2.27Z"/><rect class="cls-45" x="160.89" y="16.56" width="1.43" height="160.9" transform="translate(-18.43 41.2) rotate(-13.75)"/><path class="cls-46" d="M180.16,175.37l-6-18.05,1.35-.45,6,18Zm-6.8-20.31-.6-1.8,1.35-.46.61,1.81Zm-1.06-3.16-6-18.05,1.36-.45,6,18Zm-6.79-20.31-.61-1.8,1.36-.46.6,1.81Zm-1.06-3.16-6-18.05,1.35-.45,6.05,18Zm-6.8-20.31-.6-1.8,1.35-.46.61,1.81ZM156.6,105l-6-18,1.35-.45,6,18.05Zm-6.8-20.31-.6-1.8,1.35-.45.61,1.8Zm-1.06-3.16-6-18,1.36-.45,6,18.05ZM142,61.18l-.61-1.8,1.36-.45.6,1.8ZM140.89,58l-6-18.05,1.35-.45,6,18Zm-6.8-20.31-.6-1.8,1.35-.45.61,1.8ZM133,34.55l-1.94-5.79,1.35-.45,1.94,5.79Z"/><rect class="cls-47" x="151.8" y="37.98" width="1.43" height="142.97" transform="translate(-30.83 69.09) rotate(-23.25)"/><path class="cls-48" d="M180.2,175.48l-8.93-16.81,1.26-.67,8.94,16.81Zm-10-18.91-9.83-18.49,1.26-.67,8.94,16.81-.63.34.63-.34.89,1.68ZM159.2,136l-.89-1.68.47-.25-.47.25-8.94-16.81,1.26-.67,9.83,18.49Zm-10.95-20.59L138.42,96.9l1.26-.67L148.62,113l-.76.4.76-.4.89,1.68ZM137.31,94.8l-.9-1.68.63-.34-.63.34-8.94-16.81,1.26-.67,9.84,18.49Zm-11-20.59-9.83-18.5,1.26-.67,8.93,16.81-1.26.67,1.26-.67.9,1.69Zm-11-20.6-.89-1.68.78-.42-.78.42-6.89-13,1.26-.67,7.78,14.64Z"/><rect class="cls-49" x="141.35" y="43.54" width="1.43" height="142.97" transform="translate(-39.64 95.13) rotate(-32.75)"/><path class="cls-50" d="M180.27,175.58l-11.59-15.1,1.13-.87,11.59,15.1Zm-13-17L154.48,142l1.14-.86,11.59,15.1-.73.55.73-.55,1.15,1.51ZM153,140.09l-1.16-1.51.59-.46-.59.46-11.59-15.11,1.13-.87,12.75,16.62Zm-14.2-18.51-1.16-1.51.57-.43-.57.43L126.09,105l1.13-.87L140,120.71Zm-14.2-18.5L111.9,86.47,113,85.6l11.59,15.1-.57.44.57-.44,1.16,1.51Zm-14.19-18.5L97.7,68l1.13-.87L110.42,82.2l-.56.43.56-.43,1.16,1.51Zm-14.2-18.5L86.16,52.92l1.13-.87L96.23,63.7l-.41.31.41-.31,1.15,1.51Z"/><rect class="cls-51" x="137.39" y="64.8" width="1.43" height="126.81" transform="translate(-50.33 126.15) rotate(-42.25)"/><path class="cls-52" d="M180.35,175.67l-13.92-13,1-1,13.92,13Zm-15.66-14.61-1.4-1.3,1-1,1.39,1.3Zm-2.44-2.27-13.92-13,1-1,13.92,13Zm-15.66-14.61-1.4-1.3,1-1,1.39,1.3Zm-2.44-2.27-13.92-13,1-1,13.92,13ZM128.49,127.3,127.1,126l1-1,1.39,1.3ZM126.05,125l-13.92-13,1-1L127,124Zm-15.66-14.61-1.39-1.3,1-1,1.39,1.3ZM108,108.15,94,95.16l1-1,13.92,13ZM92.29,93.54l-1.39-1.3,1-1,1.4,1.29Zm-2.44-2.27-13.92-13,1-1,13.92,13ZM74.19,76.66l-1.39-1.3,1-1,1.4,1.29Zm-2.43-2.27-4.47-4.17,1-1,4.47,4.17Z"/><rect class="cls-53" x="123.88" y="59.4" width="1.43" height="142.97" transform="translate(-55.33 147.68) rotate(-51.74)"/><path class="cls-54" d="M180.44,175.74l-15.87-10.51.79-1.19,15.87,10.51Zm-17.86-11.82-1.58-1,.78-1.19,1.59,1Zm-2.78-1.84-15.87-10.51.79-1.19,15.87,10.51ZM142,150.26l-1.59-1,.79-1.2,1.58,1.06Zm-2.78-1.84L123.3,137.91l.78-1.19L140,147.23Zm-17.86-11.83-1.59-1.05.79-1.19,1.59,1.05Zm-2.78-1.84-15.87-10.51.79-1.19,15.87,10.51Zm-17.86-11.82-1.58-1.05.79-1.19,1.58,1Zm-2.77-1.84L82,110.58l.79-1.19L98.69,119.9ZM80,109.27l-1.59-1,.79-1.19,1.59,1Zm-2.78-1.84L61.39,96.92l.79-1.19,15.87,10.51ZM59.4,95.61l-1.58-1.06.78-1.19,1.59,1Zm-2.78-1.84-5.09-3.38.79-1.19,5.09,3.38Z"/><rect class="cls-55" x="123.36" y="79.42" width="1.43" height="129.27" transform="translate(-61.91 183.51) rotate(-61.24)"/><path class="cls-56" d="M180.54,175.8l-8.69-3.87.58-1.31,8.7,3.88ZM169.68,171l-1.74-.78.58-1.3,1.74.77Zm-3.05-1.36-8.69-3.87.58-1.31,8.69,3.88Zm-10.87-4.84L154,164l.59-1.31,1.73.78Zm-3-1.35-8.7-3.88.59-1.3,8.69,3.87Zm-10.87-4.85-1.74-.77.58-1.31,1.74.78Zm-3-1.35-8.7-3.88.58-1.3,8.7,3.87Zm-10.87-4.84-1.74-.78.58-1.3,1.74.77Zm-3-1.36-8.69-3.87.58-1.31,8.7,3.88ZM114,146.17l-1.74-.78.58-1.3,1.74.77Zm-3-1.36-8.69-3.87.58-1.3,8.69,3.87ZM100.11,140l-1.74-.77.59-1.31,1.73.78Zm-3-1.35-8.69-3.88.58-1.3,8.69,3.87ZM86.2,133.77,84.46,133l.58-1.3,1.74.77Zm-3-1.35-8.7-3.87.58-1.31,8.7,3.87Zm-10.87-4.84-1.74-.78.58-1.3,1.74.77Zm-3-1.36-8.7-3.87.58-1.31,8.7,3.88Zm-10.87-4.84-1.74-.77.58-1.31,1.74.78ZM55.33,120l-8.69-3.87.58-1.3,8.69,3.87Zm-10.87-4.84-1.73-.77.58-1.31,1.74.78Zm-3-1.35-2.1-.94.58-1.3,2.1.93Z"/><rect class="cls-57" x="131.47" y="106.75" width="1.43" height="102.86" transform="translate(-60.75 230.78) rotate(-70.74)"/><path class="cls-58" d="M180.66,175.84l-18.43-4.77.35-1.38L181,174.46Zm-20.74-5.37-1.84-.48.18-.69-.18.69-18.43-4.77.36-1.38,20.27,5.25Zm-22.58-5.84-20.27-5.25.36-1.38,18.43,4.77-.14.53.14-.53,1.84.47Zm-22.57-5.85-1.85-.47.18-.7-.18.7-18.43-4.77.36-1.39,20.28,5.25Zm-22.58-5.84-20.27-5.25.36-1.38,18.43,4.77-.11.42.11-.42,1.84.48Zm-22.58-5.85-20.27-5.24.36-1.39,18.43,4.78-.12.46.12-.46,1.84.47ZM47,141.25,31,137.1l.36-1.39,14.21,3.68-.2.77.2-.77,1.84.48Z"/><rect class="cls-59" x="113.35" y="96.02" width="1.43" height="135.3" transform="translate(-66.59 248.33) rotate(-80.24)"/><path class="cls-60" d="M180.77,175.86l-19-1.67.12-1.42,19,1.67ZM159.44,174l-20.86-1.83.12-1.43,20.86,1.83Zm-23.24-2-20.86-1.83.13-1.43,20.86,1.84Zm-23.23-2-20.86-1.83.13-1.42,20.86,1.83Zm-23.23-2L68.88,166l.12-1.42,20.87,1.83Zm-23.23-2L45.65,164l.12-1.42,20.86,1.83Zm-23.23-2-1.9-.16.06-.71-.06.71-14.62-1.29.13-1.42,16.51,1.45Z"/><rect class="cls-61" x="123.11" y="117.83" width="1.43" height="114.04" transform="matrix(0.01, -1, 1, 0.01, -51.66, 297.77)"/><path class="cls-62" d="M26.76,187.94l-.11-1.42,14.63-1.15.06.71-.06-.71,1.9-.15.11,1.43Zm18.9-1.48L45.55,185l19-1.49.06.71-.06-.71,1.9-.15.11,1.42Zm23.25-1.82-.11-1.43,19-1.48.06.74-.06-.74,1.9-.15.11,1.42Zm23.25-1.82-.11-1.43,19-1.49.06.72-.06-.72,1.9-.14.11,1.42ZM115.41,181l-.11-1.42,19-1.49.06.71-.06-.71,1.9-.15.11,1.43Zm23.25-1.82-.11-1.42,19-1.49.05.71-.05-.71,1.9-.15.11,1.42Zm23.25-1.82-.11-1.43,19-1.48.11,1.42Z"/><rect class="cls-63" x="38.68" y="185.9" width="142.97" height="1.43" transform="translate(-28.47 20.06) rotate(-9.22)"/><path class="cls-64" d="M31,213.19l-.34-1.38,16.09-4,.34,1.38-1.84.46-.18-.69.18.69Zm18.4-4.58L49,207.22l20.32-5.05.34,1.38-1.84.46-.18-.69.18.69ZM72,203l-.34-1.39L92,196.53l.34,1.39-1.84.46-.17-.68.17.68Zm22.63-5.64L94.3,196l20.32-5.06.34,1.38-1.84.46-.18-.69.18.69Zm22.63-5.63-.34-1.39,20.32-5.06.34,1.39-1.84.46-.18-.69.18.69Zm22.63-5.64-.34-1.38,20.32-5.06.34,1.38-1.84.46-.15-.6.15.6Zm22.63-5.63-.34-1.39,18.47-4.6.35,1.39Z"/><rect class="cls-65" x="65.32" y="193.47" width="118.55" height="1.43" transform="translate(-55.73 50.26) rotate(-18.72)"/><path class="cls-66" d="M39.31,237.4l-.56-1.31,2.11-.92.57,1.31Zm3.43-1.49-.57-1.31,1.74-.76.57,1.31Zm3.92-1.71-.56-1.31,8.73-3.79.57,1.31Zm10.05-4.36-.57-1.31,1.74-.76.57,1.31Zm3.92-1.7-.56-1.31L68.8,223l.56,1.31Zm10-4.37-.56-1.3,1.74-.76.57,1.31Zm3.93-1.7L74,220.76,82.77,217l.56,1.31Zm10-4.36-.57-1.31,1.75-.76.57,1.31ZM88.57,216,88,214.69l8.73-3.79.57,1.31Zm10-4.36L98,210.33l1.75-.76.57,1.31Zm3.93-1.71-.57-1.31,8.73-3.79.57,1.31Zm10-4.36-.57-1.31,1.75-.76.57,1.31Zm3.93-1.7-.57-1.31,8.73-3.8.57,1.31Zm10-4.37-.57-1.31,1.75-.75.57,1.31Zm3.93-1.7-.57-1.31,8.73-3.79.57,1.31Zm10-4.36-.57-1.31,1.75-.76.57,1.31Zm3.93-1.71-.57-1.31,8.73-3.79.57,1.31Zm10-4.36-.57-1.31,1.75-.76.57,1.31Zm3.93-1.71-.57-1.31,8.73-3.79.57,1.31Zm10-4.36-.57-1.31,1.75-.76.57,1.31Zm3.93-1.71-.57-1.31,8.73-3.79.57,1.31Z"/><rect class="cls-67" x="55.39" y="205.95" width="133.27" height="1.43" transform="translate(-83.21 82.25) rotate(-28.22)"/><path class="cls-68" d="M51.53,259.9l-.78-1.2,5.12-3.33.78,1.2Zm6.32-4.11-.78-1.2,1.6-1,.78,1.2Zm3.59-2.33-.77-1.2,16-10.36.77,1.2Zm17.17-11.14-.78-1.2,1.6-1,.78,1.2ZM82.2,240l-.77-1.2,16-10.36.78,1.2Zm17.17-11.14-.77-1.2,1.59-1,.78,1.2Zm3.6-2.33-.78-1.2,16-10.36.78,1.2Zm17.17-11.14-.78-1.2,1.6-1,.77,1.19Zm3.59-2.33-.78-1.2,16-10.36.78,1.2Zm17.17-11.14-.78-1.2,1.6-1,.77,1.19Zm3.59-2.33-.78-1.2,16-10.36.78,1.2Zm17.17-11.14-.78-1.2,1.6-1,.78,1.19Zm3.59-2.33-.77-1.2,16-10.36.77,1.2Z"/><rect class="cls-69" x="52.7" y="218.17" width="142.97" height="1.43" transform="matrix(0.79, -0.61, 0.61, 0.79, -107.98, 121.76)"/><path class="cls-70" d="M67.28,280.07l-1-1.05,1.7-1.56,1,1.06ZM70,277.55l-1-1.05,1.4-1.29,1,1.06Zm3.16-2.89-1-1.05,7-6.43,1,1.05Zm8.08-7.39-1-1.06,1.41-1.28,1,1.05Zm3.16-2.9-1-1.05,7-6.43,1,1.06ZM92.5,257l-1-1.05,1.4-1.29,1,1.06Zm3.16-2.89-1-1.05,7-6.43,1,1Zm8.07-7.39-1-1,1.41-1.29,1,1Zm3.16-2.89-1-1.06,7-6.42,1,1Zm8.08-7.4-1-1,1.41-1.28,1,1Zm3.16-2.89-1-1.05,7-6.43,1,1.05Zm8.07-7.39-1-1,1.4-1.29,1,1.05Zm3.16-2.89-1-1.06,7-6.42,1,1.05Zm8.08-7.39-1-1.06,1.41-1.28,1,1.05Zm3.15-2.9-1-1,7-6.43,1,1.06Zm8.08-7.39-1-1.05,1.4-1.29,1,1.06Zm3.16-2.89-1-1,7-6.43,1,1.05Zm8.07-7.39-1-1.06,1.4-1.28,1,1.05Zm3.16-2.89-1-1.06,7-6.43,1,1.06Zm8.08-7.4-1-1.05,1.41-1.28,1,1.05Zm3.16-2.89-1-1,7-6.43,1,1Z"/><rect class="cls-71" x="60.69" y="226.9" width="142.97" height="1.43" transform="translate(-124.66 170.03) rotate(-47.22)"/><path class="cls-72" d="M86.15,297.37,85,296.49l9-11.56,1.12.88Zm9-11.56-1.12-.88,1.17-1.5,1.13.88Zm2.64-3.38-1.12-.88,11.73-15,1.12.88Zm11.73-15-1.12-.88,1.17-1.5,1.12.88Zm2.64-3.38-1.12-.88L124,246.69l1.12.88Zm14.37-18.37-1.13-.88,11.73-15,.69.53-.69-.53,1.17-1.5,1.13.88Zm14.36-18.37-1.12-.88,11.73-15,1.12.88Zm11.73-15-1.12-.88,1.17-1.5,1.13.88ZM155.3,209l-1.12-.88,11.73-15L167,194ZM167,194l-1.12-.88,1.17-1.5,1.12.88Zm2.64-3.38-1.13-.88,11.73-15,1.13.88Z"/><rect class="cls-73" x="83.52" y="226.9" width="125.53" height="1.43" transform="matrix(0.55, -0.84, 0.84, 0.55, -124.27, 224.99)"/><path class="cls-74" d="M107.62,311.32l-1.26-.68,1.1-2,1.26.68ZM109.4,308l-1.26-.68.91-1.67,1.26.68Zm2-3.76-1.25-.69,4.55-8.36,1.25.68Zm5.23-9.62-1.25-.68.91-1.68,1.25.69Zm2-3.76-1.25-.69,4.54-8.36,1.26.68Zm5.23-9.62-1.26-.68.91-1.68,1.26.69Zm2-3.76-1.25-.69,4.55-8.36,1.25.68Zm5.23-9.62-1.25-.68.91-1.68,1.25.69Zm2.05-3.77-1.26-.68,4.55-8.36,1.26.68Zm5.23-9.61-1.26-.68.91-1.68,1.26.69Zm2-3.77-1.25-.68,4.55-8.36,1.25.68Zm5.23-9.61-1.25-.69.91-1.67,1.25.68Zm2-3.77-1.26-.68,4.55-8.36,1.25.68Zm5.23-9.61-1.26-.69.91-1.67,1.26.68Zm2-3.77-1.25-.68,4.54-8.36,1.26.68Zm5.23-9.61-1.25-.69L160,212l1.25.68Zm2.05-3.77-1.26-.68,4.55-8.36,1.25.68ZM167.6,201l-1.26-.68.91-1.67,1.25.68Zm2-3.76-1.25-.68,4.54-8.36,1.26.68Zm5.23-9.62-1.25-.68.9-1.67,1.26.68Zm2-3.76-1.26-.68,4.55-8.36,1.25.68Z"/><rect class="cls-75" x="80.42" y="239.85" width="142.97" height="1.43" transform="translate(-129.48 282.65) rotate(-66.24)"/><path class="cls-76" d="M131.09,321.53l-1.35-.46,5.41-15.68,1.35.47-.62,1.8-.68-.24.68.24Zm6.18-17.92-1.35-.47,6.21-18,.62.21-.62-.21.62-1.8,1.35.46Zm7.61-22.05-1.35-.46,6.21-18,.49.17-.49-.17.62-1.8,1.35.47Zm7.6-22-1.35-.47,6.21-18,.68.24-.68-.24.62-1.8,1.35.47Zm7.61-22-1.35-.47L165,219l.56.19L165,219l.62-1.8,1.35.46Zm7.61-22.05-1.35-.46,6.83-19.8,1.34.47-.62,1.8-.67-.24.67.24Zm7.6-22-1.35-.47,6.21-18,1.35.47Z"/><rect class="cls-77" x="98.34" y="239.85" width="134.33" height="1.43" transform="translate(-106.3 347.26) rotate(-76.9)"/><path class="cls-78" d="M155.93,327.73l-1.41-.23L157,313l.72.12L157,313l.32-1.88,1.4.24Zm3.14-18.7-1.41-.23,3.47-20.65,1.41.23-.32,1.88-.7-.12.7.12Zm3.86-23-1.41-.24L165,265.15l1.41.23-.31,1.88-.71-.12.71.12Zm3.87-23-1.41-.24L168.54,244l.72.12-.72-.12.32-1.88,1.4.24Zm3.86-23-1.41-.24L172.4,221l.72.12-.72-.12.32-1.88,1.41.24Zm3.86-23-1.41-.24,3.47-20.65,1.41.24-.31,1.87-.63-.1.63.1Zm3.87-23L177,193.8,180.13,175l1.41.24Z"/><g class="cls-79"><path class="cls-80" d="M182,351.67A175.88,175.88,0,0,1,113.51,13.82,175.83,175.83,0,0,1,306.29,300.17,175.31,175.31,0,0,1,182,351.67ZM182,1.43a174.45,174.45,0,0,0-67.89,335.11A174.46,174.46,0,0,0,249.85,15.13,173.45,173.45,0,0,0,182,1.43Z"/></g><circle class="cls-81" cx="357.08" cy="175.33" r="6.58"/><path class="cls-82" d="M0,175.3a6.84,6.84,0,1,1,6.84,6.84A6.83,6.83,0,0,1,0,175.3Z"/></svg>