<svg id="Layer_1" data-name="Layer 1" xmlns="http://www.w3.org/2000/svg" xmlns:xlink="http://www.w3.org/1999/xlink" viewBox="0 0 321.46 275.43"><defs><style>.cls-1{fill:url(#무제_그라디언트_22);}</style><linearGradient id="무제_그라디언트_22" x1="248.4" y1="264.74" x2="23.56" y2="39.9" gradientUnits="userSpaceOnUse"><stop offset="0" stop-color="#f9c10e"/><stop offset="0.25" stop-color="#f9f295"/><stop offset="0.62" stop-color="#deae47"/><stop offset="1" stop-color="#edc967"/></linearGradient></defs><path class="cls-1" d="M254.51,204.93c7.1-2.34,14.48-4.65,21.79-7.2,9.3-3.25,18.55-6.57,28.67-5.6,6.51.63,11.79,3.08,14.76,9.31,3.41,7.18,1.77,14.42-4.77,18.94a40.13,40.13,0,0,1-9.77,5.16c-18.49,6.21-36.91,12.86-56.39,15.33-10.75,1.36-21.62,1.78-32.41,2.88-18.29,1.87-35.59,7.85-53,13.35-23.88,7.54-47.88,14.53-73,16.74-21.78,1.91-43.66,3.24-65-3a77.1,77.1,0,0,1-19-8.7c-7.83-4.89-8.51-12.81-2-19.44a40.35,40.35,0,0,1,33.27-12.52c9.14.72,18.19,2.54,27.3,3.61a69.88,69.88,0,0,0,12.6.46c7.88-.51,12-4.78,11.8-12.62a111.69,111.69,0,0,0-2-17.08c-1.63-8.92-.62-16.94,5.83-23.88,4.77-5.14,7-11.37,7.45-18.43a37.28,37.28,0,0,1,2.64-11.87c3-7,2.75-13.85.84-21-1.36-5-2.55-10.14-3.58-15.26-1.23-6.12.37-11.71,5.26-15.51,8.46-6.58,11.87-15.63,14-25.55A71.2,71.2,0,0,1,123,62.48a17,17,0,0,1,11.82-10.56,5.72,5.72,0,0,0,3.57-3.19c1.94-7,3.47-14.09,5.14-21.15.14-.62.22-1.26.32-1.89,1.66-10.23,6.8-17.51,17.29-20.06,8.29-2,16.56-4.22,25-5.48,3.35-.5,8,.21,10.39,2.3C204,9,213.05,11.27,222.16,13.78c6.63,1.82,13.42,3.43,19.64,6.23,4,1.79,7.21,5.39,10.43,8.53,2,1.92,1.21,4.19-1.32,5.15-3.78,1.42-7.64,3.23-11.58,3.55-9.14.77-18.35.74-27.53,1-5.75.19-6,.57-4.78,6,1.82,7.94,1.31,9.11-5.81,13.24-.77.45-1.54.91-2.28,1.4-4.33,2.87-4.21,3.19-2.16,7.84,3.35,7.57,6.11,15.42,9.64,22.91a128.73,128.73,0,0,0,9.11,15.81c2.3,3.49,3.81,6.87,2.69,11.07-3.43,12.86,1.13,24.2,7,35.15,7.2,13.49,13.25,27.6,22.75,39.83C250.67,195.08,252,199.7,254.51,204.93Zm-41.45-82.86c-5.36.46-9.28,3.43-13.38,6.28a84.61,84.61,0,0,1-12.09,7.09c-3.68,1.76-7.21.87-9.89-2.46-4.24-5.26-8.31-10.68-12.82-15.69s-9.17-10.33-14.56-14.44c-6.06-4.62-15.3-4.56-20.53-1.14.28.42.46,1,.84,1.21,1.38.91,2.8,1.76,4.23,2.58,3.67,2.12,3.84,3.32,1.09,6.4-1.39,1.55-2.57,3.28-4.2,5.4,7.36,2.59,11.63,7.68,14.7,13.64a14.68,14.68,0,0,0,11.35,8.36c3.11.55,6,2.19,9.19,3.4-3.84,7.68-12,9.11-16.24,15.22a47.51,47.51,0,0,0,11.36-4.81c4.36-2.61,8.27-6,12.72-8.45,5.48-3,11.22-3.21,16.6.67,2.17,1.57,4.19,3.36,6.45,4.78a47.39,47.39,0,0,0,5.63,2.63,5.1,5.1,0,0,0-1.51-3.48c-2.69-2.6-2.57-4.57.5-7.07a54.9,54.9,0,0,0,9-9.31C213.81,129.81,215,126.11,213.06,122.07ZM97.6,198.55l-.95.84c1.17,2.14,2.2,4.37,3.55,6.38s3,2,5.27.9c25.59-12.82,52.76-20.28,81.15-23.35,16.83-1.82,33.39-1.18,49,6.55.13.06.4-.17,1.48-.64l-7.79-10.62-.9.65-.16,2.77-.94.92c-2.32-1.71-4.93-3.15-6.89-5.21s-3.12-5-5-7.17a8.26,8.26,0,0,0-4.67-2.79c-20.94-2.43-41,.64-59.6,10.85-9.72,5.33-19,11.46-28.69,16.84C114.69,199.75,106.55,202.7,97.6,198.55Zm129.06,37.24.4,1.33c6.31-.55,12.8-.37,18.9-1.8,18.74-4.41,37.36-9.3,55.94-14.33a28.41,28.41,0,0,0,9.64-5.26c4.47-3.51,4.43-5.95-.5-8.51A27.68,27.68,0,0,0,298.77,204a36.48,36.48,0,0,0-14.48,3c-17.07,7.73-33.9,16-50.76,24.18C231.07,232.32,228.94,234.22,226.66,235.79ZM195.06,49.27c-8.3-7.57-14.14-16.54-16.18-27.85-1.62,6.39,1.45,13.23-2.75,19.51-8.71-6-8.08-17.6-15.43-24a10.83,10.83,0,0,0,.56,4.57c1.55,3.9,4.13,7.6,4.75,11.62a22.24,22.24,0,0,0,6.21,13c1.65,1.66,2.5,4.12,3.84,6.44.54-.79.79-1.09,1-1.42,3.5-6.7,5.18-6.8,9.57-.67,1.34,1.88,2.9,3.6,4.36,5.39l.58-.45-2.72-7.61.76-.88Z" transform="translate(0 0)"/></svg>