<svg id="Layer_1" data-name="Layer 1" xmlns="http://www.w3.org/2000/svg" viewBox="0 0 321.5 275.4"><path d="M254.5,204.9c7.1-2.3,14.5-4.6,21.8-7.2,9.3-3.2,18.5-6.5,28.7-5.6,6.5.7,11.8,3.1,14.7,9.3s1.8,14.5-4.7,19a39.9,39.9,0,0,1-9.8,5.1c-18.5,6.2-36.9,12.9-56.4,15.4-10.8,1.3-21.6,1.7-32.4,2.9-18.3,1.8-35.6,7.8-53,13.3-23.9,7.5-47.9,14.5-72.9,16.7-21.8,1.9-43.7,3.3-65.1-2.9a83.7,83.7,0,0,1-19-8.7c-7.8-4.9-8.5-12.9-2-19.5a40.3,40.3,0,0,1,33.2-12.5c9.2.7,18.2,2.5,27.4,3.6a74.7,74.7,0,0,0,12.5.5c7.9-.5,12-4.8,11.9-12.7a121.3,121.3,0,0,0-2-17c-1.6-9-.6-17,5.8-23.9,4.8-5.2,7-11.4,7.5-18.4a36.7,36.7,0,0,1,2.6-11.9c3-7,2.8-13.9.8-21-1.3-5-2.5-10.1-3.5-15.2s.3-11.8,5.2-15.6c8.5-6.5,11.9-15.6,14.1-25.5A75.9,75.9,0,0,1,123,62.5a17.4,17.4,0,0,1,11.9-10.6c1.4-.4,3.2-1.8,3.5-3.2,2-7,3.5-14.1,5.2-21.1l.3-1.9c1.6-10.2,6.8-17.5,17.3-20.1,8.3-2,16.5-4.2,25-5.4,3.3-.5,8,.2,10.3,2.2,7.5,6.6,16.6,8.9,25.7,11.4,6.6,1.8,13.4,3.4,19.6,6.2,4,1.8,7.2,5.4,10.4,8.5s1.2,4.2-1.3,5.2-7.6,3.2-11.6,3.5c-9.1.8-18.3.8-27.5,1.1-5.8.2-6,.6-4.8,6,1.8,8,1.3,9.1-5.8,13.3l-2.3,1.3c-4.3,2.9-4.2,3.2-2.1,7.9,3.3,7.6,6.1,15.4,9.6,22.9a137.6,137.6,0,0,0,9.1,15.8c2.3,3.5,3.8,6.9,2.7,11.1-3.4,12.8,1.1,24.2,7,35.1,7.2,13.5,13.2,27.6,22.7,39.9C250.7,195.1,252,199.7,254.5,204.9Zm-41.4-82.8c-5.4.4-9.3,3.4-13.4,6.3a90.6,90.6,0,0,1-12.1,7c-3.7,1.8-7.2.9-9.9-2.4-4.2-5.3-8.3-10.7-12.8-15.7s-9.2-10.3-14.6-14.5-15.3-4.5-20.5-1.1c.3.4.5,1,.8,1.2s2.8,1.8,4.3,2.6c3.6,2.1,3.8,3.3,1,6.4l-4.2,5.4c7.4,2.6,11.7,7.7,14.7,13.6a15,15,0,0,0,11.4,8.4c3.1.6,6,2.2,9.2,3.4-3.8,7.7-12,9.1-16.2,15.2a45.2,45.2,0,0,0,11.3-4.8c4.4-2.6,8.3-6,12.7-8.4s11.3-3.2,16.6.6c2.2,1.6,4.2,3.4,6.5,4.8a35.7,35.7,0,0,0,5.6,2.6,4.5,4.5,0,0,0-1.5-3.4c-2.7-2.6-2.6-4.6.5-7.1a56.6,56.6,0,0,0,9-9.3C213.8,129.8,215,126.1,213.1,122.1ZM97.6,198.5l-.9.9c1.1,2.1,2.2,4.4,3.5,6.4s3,2,5.3.9c25.6-12.9,52.7-20.3,81.1-23.4,16.8-1.8,33.4-1.2,49,6.6l1.5-.7c-2.7-3.6-5.3-7.1-7.8-10.6l-.9.7-.2,2.7-.9.9c-2.3-1.7-4.9-3.1-6.9-5.2s-3.1-4.9-5-7.1a8.5,8.5,0,0,0-4.7-2.8c-20.9-2.5-41,.6-59.6,10.8-9.7,5.4-19,11.5-28.7,16.9C114.7,199.7,106.6,202.7,97.6,198.5Zm129.1,37.3a6.5,6.5,0,0,0,.4,1.3c6.3-.5,12.8-.3,18.9-1.8,18.7-4.4,37.3-9.3,55.9-14.3a25.9,25.9,0,0,0,9.6-5.3c4.5-3.5,4.5-5.9-.5-8.5a27.8,27.8,0,0,0-12.2-3.3,37.6,37.6,0,0,0-14.5,3c-17.1,7.8-33.9,16-50.8,24.2A51.5,51.5,0,0,0,226.7,235.8ZM195.1,49.3c-8.3-7.6-14.2-16.6-16.2-27.9-1.6,6.4,1.4,13.2-2.8,19.5-8.7-6-8.1-17.6-15.4-24a10.1,10.1,0,0,0,.6,4.6c1.5,3.9,4.1,7.6,4.7,11.6a22.4,22.4,0,0,0,6.2,13c1.7,1.7,2.5,4.1,3.9,6.4a5.1,5.1,0,0,0,.9-1.4c3.5-6.7,5.2-6.8,9.6-.6,1.3,1.8,2.9,3.6,4.4,5.3l.5-.4-2.7-7.6.8-.9Z"/></svg>