<?xml version="1.0" encoding="utf-8"?>
<!-- Generator: Adobe Illustrator 25.3.1, SVG Export Plug-In . SVG Version: 6.00 Build 0)  -->
<svg version="1.1" id="svg" xmlns="http://www.w3.org/2000/svg" xmlns:xlink="http://www.w3.org/1999/xlink" x="0px" y="0px"
	 viewBox="0 0 500 352.1" style="enable-background:new 0 0 500 352.1;" xml:space="preserve">
<style type="text/css">
	.st0{fill-rule:evenodd;clip-rule:evenodd;fill:url(#path0_1_);}
</style>
<g id="svgg">
	
		<linearGradient id="path0_1_" gradientUnits="userSpaceOnUse" x1="66.2337" y1="269.9641" x2="344.7287" y2="-8.5309" gradientTransform="matrix(-1 0 0 1 499.6811 0)">
		<stop  offset="6.111934e-02" style="stop-color:#F9BD19"/>
		<stop  offset="0.25" style="stop-color:#F9F195"/>
		<stop  offset="0.62" style="stop-color:#DEAE47"/>
		<stop  offset="1" style="stop-color:#E4BD58"/>
	</linearGradient>
	<path id="path0" class="st0" d="M494,0.4c0.2,0.3,0.9,3.3,1.6,6.6c6.5,31.3,5.5,66.9-2.7,93.7c-17.6,58.2-70.5,97.2-125,92.4
		c-4.2-0.4-8.1-0.8-8.7-1c-0.9-0.3-0.9-0.1,0.1,2.3c2.3,5.5,2.7,9.9,1.1,16c-0.6,2.5-0.6,2.5,2.2,5.6c21,23.2,25.9,60.5,11.7,89.6
		c-24.4,50.1-90.5,62.3-130.9,24c-20.7-19.6-30.3-50.3-24-77.1l0.8-3.4l-2.8-3.1c-3.1-3.4-5.2-8.1-5.7-12.9l-0.3-3l-2.9,2.3
		c-32.3,25.6-81.3,29.1-123.4,8.8c-37.3-18-67.8-56.1-83.3-104.4c-3-9.2-2.9-9.3,3.3-3.3c30.1,29,71.6,45.8,119.9,48.3
		c37.8,2,67.7,12.5,86.9,30.7l4.5,4.3l2.7-2.5c5.6-5.3,14.5-7.4,21.8-5.3c2.9,0.9,3,0.9,4.3-0.6c15-16,48.1-25,71.9-19.5l3,0.7
		l2.8-2.4c6.3-5.6,14.5-7.4,23.2-5.1c1.4,0.4,1.5,0.2,3.1-4.9c4.8-15.3,16.2-32.5,30.7-46.4c10.1-9.7,14-12.5,38.1-28.3
		c34.7-22.7,63.3-60.1,73.9-97C493.3,0.1,493.5-0.4,494,0.4 M483.8,51.1c0,0.5,3.9,4.1,4.4,4.1c0.2,0,0.3-2.8,0.3-6.3v-6.3l-2.3,4
		C484.9,48.8,483.8,50.8,483.8,51.1 M476.1,62.1l-2.7,4l6.2,5.3c3.4,2.9,6.4,5.3,6.6,5.4c0.2,0.1,0.6-1.6,0.8-3.8
		c0.2-2.2,0.5-4.8,0.7-5.8c0.3-1.7,0-2.1-4-5.4C478.6,57.4,479.4,57.3,476.1,62.1 M465.4,75.9l-3.3,3.8l9.7,8.3
		c5.3,4.5,9.9,8.3,10.2,8.3c0.4,0,2.7-8.7,2.7-10c0-0.3-15.4-13.7-15.9-14C468.8,72.2,467.2,73.9,465.4,75.9 M453.1,89.1l-3.4,3.4
		l12.5,10.6c6.9,5.8,12.7,10.7,13.1,10.8c0.3,0.1,1.4-1.9,2.4-4.5l1.9-4.7l-1.9-1.5c-1-0.8-6.1-5.1-11.2-9.5
		C455.5,84.3,457.3,84.9,453.1,89.1 M451.2,117.1l15.3,13.1l1.2-1.4c0.6-0.8,1.9-2.7,2.8-4.3l1.6-2.9l-14.2-12l-14.2-12l-3.9,3.2
		l-3.9,3.2L451.2,117.1 M423.8,112.3c-1.5,1-2.7,2-2.6,2.2c0.5,1.5,34.8,29.7,35.4,29.2c0.4-0.3,1.9-2.1,3.2-3.8l2.5-3.2l-1.7-1.4
		c-0.9-0.8-8.3-7-16.4-14C427.6,107.1,430.2,108.2,423.8,112.3 M405.3,124.7c8.9,7.7,37.8,32,38,32c0.2,0,1.9-1.5,3.7-3.4l3.4-3.4
		l-18.4-15.6l-18.4-15.6l-4.3,2.9C407,123.2,405.2,124.6,405.3,124.7 M394.6,132.7l-3.6,3l1.4,1.2c0.8,0.7,9,7.7,18.3,15.6
		s17.2,14.5,17.5,14.6c0.9,0.3,8.9-5.2,8.3-5.8c-2.9-2.7-37.4-31.7-37.8-31.7C398.5,129.7,396.6,131.1,394.6,132.7 M381.8,145
		c-2.6,3-3,3.7-2.3,4.3c0.4,0.4,7.1,6.1,14.9,12.7c7.7,6.5,14.6,12.4,15.3,13c1.5,1.4,12.1-2.6,10.7-4c-2.1-2-34.7-29.6-35-29.6
		C385.1,141.4,383.5,143,381.8,145 M371.3,158.3c-1.2,1.9-2.4,3.7-2.7,4.1c-0.3,0.4,3.6,4.1,10.2,9.7c12,10.1,10.8,9.7,19.2,7.6l4-1
		l-13.8-11.8C372.1,153.1,374.1,154.1,371.3,158.3 M28.2,169.1c1.5,2.7,2.8,4.9,2.9,5c0.1,0.1,0.7-1.1,1.3-2.7l1.2-2.9l-3.9-2.3
		C24.8,163.3,24.8,163.3,28.2,169.1 M361.8,175.7c-1,2.5-1.8,4.7-1.7,4.8c0.5,0.5,10.6,1.5,14.1,1.3l3.9-0.2l-6.8-5.7
		c-3.7-3.2-7-5.5-7.2-5.3S362.9,173.1,361.8,175.7 M36.7,182.7c0,0.5,6.6,9.9,6.8,9.6c0.2-0.2,6.1-15.9,5.9-16c-0.1,0-2.1-1-4.5-2.1
		l-4.4-2.1l-1.9,5.1C37.5,179.9,36.7,182.4,36.7,182.7 M55.5,182.7c-0.6,1.7-2.2,6-3.6,9.5c-3,7.9-3.1,7.1,1.2,11.8l3.6,3.9
		l4.6-12.5c2.5-6.9,4.5-12.5,4.5-12.6c-0.2-0.2-8.3-3.1-8.8-3.2C56.9,179.6,56.2,181,55.5,182.7 M68.4,198.8c-2.7,7.3-5,13.6-5.2,14
		c-0.3,0.9,7.4,7,8,6.3c0.7-0.7,11.8-30.9,11.5-31.2c-0.3-0.3-7.9-2.3-8.8-2.4C73.6,185.5,71.1,191.5,68.4,198.8 M84.4,206.7
		c-3.5,9.4-6.5,17.3-6.5,17.5c-0.2,0.4,8,5.1,8.5,4.9c0.5-0.2,14.3-37.3,13.9-37.6c-0.2-0.2-6.6-1.5-8.9-1.8
		C91.1,189.6,87.9,197.3,84.4,206.7 M101.1,212.7l-7.4,20l1.9,0.8c1,0.4,3.1,1.3,4.6,1.9l2.8,1.1l1.3-3.4
		c8.6-23.1,14.7-39.4,14.7-39.6c0-0.4-3.7-0.8-7.3-0.8l-2.9,0.1L101.1,212.7 M127,193.9c0,0.1-3.7,10.2-8.2,22.4s-8.2,22.2-8.1,22.3
		c0.3,0.3,7.4,2,8.5,2c0.9,0,2.6-3.9,9.7-23l8.6-23l-1.6-0.4C134.2,193.8,127,193.5,127,193.9 M136.8,218.7
		c-4.8,12.8-8.6,23.4-8.5,23.5c0.1,0.1,2.4,0.4,5.2,0.6l5,0.4l8.4-22.7c4.6-12.5,8.3-22.9,8.1-23c-0.4-0.4-6.6-1.8-8.3-1.8
		C145.6,195.4,144.4,198.3,136.8,218.7 M154.6,221.7c-4.3,11.4-7.6,20.9-7.4,21.1c0.3,0.3,10.2-0.7,10.5-1.1
		c0.5-0.6,14.6-39.3,14.4-39.5c-1.4-1.2-9.1-3-9.4-2.2C162.5,200.6,158.9,210.3,154.6,221.7 M173.2,222.5
		c-3.5,9.4-6.2,17.2-6.1,17.3c0.1,0.1,2.8-0.7,5.9-1.7l5.7-1.9l4.9-13.2c2.7-7.2,4.8-13.3,4.7-13.4c-0.5-0.5-7.8-4.2-8.3-4.2
		C179.8,205.4,176.7,213.1,173.2,222.5 M192.2,222.5c-3.6,9.8-3.7,9.3,1.5,6.2c6.1-3.8,11-7.5,10.4-8c-1.8-1.6-8.1-6.5-8.5-6.5
		C195.4,214.2,193.9,217.9,192.2,222.5"/>
</g>
</svg>
