<?xml version="1.0" encoding="utf-8"?>
<!-- Generator: Adobe Illustrator 25.3.1, SVG Export Plug-In . SVG Version: 6.00 Build 0)  -->
<svg version="1.1" id="svg" xmlns="http://www.w3.org/2000/svg" xmlns:xlink="http://www.w3.org/1999/xlink" x="0px" y="0px"
	 viewBox="0 0 500 665.4" style="enable-background:new 0 0 500 665.4;" xml:space="preserve">
<style type="text/css">
	.st0{fill-rule:evenodd;clip-rule:evenodd;fill:url(#path0_1_);}
</style>
<g id="svgg">
	<linearGradient id="path0_1_" gradientUnits="userSpaceOnUse" x1="99.1624" y1="620.8138" x2="274.5097" y2="-33.591">
		<stop  offset="0" style="stop-color:#D4FCFF;stop-opacity:0.4"/>
		<stop  offset="1" style="stop-color:#FFFFFF;stop-opacity:0.4"/>
	</linearGradient>
	<path id="path0" class="st0" d="M370.2,1.3C366,4.4,369,15.6,376.8,26c18.2,24.2,28.1,49.2,28.2,71.1l0,9.2l-4-0.5
		c-23.7-2.7-43.2-9.7-57.3-20.7c-19.7-15.4-34.4-14.9-30.8,1.1c3.4,15.3,17,26.2,43.7,35.3c57.9,19.7,61,31.7,17.1,66.3
		c-8.1,6.4-63.3,46-64,46c-0.9,0-7.8-10.7-10.9-16.9c-6.8-13.5-10.4-28.1-12.8-52.2c-1.9-18.3-4.4-22.2-14-20.9
		c-19.6,2.6-20.3,43.7-1.4,76.7c14,24.4,15.6,31.3,10,41.9c-3.3,6.2-16.1,19.8-18.7,19.9c-0.9,0-3.6,0.9-5.9,1.9
		c-6,2.7-31.5,4.3-42.5,2.6c-8.8-1.3-10.2-2.7-13.7-14l-1.6-5.3l4.8-9.5c2.6-5.2,8.6-16.2,13.2-24.3c11.5-20.2,11.8-22.2,7.9-56.1
		c-2.4-21.1-7.5-29.4-18.3-29.4c-9.1,0-12,11.9-7.2,30.1c5.3,20.3,1.1,36.5-15.5,59.6c-5.1,7.1-5.5,7.4-6.8,5.7
		c-0.8-1-12.1-14.7-25.2-30.5c-28.5-34.4-26.5-30.7-26.5-50.5c0-23,2.8-41,14.7-94.1c8.5-38.1,9.2-45.7,4.2-47
		c-15.7-4-33.9,47-45.7,128.2c-0.9,6.3-1.8,11.6-1.9,11.8c-0.7,0.8-10.1-7.1-17.6-14.8c-13.2-13.6-13.8-15.6-9.1-34.2
		C79.1,71,75.8,22.1,62,14c-7.9-4.7-9.3-0.1-11.1,37.9c-2.1,44.1-4.8,61.2-8.7,55.6C32.6,93.8,26,70.2,24.7,44.7
		c-0.9-17.7-1.9-21.8-6.4-26.3C1.8,1.8-6.8,57.8,6.3,96.9c9.4,28.1,26.3,50.9,57.9,78.3c53.1,45.9,89.8,85.4,102.3,110.2l3.7,7.3
		l-7.8-4.1c-7.3-3.8-14.5-6.6-27.3-10.5c-2.9-0.9-9.7-4.2-15.1-7.3c-31.3-18.2-38.4-15.8-30.1,10.2c9.5,29.4,31.5,60.8,56.3,80.3
		c2.7,2.1,3.2,3.2,4.5,11c0.8,4.8,3.2,14,5.3,20.4c8.3,25,8.8,30.3,4,40.4c-3.4,7.1-3.5,8-3.9,19c-0.8,24,5.6,32.1,26.6,33.4
		c7.4,0.5,8.3,0.7,8.8,2.5c0.7,2.6,4,31.7,5.3,46.7c3.1,36.1,11,52.9,51.7,110.3c15.4,21.7,19.7,24.6,27.4,18.6
		c3.1-2.4,0.8,3.6,34.9-91.8c30.9-86.3,32.3-90.9,32.3-105.7c0-12.9-8.1-44.4-19.4-75.9c-9.1-25.3-6.7-29.5,18.2-31.8
		c19.2-1.8,24.4-4.9,38.5-23.1c11.8-15.3,15-24.5,19.4-55.7c4.2-29.7,1.3-36-11.5-24.8c-6.1,5.3-16.9,11-29.4,15.3
		c-13,4.5-19.2,8.5-31,19.6c-11.3,10.7-16.9,14.1-24.9,15.2c-5.6,0.8-5.6,0.4,0.4-8.2c17.3-25.1,58-63.3,114.9-107.7
		c51.8-40.5,63.3-53.5,73.7-83.4c6.8-19.4,10.4-47.9,7.1-54.5c-7.1-13.8-16.4-5.3-21.9,20.1c-4.9,22.6-17.5,41.9-33,50.3l-3.9,2.2
		l1-2.6c9.2-24.1,14.8-75.4,10.1-92.5C444.4,3.3,430,5.2,432.6,31c0.9,9.3,0.9,14.1,0,23.4c-1.3,13.2-4.6,30.1-4.8,24.4
		C426.9,43.9,386.4-10.5,370.2,1.3"/>
</g>
</svg>
