<?xml version="1.0" encoding="utf-8"?>
<!-- Generator: Adobe Illustrator 25.0.1, SVG Export Plug-In . SVG Version: 6.00 Build 0)  -->
<svg version="1.1" id="svg" xmlns="http://www.w3.org/2000/svg" xmlns:xlink="http://www.w3.org/1999/xlink" x="0px" y="0px"
	 viewBox="0 0 500 352.1" style="enable-background:new 0 0 500 352.1;" xml:space="preserve">
<style type="text/css">
	.st0{fill-rule:evenodd;clip-rule:evenodd;fill:url(#path0_1_);}
</style>
<g id="svgg">
	
		<linearGradient id="path0_1_" gradientUnits="userSpaceOnUse" x1="-455.7974" y1="84.0669" x2="-177.3347" y2="362.5297" gradientTransform="matrix(1 0 0 -1 522.0484 354)">
		<stop  offset="6.111934e-02" style="stop-color:#F9BD19"/>
		<stop  offset="0.25" style="stop-color:#F9F195"/>
		<stop  offset="0.62" style="stop-color:#DEAE47"/>
		<stop  offset="1" style="stop-color:#E4BD58"/>
	</linearGradient>
	<path id="path0" class="st0" d="M5.7,0.4c0.5-0.8,0.7-0.3,2.1,5.1c10.6,36.9,39.2,74.3,73.9,97c24.1,15.8,28,18.6,38.1,28.3
		c14.5,13.9,25.9,31.1,30.7,46.4c1.6,5.1,1.7,5.3,3.1,4.9c8.7-2.3,16.9-0.5,23.2,5.1l2.8,2.4l3-0.7c23.8-5.5,56.9,3.5,71.9,19.5
		c1.3,1.5,1.4,1.5,4.3,0.6c7.3-2.1,16.2,0,21.8,5.3l2.7,2.5l4.5-4.3c19.2-18.2,49.1-28.7,86.9-30.7c48.3-2.5,89.8-19.3,119.9-48.3
		c6.2-6,6.3-5.9,3.3,3.3c-15.5,48.3-46,86.4-83.3,104.4c-42.1,20.3-91.1,16.8-123.4-8.8l-2.9-2.3l-0.3,3c-0.5,4.8-2.6,9.5-5.7,12.9
		l-2.8,3.1l0.8,3.4c6.3,26.8-3.3,57.5-24,77.1c-40.4,38.3-106.5,26.1-130.9-24c-14.2-29.1-9.3-66.4,11.7-89.6
		c2.8-3.1,2.8-3.1,2.2-5.6c-1.6-6.1-1.2-10.5,1.1-16c1-2.4,1-2.6,0.1-2.3c-0.6,0.2-4.5,0.6-8.7,1c-54.5,4.8-107.4-34.2-125-92.4
		C-1.4,73.9-2.4,38.3,4.1,7C4.8,3.7,5.5,0.7,5.7,0.4 M15.9,51.1c0-0.3-1.1-2.3-2.4-4.5l-2.3-4v6.3c0,3.5,0.1,6.3,0.3,6.3
		C12,55.2,15.9,51.6,15.9,51.1 M23.6,62.1c-3.3-4.8-2.5-4.7-7.6-0.3c-4,3.3-4.3,3.7-4,5.4c0.2,1,0.5,3.6,0.7,5.8
		c0.2,2.2,0.6,3.9,0.8,3.8s3.2-2.5,6.6-5.4l6.2-5.3L23.6,62.1 M34.3,75.9c-1.8-2-3.4-3.7-3.4-3.6C30.4,72.6,15,86,15,86.3
		c0,1.3,2.3,10,2.7,10c0.3,0,4.9-3.8,10.2-8.3l9.7-8.3L34.3,75.9 M46.6,89.1c-4.2-4.2-2.4-4.8-13.4,4.6c-5.1,4.4-10.2,8.7-11.2,9.5
		l-1.9,1.5l1.9,4.7c1,2.6,2.1,4.6,2.4,4.5c0.4-0.1,6.2-5,13.1-10.8L50,92.5L46.6,89.1 M48.5,117.1L63.8,104l-3.9-3.2L56,97.6
		l-14.2,12l-14.2,12l1.6,2.9c0.9,1.6,2.2,3.5,2.8,4.3l1.2,1.4L48.5,117.1 M75.9,112.3c-6.4-4.1-3.8-5.2-20.4,9
		c-8.1,7-15.5,13.2-16.4,14l-1.7,1.4l2.5,3.2c1.3,1.7,2.8,3.5,3.2,3.8c0.6,0.5,34.9-27.7,35.4-29.2
		C78.6,114.3,77.4,113.3,75.9,112.3 M94.4,124.7c0.1-0.1-1.7-1.5-4-3.1l-4.3-2.9l-18.4,15.6l-18.4,15.6l3.4,3.4
		c1.8,1.9,3.5,3.4,3.7,3.4S85.5,132.4,94.4,124.7 M105.1,132.7c-2-1.6-3.9-3-4.1-3.1c-0.4,0-34.9,29-37.8,31.7
		c-0.6,0.6,7.4,6.1,8.3,5.8c0.3-0.1,8.2-6.7,17.5-14.6s17.5-14.9,18.3-15.6l1.4-1.2L105.1,132.7 M117.9,145c-1.7-2-3.3-3.6-3.6-3.6
		S81.4,169,79.3,171c-1.4,1.4,9.2,5.4,10.7,4c0.7-0.6,7.6-6.5,15.3-13c7.8-6.6,14.5-12.3,14.9-12.7C120.9,148.7,120.5,148,117.9,145
		 M128.4,158.3c-2.8-4.2-0.8-5.2-16.9,8.6l-13.8,11.8l4,1c8.4,2.1,7.2,2.5,19.2-7.6c6.6-5.6,10.5-9.3,10.2-9.7
		C130.8,162,129.6,160.2,128.4,158.3 M471.5,169.1c3.4-5.8,3.4-5.8-1.5-2.9l-3.9,2.3l1.2,2.9c0.6,1.6,1.2,2.8,1.3,2.7
		S470,171.8,471.5,169.1 M137.9,175.7c-1.1-2.6-2.1-4.9-2.3-5.1s-3.5,2.1-7.2,5.3l-6.8,5.7l3.9,0.2c3.5,0.2,13.6-0.8,14.1-1.3
		C139.7,180.4,138.9,178.2,137.9,175.7 M463,182.7c0-0.3-0.8-2.8-1.9-5.5l-1.9-5.1l-4.4,2.1c-2.4,1.1-4.4,2.1-4.5,2.1
		c-0.2,0.1,5.7,15.8,5.9,16C456.4,192.6,463,183.2,463,182.7 M444.2,182.7c-0.7-1.7-1.4-3.1-1.5-3.1c-0.5,0.1-8.6,3-8.8,3.2
		c0,0.1,2,5.7,4.5,12.6l4.6,12.5l3.6-3.9c4.3-4.7,4.2-3.9,1.2-11.8C446.4,188.7,444.8,184.4,444.2,182.7 M431.3,198.8
		c-2.7-7.3-5.2-13.3-5.5-13.3c-0.9,0.1-8.5,2.1-8.8,2.4c-0.3,0.3,10.8,30.5,11.5,31.2c0.6,0.7,8.3-5.4,8-6.3
		C436.3,212.4,434,206.1,431.3,198.8 M415.3,206.7c-3.5-9.4-6.7-17.1-7-17c-2.3,0.3-8.7,1.6-8.9,1.8c-0.4,0.3,13.4,37.4,13.9,37.6
		c0.5,0.2,8.7-4.5,8.5-4.9C421.8,224,418.8,216.1,415.3,206.7 M398.6,212.7l-7.7-19.9l-2.9-0.1c-3.6,0-7.3,0.4-7.3,0.8
		c0,0.2,6.1,16.5,14.7,39.6l1.3,3.4l2.8-1.1c1.5-0.6,3.6-1.5,4.6-1.9l1.9-0.8L398.6,212.7 M372.7,193.9c0-0.4-7.2-0.1-8.9,0.3
		l-1.6,0.4l8.6,23c7.1,19.1,8.8,23,9.7,23c1.1,0,8.2-1.7,8.5-2c0.1-0.1-3.6-10.1-8.1-22.3S372.7,194,372.7,193.9 M362.9,218.7
		c-7.6-20.4-8.8-23.3-9.9-23c-1.7,0-7.9,1.4-8.3,1.8c-0.2,0.1,3.5,10.5,8.1,23l8.4,22.7l5-0.4c2.8-0.2,5.1-0.5,5.2-0.6
		S367.7,231.5,362.9,218.7 M345.1,221.7c-4.3-11.4-7.9-21.1-8.1-21.7c-0.3-0.8-8,1-9.4,2.2c-0.2,0.2,13.9,38.9,14.4,39.5
		c0.3,0.4,10.2,1.4,10.5,1.1C352.7,242.6,349.4,233.1,345.1,221.7 M326.5,222.5c-3.5-9.4-6.6-17.1-6.8-17.1c-0.5,0-7.8,3.7-8.3,4.2
		c-0.1,0.1,2,6.2,4.7,13.4l4.9,13.2l5.7,1.9c3.1,1,5.8,1.8,5.9,1.7S330,231.9,326.5,222.5 M307.5,222.5c-1.7-4.6-3.2-8.3-3.4-8.3
		c-0.4,0-6.7,4.9-8.5,6.5c-0.6,0.5,4.3,4.2,10.4,8C311.2,231.8,311.1,232.3,307.5,222.5"/>
</g>
</svg>
