<?xml version="1.0" encoding="utf-8"?>
<!-- Generator: Adobe Illustrator 25.0.1, SVG Export Plug-In . SVG Version: 6.00 Build 0)  -->
<svg version="1.1" id="레이어_1" xmlns="http://www.w3.org/2000/svg" xmlns:xlink="http://www.w3.org/1999/xlink" x="0px"
	 y="0px" viewBox="0 0 150.1 144.6" style="enable-background:new 0 0 150.1 144.6;" xml:space="preserve">
<style type="text/css">
	.st0{fill:url(#SVGID_1_);}
	.st1{fill:url(#SVGID_2_);}
	.st2{fill:url(#SVGID_3_);}
	.st3{fill:url(#SVGID_4_);}
	.st4{fill:url(#SVGID_5_);}
	.st5{fill:url(#SVGID_6_);}
	.st6{fill:url(#SVGID_7_);}
	.st7{fill:url(#SVGID_8_);}
	.st8{fill:url(#SVGID_9_);}
	.st9{fill:url(#SVGID_10_);}
</style>
<g>
	<linearGradient id="SVGID_1_" gradientUnits="userSpaceOnUse" x1="0" y1="72.2857" x2="150.0772" y2="72.2857">
		<stop  offset="6.111934e-02" style="stop-color:#F9BD19"/>
		<stop  offset="0.25" style="stop-color:#F9F195"/>
		<stop  offset="0.62" style="stop-color:#DEAE47"/>
		<stop  offset="1" style="stop-color:#E4BD58"/>
	</linearGradient>
	<path class="st0" d="M92.1,21.4c-4.4-6.9-4.4-8.2,0.8-12.6c10.8-9.2,23.6-9.9,36.9-8.1c6,0.8,11.7,2.6,16.9,5.9
		c2.9,1.9,4.8,3.9,2.2,7.7c-3.1,4.5-2.8,9.9-3.5,15.2c-2.9,20.6-1.6,41.3-1.8,61.9c0,3.3-0.6,6.7,2.4,9.3c0.7,0.6,0.9,2.3,0.6,3.3
		c-1.9,7.1-0.5,14.2-1,21.3c-0.2,2.7,0,5.3,1.5,7.7c1.8,2.9,0.4,4.1-2.3,5.1c-15.8,5.6-31.5,6.1-47.5,0.8c-3.3-1.1-4.4-2.5-2.7-5.7
		c1.4-2.6,0.8-3.7-2.5-3.7c-10.1,0-20.3-0.8-30.4,0.7c-2.9,0.4-3.9,1.3-2.3,4c1.8,3,1.1,4.6-2.3,5.8c-15.6,5.5-31.3,5.9-47,0.6
		c-1.6-0.6-4.2-0.8-2.9-3.5c4.4-9.3,2.1-19.1,1.8-28.6c-0.2-5,1.2-9.7,1.2-14.6c-0.2-16.5,0.5-33.1-1.4-49.4
		C7.9,38.1,6.5,31.4,6,24.6c-0.2-2.2-2.2-3.3-3.6-4.6c-3.7-3.3-2.6-5.9,0.6-8.6c3.7-3,7.9-5,12.6-5.8c12.5-2.3,24.8-2.2,37,2
		c3.7,1.3,7,3.1,9.6,6c1.4,1.5,3.5,3.3,0.1,5c-0.9,0.5-0.9,1.4-0.5,2.1c0.6,1,1.8,0.6,2.7,0.6C73.3,21.4,82.1,21.4,92.1,21.4z
		 M13.7,101.7c-1.1,0-2.6-1-2.4,1.6c0.2,4.4,3.7,3.9,6.1,4.1c11,0.6,22,0.6,32.9-0.4c1-0.1,2-0.2,3-0.3c0.9-0.2,2.2,0.4,2.7-1.1
		c-14.2-0.4-28.3,1.2-42.3-1.1c14.2,0.8,28.3,0.5,42.3-1.4c-4.1-0.3-8.2,0.1-12.3,0.1c-10.1,0-20.3,1.5-30.3-1.5
		c13.7,0.2,27.3,0.3,40.9-1.2c-13.6,0.1-27.2,0.8-40.8-0.7C11.4,99.5,13,101,13.7,101.7z M15.1,21c2.6-1.5,4.5-0.3,5.9,1.7
		c2.4,3.4,1.1,6.5-1.9,9.5c11.9,0.6,23.4-1.2,34.5,2.8c0.8,0.3,1.5,0.3,2-0.7c1.5-3.2-0.8-9.9-4.2-11.9l0.2,0.1
		c-7-3.6-14.6-3.7-22.1-3.4C24.6,19.3,19.6,18.1,15.1,21c-2.6-0.5-5.7-0.1-6.3,2.5C8.1,26.8,8,30.7,9.2,33.8
		c0.9,2.5,3.7-0.8,5.7-0.4c0.2,0,0.5-0.3,0.8-0.5c-2.8-1.6-5.7-3.3-5.3-7.1C10.7,23.2,12,21,15.1,21z M59.7,119.3
		c2-1,1.6-2.2,1.6-3.3c-0.1-16-0.2-32-0.5-48c-0.1-3.8,1.1-4.9,4.8-4.9c7.2,0.1,14.3,0,21.5-0.3c3.2-0.1,4.5,0.9,4.4,4.3
		c-0.2,5.3,0,10.7,0.1,16c0,11.7,0,23.4,0,35.1c0.4,0,0.9,0,1.3,0c0-24.3,0-48.6,0-72.8c0-2.8-1.6-2.8-3.6-2.7
		c-8.7,0.1-17.3,0.4-26,0.3c-3.1,0-4,1-3.9,4c0.2,10.2,0.2,20.3,0.2,30.5C59.7,91.4,59.7,105.4,59.7,119.3z M75.7,35.3
		c0-0.2,0-0.3,0-0.5c3.8,0,7.6,0.1,11.5,0c7.3-0.2,7.9-1.1,7-8.5c-0.3-2-1-2.5-2.8-2.4c-10.1,0.3-20.2,0.7-30.4,0.8
		c-3.1,0-3.5,1.8-2.8,3.8c0.7,2.3-2.2,6.6,3.1,6.7C66,35.4,70.8,35.3,75.7,35.3z M120.3,6.2c-7.6,0-16.8,1.9-25.1,7.1
		C94,14,91.7,14.9,93,16.9c1,1.6,2.3,2.5,4.9,1.4c14.6-6.2,29.4-6.2,44.3-1.1c1.2,0.4,2.4,1.6,3.4-0.2c0.8-1.4,1.1-2.9,0.2-4.2
		c-1.1-1.7-3-2.6-4.9-3.3C135,7.3,128.7,6.5,120.3,6.2z M121.2,18.1c-5.5,0.3-11,0-16.3,1.3c-8.8,2.2-10.1,4-9.3,13
		c0.2,2.1,0.3,3.3,3.2,2.3c11.9-4,24.2-4,36.4-2.6c8,0.9,7.7,1.4,8-6.6c0.2-4.4-1.7-5.9-5.6-6.3C132.2,18.5,126.7,17.9,121.2,18.1z
		 M137.2,107.7c0,6.8,0.4,12.6-0.1,18.3c-0.4,4.3,2.6,1.5,3.8,2.1c1.7,0.9,2.5-0.7,2.3-2.5c-1.1-9.9,2.4-20.1-1.9-29.9
		c-0.7-1.5-1.1-2.1-2.6-2c-1.7,0-3,0.4-2.8,2.5c0.1,1.4,0.3,2.7,0.5,4.5c-11.9,0-23.4,0-35,0c0,0.3,0,0.6,0,0.9
		c12.3,0,24.5,0,36.8,0c0,0.3,0,0.6,0,1c-13.3,0-26.7,0-40,0c13.6,2.6,27.3,1.6,41,2.5c-14,0.4-28,0.9-43.1,0
		c4.3,2.2,8,1.8,11.5,1.9c10.2,0.1,20.3,0,30.5-0.1c2.1,0,4.1-0.2,4,2.9c-0.1,5.2,0,10.5,0,16.9c-1.4-3.6-0.9-6.3-1.1-8.9
		c-0.2-2.7,0-5.4,0-9.5c-2.2,2.8-1.1,4.8-2,6.5C138.1,112.5,139.4,110.4,137.2,107.7z M66.3,114.1c0,3,0.1,6,0,9
		c-0.1,2.6,0.9,3.5,3.5,3.4c5-0.2,10-0.3,14.9-0.2c2.6,0.1,3.5-0.8,3.4-3.4c-0.2-4.8,0.2-9.6-0.1-14.4c-0.2-3.4-0.8-7.2-6.1-6
		c-1.6,0.4-3.3,0.1-5,0.1C65.6,102.5,65.6,102.5,66.3,114.1z M30.6,14.2c8.1,0.1,16.6,1.2,24.4,5.4c1.1,0.6,2.4,2.8,3.7,0.9
		c1.2-1.8-0.2-3.5-1.8-4.6c-3.6-2.5-7.8-3.7-12-4.6C31.8,8.5,18.9,9.2,6.4,14.5c-1.2,0.5-3.8,0.8-2.1,3.3c1,1.5,2.1,2.2,4.1,1.1
		C15,14.9,22.5,14.3,30.6,14.2z M119.2,61.8c0-2.2,0-4.3,0-6.5c0-1.1,0.1-2.2-1.4-2.8c-5.6-2.2-10.6,1.1-10.6,7.1c0,3,0,6,0,9
		c0,1.4,0.2,2.4,2.1,2.7c7.8,1.4,10-0.3,10-8.1C119.2,62.8,119.2,62.3,119.2,61.8z M119.2,83.1c0-9.9,0-9.7-7.7-9.5
		c-3.4,0.1-4.7,1.2-4.5,4.6c0.3,3.5,0,7,0.1,10.4c0,1.5-0.1,2.8,2,3.4c7.3,2,10.1,0,10.1-7.5C119.2,84.1,119.2,83.6,119.2,83.1z
		 M121.7,61.9c0,2.2,0,4.3,0,6.5c0,1.5,0.3,2.4,2,2.8c7.8,1.7,9.6,0.4,9.6-7.5c0-2.2-0.2-4.3,0-6.5c0.3-3-0.9-4.1-3.8-4.4
		c-7.9-0.9-7.9-1-7.9,6.6C121.6,60.2,121.6,61.1,121.7,61.9z M121.7,82.6c0,2.3,0,4.6,0,6.9c0,1.2,0.1,2.1,1.7,2.6
		c6.1,1.7,10-1.1,10-7.2c0-2.1-0.2-4.3,0-6.4c0.4-3.7-0.9-4.9-4.6-4.9c-7.1,0-7.1-0.2-7.1,6.6C121.6,81,121.6,81.8,121.7,82.6z
		 M43.1,61.8C43.1,61.8,43.1,61.8,43.1,61.8c0,2.1,0,4.3,0,6.4c0,1.5,0.1,3.2,2.2,3c2.9-0.2,7.7,1.9,8.2-0.2
		c1.2-5,0.3-10.4,0.1-15.7c0-0.3-1-0.7-1.6-0.9c-7.4-3.1-9-2-9,5.9C43.1,60.8,43.1,61.3,43.1,61.8z M54.4,83.2c0,0-0.1,0-0.1,0
		c0-2,0-4,0-5.9c0-0.9,0.2-2.2-0.9-2.6c-2.9-0.9-6-1.5-8.8-0.7c-2.7,0.7-1.3,3.7-1.4,5.6c-0.2,3-0.1,5.9,0,8.9
		c0,1.3-0.1,2.5,1.7,3.1c6,1.8,9.7-0.8,9.6-6.9C54.4,84.2,54.4,83.7,54.4,83.2z M31.7,82.5c0,2.3,0.1,4.6,0,6.9
		c-0.1,2.2,0.8,2.7,2.9,2.8c4.1,0.3,6.7-0.5,6-5.5c-0.4-2.6-0.2-5.3,0-7.9c0.2-3.4-0.2-5.4-4.6-5.4c-4.3,0-4.5,2-4.3,5.1
		C31.7,79.8,31.6,81.2,31.7,82.5z M40.5,62C40.5,62,40.5,62,40.5,62c0-2.2-0.1-4.3,0-6.5c0.1-4.2-3.1-2.9-5.3-3.2
		c-2.4-0.3-3.7,0.4-3.6,3.2c0.2,4.1,0,8.3,0.1,12.4c0,1.3-0.2,2.6,1.6,3.1c4.7,1.4,7.1-0.3,7.2-5.1C40.5,64.7,40.5,63.4,40.5,62z
		 M29.2,83C29.2,83,29.2,83,29.2,83c0-2.3,0-4.7,0-7c0-1.3-0.4-2-1.9-2.3c-4.9-0.9-6.7,0.4-6.7,5.3c0,3.3,0.1,6.7,0,10
		c-0.1,2,0.5,2.9,2.7,3.2c5.4,0.7,6,0.3,6-5.2C29.2,85.6,29.2,84.3,29.2,83z M29.2,62c0-1.8,0-3.7,0-5.5c-0.1-1.9,0.6-4.5-2.7-3.9
		c-2.4,0.4-6.1-1.1-5.9,3.8c0.2,4,0,8,0.1,12c0,1.2-0.4,2.6,1.6,3.1c4.7,1.1,7-0.5,7-5.4C29.2,64.7,29.2,63.4,29.2,62z M133.3,45
		c0-7,0-6.8-7.6-7c-5.5-0.2-4,3.6-4,6.4c-0.1,6,0.6,6.4,9.1,6.2C135.5,50.4,132.2,46.5,133.3,45z M119.2,44.1c0-5.7,0-5.7-3.3-5.7
		c-8.6,0-9,0.1-8.7,6.1c0.1,2.2-2.2,6.1,3.1,6C119.2,50.2,119.2,50.4,119.2,44.1z M104.6,63.1c0-2-0.1-4,0-6
		c0.1-2.6-0.6-3.5-3.4-2.8c-2.8,0.7-3.9,1.8-3.6,4.7c0.3,3.3,0.1,6.6,0.2,9.9c0.1,1.7-0.6,3.8,2.6,3.4c2.4-0.3,4.7-0.2,4.3-3.8
		C104.4,66.7,104.6,64.9,104.6,63.1z M18.1,63.2c0-1.5,0.3-3.1-0.1-4.5c-0.5-1.5,1.9-4.5-1.8-4.5c-2.9,0-4.9,1.3-4.5,5
		c0.4,3.5,0.3,7,0.4,10.5c0,1.7,0.5,2.9,2.6,2.6c1.6-0.2,3.5-0.1,3.3-2.6C18,67.5,18,65.3,18.1,63.2z M54,52.2c0-1.4,0-2.2,0-3
		c0-6.3-2.8-8.9-8.9-8.9c-1.2,0-1.7,0.3-2,1.5c-1.5,5.7,0.2,8.5,6,9.5C50.6,51.6,52.1,51.9,54,52.2z M29.1,44.3
		c-0.3-2.2,1.6-5.6-3.5-5.5c-4.6,0.1-5.8,2.1-5,6c0.5,2.2-2.2,5.9,3.2,5.8C28.3,50.4,30.3,49,29.1,44.3z M141,63.7
		c0-2.3,0-4.6,0-6.9c0-2.2-1.7-2.1-3-2.5c-1.6-0.5-2.1,0.5-2.1,1.8c0,4.6-0.1,9.2,0.1,13.8c0,2.2,1.9,1.9,3.3,2
		c1.7,0.2,1.8-1,1.8-2.3C141,67.7,141,65.7,141,63.7z M141.1,82.4C141.1,82.4,141,82.4,141.1,82.4c-0.1-1.8-0.2-3.6,0-5.4
		c0.2-2-0.9-2.5-2.6-2.6c-1.9-0.2-2.7,0.5-2.7,2.4c0.1,4,0,7.9,0,11.9c0,1.7,0.4,2.8,2.5,2.7c2.1-0.1,3-0.9,2.8-3
		C141,86.4,141.1,84.4,141.1,82.4z M98.1,83.2c0,0,0.1,0,0.1,0c0,1.8,0.1,3.6,0,5.5c-0.1,2.6,1.5,2.8,3.5,3c2.3,0.1,2.9-1,2.9-3
		c0-3.6-0.1-7.3,0-10.9c0-2.2-0.7-3.4-3.2-3.1c-2.1,0.2-3.5,0.7-3.3,3.2C98.2,79.5,98.1,81.3,98.1,83.2z M18.1,83
		c0-1.8-0.1-3.6,0-5.5c0.1-1.9-0.2-3.2-2.6-3c-2.2,0.2-3.3,0.8-3.2,3.3c0.2,3.6,0.2,7.3,0.2,10.9c0,2.3,1.1,2.7,3.1,2.8
		c2.4,0.1,2.7-1.2,2.6-3.1C18,86.7,18.1,84.8,18.1,83z M31.7,44.1c-1.3,5.1,1.3,5.8,5.6,6c4.6,0.2,2.8-2.9,3.2-5
		c0.9-4.5-1.3-6-5.6-6.3C29.9,38.6,32.2,42.2,31.7,44.1z M18,45.2c-1-1.2,1.6-4.1-1.2-4.9c-1.5-0.4-4.4,0-5,2.3
		c-0.6,2.2-0.2,4.6-0.1,6.9c0,1.1-0.6,3.1,1.6,2.8c1.7-0.3,4.3,0.3,4.7-2.5C18.2,48.5,18,47.1,18,45.2z M104.6,45.5
		c-0.5-1.7,1-4.3-1.2-5.2c-1.7-0.7-4.1,0.3-5.4,1.7c-1.5,1.7-0.6,4.1-0.5,6.2c0,1.3-0.8,3.5,0.9,3.8c1.6,0.3,3.8-0.1,5.2-1
		C105.5,49.9,104.3,47.5,104.6,45.5z M141,47.1c0-1.5-0.1-2.7,0-3.9c0.3-2.7-1.3-3.7-3.5-3.7c-2.9,0-1.5,2.4-1.7,3.8
		c-0.2,1.6-0.1,3.3,0,5c0,1.5-0.2,3,1.8,3.5C143.8,53.3,139.7,48.2,141,47.1z M125.3,119.5c0,0,0.1,0,0.1,0c0,2.8,0,5.7,0,8.5
		c0,0.9-0.2,2.2,1.2,2.3c1.5,0.1,1.5-1,1.5-2c0-5.8-0.1-11.6-0.2-17.4c0-1-0.1-2.2-1.5-2.1c-1.4,0.1-1.2,1.4-1.2,2.3
		C125.3,113.8,125.3,116.6,125.3,119.5z M119.3,119.5C119.2,119.5,119.2,119.5,119.3,119.5c-0.1-3-0.1-6-0.1-9c0-0.8,0-1.8-1.1-1.9
		c-1.4-0.1-1.5,1-1.5,2c0.1,6,0.2,12,0.2,17.9c0,0.9,0.3,1.7,1.3,1.7c1.1,0,1.2-1,1.2-1.8C119.3,125.5,119.3,122.5,119.3,119.5z
		 M129.5,130c0.8,0,1.7-0.1,2.5-0.1c0-6.7,0-13.4,0-20.1c0-0.8-0.6-1.3-1.3-1.3c-0.7,0-1.2,0.5-1.2,1.3
		C129.5,116.5,129.5,123.2,129.5,130z M37.3,120.1C37.2,120.1,37.2,120.1,37.3,120.1c-0.1-2.8-0.1-5.6-0.1-8.5c0-1-0.1-2.1-1.5-2
		c-1.1,0.1-1.2,1.1-1.1,1.9c0.1,5.6,0.2,11.3,0.3,16.9c0,0.8,0.2,1.8,1.2,1.8c1.5,0,1.2-1.3,1.2-2.2
		C37.3,125.4,37.3,122.7,37.3,120.1z M30.3,119.2c0.1,0,0.1,0,0.2,0c0,3.2,0,6.3,0,9.5c0,0.9,0.3,1.7,1.4,1.7c1.1,0,1.2-1,1.2-1.8
		c-0.1-5.6-0.1-11.3-0.3-16.9c0-0.8,0-1.9-1.1-1.9c-1.5-0.1-1.4,1.1-1.4,2.1C30.3,114.2,30.3,116.7,30.3,119.2z M114.3,130.7
		c0-7.8,0-14.9,0-22C111.9,112.7,112.3,127,114.3,130.7z M113.2,94.6C113.2,94.6,113.2,94.5,113.2,94.6c-0.8-0.1-1.6-0.1-2.5-0.1
		c-1.6,0-3.4-0.3-3.5,2.3c0,2.5,1.6,2.5,3.3,2.5c2.1,0,4.3,0,6.4-0.1c1.6-0.1,2.3-0.8,2.3-2.5c0-1.9-1.2-2.1-2.6-2.1
		C115.5,94.6,114.3,94.6,113.2,94.6z M127.5,99.2c0,0,0-0.1,0-0.1c0.8,0,1.7-0.1,2.5,0c2.2,0.4,3.4-0.1,3.3-2.7
		c-0.1-2.7-1.7-2.3-3.4-2.1c-2.1,0.2-4.3,0.3-6.4,0.3c-1.5,0.1-1.9,0.9-1.9,2.3c0,1.3,0.4,2.3,1.9,2.3
		C124.9,99.2,126.2,99.2,127.5,99.2z M48.4,98.8c0,0,0,0.1,0,0.1c1.2-0.1,2.3-0.1,3.5-0.3c1.8-0.3,3.1-1,2.8-3.2
		c-0.3-2.5-2.1-1.6-3.4-1.6c-2,0-4,0.2-6,0.4c-1.7,0.1-2.2,1.1-2.2,2.7c0,1.6,0.9,2,2.3,2C46.4,98.8,47.4,98.8,48.4,98.8z
		 M109.4,130.1c0.2,0,0.5-0.1,0.7-0.1c0-7,0-14.1,0-21.1c-0.2,0-0.5,0-0.7,0.1C109.4,116.1,109.4,123.1,109.4,130.1z M72.2,84.8
		c-0.9-1.6,1.6-4.9-2.4-5.1c-3.3-0.2-2.7,2.5-2.4,4.1c0.3,2-2,5.4,2.5,5.5C73.3,89.3,71.6,86.5,72.2,84.8z M79.2,84.6
		c-0.8-1.6,1.6-4.9-2.7-5c-3.3,0-2.7,2.4-2.5,4.2c0.3,1.9-1.5,5,2.4,5.4C80.2,89.5,78.9,86.6,79.2,84.6z M72.3,95.6
		c-1-1.4,1.4-4.5-2.4-4.6c-3.3-0.1-2.7,2.4-2.4,4.2c0.3,1.9-1.7,5.1,2.3,5.4C73.5,100.7,71.6,97.6,72.3,95.6z M86.3,95.5
		c-0.9-1.5,1.2-4.9-2.9-4.7c-3.2,0.2-2.2,2.9-2.1,4.5c0.2,1.9-1.4,5.1,2.5,5.2C87.5,100.5,85.6,97.5,86.3,95.5z M79.4,95.5
		c-0.9-1.5,1.1-4.7-2.7-4.6c-3.7,0-2.3,3-2.3,4.8c0,1.8-1.3,4.8,2.4,4.8C80.6,100.5,78.7,97.4,79.4,95.5z M81.1,84.2
		c0.8,1.6-1.4,4.7,2.4,4.8c3.4,0.1,2.5-2.5,2.3-4.2c-0.2-1.9,1.5-5.2-2.5-5.1C80,79.7,81.7,82.5,81.1,84.2z M79,73.2
		c-0.3-1.2,1.1-3.9-2.6-3.9c-2.7,0-2.9,1.7-2.6,3.6c0.3,1.8-1.1,4.6,2.5,4.8C79.3,77.9,79.2,75.9,79,73.2z M36.3,94.5
		c-1.5,0.7-4.5-1.4-4.6,2.4c-0.1,2.7,1.8,2.9,3.6,2.6c2-0.3,5.1,0.9,5.1-2.8C40.4,93.6,37.9,94.8,36.3,94.5z M123.6,108.8
		c-0.8,0-1.5,0-2.3,0c0,6.7,0,13.4,0,20.1c0,0.7,0.3,1.3,1,1.4c0.7,0,1.3-0.4,1.3-1.2C123.6,122.4,123.6,115.6,123.6,108.8z
		 M24.9,99.4c1.3-0.6,4.3,1.3,4.3-2.5c0-3.7-3-2.2-4.7-2.4c-1.5-0.2-3.8-1.1-3.9,2.1C20.4,99.8,22.5,99.4,24.9,99.4z M28.8,109.8
		c-0.8,0-1.6,0-2.4,0.1c0,6.4,0,12.8,0,19.2c0,0.7,0.3,1.3,1.2,1.3c0.8,0,1.2-0.5,1.2-1.2C28.8,122.7,28.8,116.2,28.8,109.8z
		 M44.7,109.5c-0.3,0-0.6,0-0.9,0c0,6.8,0,13.6,0,20.4c0.3,0,0.6,0,0.9,0C44.7,123.1,44.7,116.3,44.7,109.5z M133.7,129
		c0.4,0,0.8,0,1.2,0c0-6.8,0-13.5,0-20.3c-0.4,0-0.9,0-1.3,0C133.1,115.4,133.5,122.2,133.7,129z M105.7,129.3c0.3,0,0.5,0,0.8,0
		c0-6.7,0-13.3,0-20c-0.3,0-0.5,0-0.8,0C105.7,116,105.7,122.6,105.7,129.3z M39.6,130c0.4,0,0.8,0,1.2,0c0-6.8,0-13.6,0-20.4
		c-0.4,0-0.8,0-1.2,0C39.6,116.5,39.6,123.2,39.6,130z M24,109.9c-0.4,0-0.7,0-1.1,0c0,6.7,0,13.4,0,20.1c0.4,0,0.7,0,1.1,0
		C24,123.3,24,116.6,24,109.9z M72,73.5c-0.5-1.3,0.9-4-2.5-4c-3,0-2.3,2.2-2.2,3.9c0.1,1.7-1,4.3,2.4,4.3
		C72.6,77.6,71.8,75.4,72,73.5z M19.9,26.7c-0.2-1.6-0.4-3.4-1.9-3.8c-2.7-0.7-0.4,1.9-1.4,2.6c-0.8,0.6-1.3,1.4-2.5,0.8
		c-1.7-1-1.6,0.3-1.2,1.2c0.6,1.8,1.8,3.2,4,2.9C19.1,30.2,19.7,28.5,19.9,26.7z M85.6,73.5c-0.6-1.5,1.2-4.2-2.3-4.5
		c-3.2-0.2-2.5,2.1-2.3,3.7c0.2,1.8-1.4,4.7,2.4,4.8C86.6,77.6,85.3,75.2,85.6,73.5z M63.7,124.6c0.1,0,0.2,0,0.3,0.1
		c0-10.6,0-21.1,0-31.7c-0.1,0-0.2,0-0.3,0C63.7,103.4,63.7,114,63.7,124.6z M102.1,94.1c-2.5-0.3-3.8-0.5-3.8,1.9
		c0,2.4,1.2,2.7,3.1,2.7c1.8,0.1,3.3,0.2,3.2-2.4C104.6,93.6,102.7,94.2,102.1,94.1z M18,96.5c0.6-2.3-1.1-2.5-2.9-2.5
		c-1.4-0.1-2.7-0.3-2.6,1.8c0.1,2.1,1.3,2.8,3.2,3C17.2,98.9,18.3,98.6,18,96.5z M20.3,109.8c-0.3,0-0.6,0-0.9,0c0,6.5,0,13,0,19.5
		c0.3,0,0.6,0,0.9,0C20.3,122.8,20.3,116.3,20.3,109.8z M47.4,129.3c0.3,0,0.5,0,0.8,0.1c0-6.6,0-13.2,0-19.7c-0.3,0-0.5,0-0.8,0
		C47.4,116.2,47.4,122.8,47.4,129.3z M16.5,129.1c0.2,0,0.4,0,0.6,0c0-6.5,0-13,0-19.5c-0.2,0-0.4,0-0.6,0
		C16.5,116.1,16.5,122.6,16.5,129.1z M11.7,127.2c0.1,0,0.3-0.1,0.4-0.1c0-5.9,0-11.8,0-17.6c-0.1,0-0.3,0-0.4,0
		C11.7,115.3,11.7,121.3,11.7,127.2z M50.6,128.2c0.2,0,0.3,0,0.5,0c0-6.1,0-12.3,0-18.4c-0.2,0-0.3,0-0.5,0
		C50.6,116,50.6,122.1,50.6,128.2z M103.9,110.8c-0.1,0-0.2,0-0.3,0c0,5.7,0,11.4,0,17.1c0.1,0,0.2,0,0.3,0
		C103.9,122.2,103.9,116.5,103.9,110.8z M55.4,127.8c0.2,0,0.4,0.1,0.6,0.1c0-5.9,0-11.8,0-17.8c-0.2,0-0.4,0-0.6,0
		C55.4,116.1,55.4,122,55.4,127.8z M72.8,38.8c0,0.1,0.1,0.1,0.1,0.2c5.3,0,10.5,0,15.8,0c0-0.1,0-0.1,0-0.2
		C83.4,38.8,78.1,38.8,72.8,38.8z M57.5,125c0.1,0.1,0.2,0.2,0.3,0.3c0-5.3,0-10.7,0-16c-0.1,0-0.2,0-0.3,0
		C57.5,114.5,57.5,119.7,57.5,125z"/>
	<linearGradient id="SVGID_2_" gradientUnits="userSpaceOnUse" x1="113.905" y1="24.9548" x2="133.3543" y2="24.9548">
		<stop  offset="6.111934e-02" style="stop-color:#F9BD19"/>
		<stop  offset="0.25" style="stop-color:#F9F195"/>
		<stop  offset="0.62" style="stop-color:#DEAE47"/>
		<stop  offset="1" style="stop-color:#E4BD58"/>
	</linearGradient>
	<path class="st1" d="M116.8,22.8c0.6,0.9,1.4,0.8,2.2,0.8c1-0.1,1.6,0.3,1.6,1.4c-0.1,1.1-0.7,1.4-1.7,1.1
		c-1.1-0.3-2.2-0.2-1.9,1.3c0.2,1.3,1.5,1.2,2.4,1c2.4-0.5,4.2-1.4,3.7-4.6c-0.2-1.2-1.6-3.2,0.1-3.9c1.5-0.7,3.7-0.8,5.3,0.3
		c1.5,1,1.9,2.5,1,4.3c-1.5,3.3,2.5,3.5,3.8,5.6c-4,1.5-5.1-2-7.4-3.8c0.3,7.5-5.3,3-8.1,4.2c-2.4,1-4.9,0.3-3.6-3.7
		c0.5-1.5,0.1-3.3-0.2-4.9c-0.3-1.2-0.3-2.1,1.1-2c2,0.1,5.2-1.5,5.7,1.1C121.4,23.7,117.6,20,116.8,22.8z"/>
	<linearGradient id="SVGID_3_" gradientUnits="userSpaceOnUse" x1="97.2732" y1="26.9215" x2="113.4972" y2="26.9215">
		<stop  offset="6.111934e-02" style="stop-color:#F9BD19"/>
		<stop  offset="0.25" style="stop-color:#F9F195"/>
		<stop  offset="0.62" style="stop-color:#DEAE47"/>
		<stop  offset="1" style="stop-color:#E4BD58"/>
	</linearGradient>
	<path class="st2" d="M99.8,28.8c-1.2,1.3,0.9,3.3-1.3,4.7c-2.2-2.9-0.6-6.1-1.1-9c2.4-0.6,2.6,2.3,4.4,2.2c0-4.6,2.3-6.7,7.1-6.2
		c3.5,0.4,4.9,2.6,4.5,5.9c-0.4,3.4-2.7,4.7-5.8,4.9c-1.6,0.1-2.5-0.3-2.3-2.2c0.1-1.9-0.2-3.8-0.4-6.9c-1.8,3.6,0.1,6.3-1.1,8.7
		C101.7,31.6,101.5,28.7,99.8,28.8z M108.6,22.6c-2.1,0.9-0.9,2.8-1.1,4.2c-0.1,1.1,0,2.6,1.8,2c1.7-0.6,1.9-2.1,1.8-3.7
		C111.1,23.6,110.4,22.6,108.6,22.6z"/>
	<linearGradient id="SVGID_4_" gradientUnits="userSpaceOnUse" x1="134.2997" y1="25.8237" x2="140.7001" y2="25.8237">
		<stop  offset="6.111934e-02" style="stop-color:#F9BD19"/>
		<stop  offset="0.25" style="stop-color:#F9F195"/>
		<stop  offset="0.62" style="stop-color:#DEAE47"/>
		<stop  offset="1" style="stop-color:#E4BD58"/>
	</linearGradient>
	<path class="st3" d="M138.2,28.3c-1.2-2.4-4.5-3-2.9-5.9c0.8-1.4,2.1-2.1,3.8-1.6c0.9,0.2,1.6,0.8,1.3,1.8
		c-0.5,1.6-1.8-0.3-2.6,0.6c0.1,1.6,2,2,2.5,3.3c0.8,1.7,0.2,3-1.3,3.8c-1.6,0.8-3.5,1-4.4-0.7c-1.1-2.2,0.2-2.1,1.8-1.3
		C136.9,28.5,137.4,28.3,138.2,28.3z"/>
	<linearGradient id="SVGID_5_" gradientUnits="userSpaceOnUse" x1="78.0885" y1="113.9328" x2="87.0879" y2="113.9328">
		<stop  offset="6.111934e-02" style="stop-color:#F9BD19"/>
		<stop  offset="0.25" style="stop-color:#F9F195"/>
		<stop  offset="0.62" style="stop-color:#DEAE47"/>
		<stop  offset="1" style="stop-color:#E4BD58"/>
	</linearGradient>
	<path class="st4" d="M87,114.6c0.2,3.2,0.8,6.8-4.9,6.4c-3-0.2-4.2-1.2-3.9-4.1c0.1-1.3,0-2.6,0-4c0-2.8-0.9-5.8,4-5.9
		c5-0.1,4.8,2.7,4.8,5.9C87,113.3,87,113.8,87,114.6z M85.1,114.1c-0.7-1.8,1.5-5.2-2.6-5.1c-3.4,0-2.1,2.9-2.1,4.5
		c0.1,1.9-1.6,5.2,2.5,5.2C86.3,118.6,84.5,115.8,85.1,114.1z"/>
	<linearGradient id="SVGID_6_" gradientUnits="userSpaceOnUse" x1="67.0132" y1="113.9733" x2="75.906" y2="113.9733">
		<stop  offset="6.111934e-02" style="stop-color:#F9BD19"/>
		<stop  offset="0.25" style="stop-color:#F9F195"/>
		<stop  offset="0.62" style="stop-color:#DEAE47"/>
		<stop  offset="1" style="stop-color:#E4BD58"/>
	</linearGradient>
	<path class="st5" d="M75.7,114.7c-0.8,1.9,2.4,5.9-3.1,6.2c-4,0.3-6.1-0.7-5.4-5.1c0.1-1,0-2,0-3c-0.1-3-0.6-5.8,4.2-5.9
		c4.9-0.1,4.4,2.7,4.3,5.8C75.7,113.2,75.7,113.7,75.7,114.7z M73.8,114.1c-1.1-1.6,1.8-5.4-2.6-4.9c-4.1,0.4-1.5,3.9-1.9,5.9
		c-0.3,1.4-0.9,3.9,2.2,3.8C75.4,118.8,73.3,115.9,73.8,114.1z"/>
	<linearGradient id="SVGID_7_" gradientUnits="userSpaceOnUse" x1="42.6403" y1="27.8576" x2="53.8828" y2="27.8576">
		<stop  offset="6.111934e-02" style="stop-color:#F9BD19"/>
		<stop  offset="0.25" style="stop-color:#F9F195"/>
		<stop  offset="0.62" style="stop-color:#DEAE47"/>
		<stop  offset="1" style="stop-color:#E4BD58"/>
	</linearGradient>
	<path class="st6" d="M51.3,22.5c1.7,3.4,2.6,6.9,2.6,10.5c-2.5,1.7-2.9-7.7-6.6,0.9c-0.2-4.3,3-5.5,3-8.8c-1.8,2.5-3.2,4.4-4.6,6.3
		c-2-0.9-1.6-2.7-1.9-4c-0.4-1.8-2.1-4.9-0.6-5.3c3.3-0.9,1.1,3.4,3.2,4.6c1.8-0.9,1.5-5.1,5-3.9C51.5,22.6,51.3,22.5,51.3,22.5z"/>
	<linearGradient id="SVGID_8_" gradientUnits="userSpaceOnUse" x1="30.208" y1="25.798" x2="38.0698" y2="25.798">
		<stop  offset="6.111934e-02" style="stop-color:#F9BD19"/>
		<stop  offset="0.25" style="stop-color:#F9F195"/>
		<stop  offset="0.62" style="stop-color:#DEAE47"/>
		<stop  offset="1" style="stop-color:#E4BD58"/>
	</linearGradient>
	<path class="st7" d="M30.4,29.4c0-1.8,0-3.6,0.1-5.4c0.1-1.2-1.3-3.4,1.4-3.3c2.1,0.1,1.2,1.9,1.2,3.1c0.1,2.8-0.9,6.6,5,4.7
		c-2.9,2.7-5.2,3.3-7.6,0.8L30.4,29.4z"/>
	<linearGradient id="SVGID_9_" gradientUnits="userSpaceOnUse" x1="22.6227" y1="25.9028" x2="30.4367" y2="25.9028">
		<stop  offset="6.111934e-02" style="stop-color:#F9BD19"/>
		<stop  offset="0.25" style="stop-color:#F9F195"/>
		<stop  offset="0.62" style="stop-color:#DEAE47"/>
		<stop  offset="1" style="stop-color:#E4BD58"/>
	</linearGradient>
	<path class="st8" d="M30.4,29.3c-2.1,2.4-6.2,2.4-7,1c-1.3-2.4-0.7-6-0.5-9c0.1-0.9,1.6-1,2.4-0.1c0.3,0.3,0.3,0.9,0.2,1.4
		c-0.5,3.8-0.4,7.1,4.8,6.9C30.4,29.4,30.4,29.3,30.4,29.3z"/>
	<linearGradient id="SVGID_10_" gradientUnits="userSpaceOnUse" x1="38.0005" y1="25.9052" x2="41.1577" y2="25.9052">
		<stop  offset="6.111934e-02" style="stop-color:#F9BD19"/>
		<stop  offset="0.25" style="stop-color:#F9F195"/>
		<stop  offset="0.62" style="stop-color:#DEAE47"/>
		<stop  offset="1" style="stop-color:#E4BD58"/>
	</linearGradient>
	<path class="st9" d="M40.9,25.5c0,1.6-0.1,2.4,0,3.2c0.1,0.9,0.7,2-0.8,2.2c-1.4,0.2-2.1-0.6-2.1-2c0.1-2,0.2-3.9,0.3-5.9
		c0-1.1-0.4-2.5,1.5-2.3c1.7,0.2,1.4,1.4,1.3,2.6C40.9,24.3,40.9,25.3,40.9,25.5z"/>
</g>
</svg>
