<svg id="_2" data-name="2" xmlns="http://www.w3.org/2000/svg" xmlns:xlink="http://www.w3.org/1999/xlink" viewBox="0 0 201.8 140.6"><defs><style>.cls-1{fill:url(#무제_그라디언트_41);}.cls-2{fill:url(#무제_그라디언트_41-2);}.cls-3{fill:url(#무제_그라디언트_41-3);}.cls-4{fill:url(#무제_그라디언트_41-4);}.cls-5{fill:url(#무제_그라디언트_41-5);}.cls-6{fill:url(#무제_그라디언트_41-6);}.cls-7{fill:url(#무제_그라디언트_41-7);}.cls-8{fill:url(#무제_그라디언트_41-8);}.cls-9{fill:url(#무제_그라디언트_41-9);}.cls-10{fill:url(#무제_그라디언트_41-10);}.cls-11{fill:url(#무제_그라디언트_41-11);}.cls-12{fill:url(#무제_그라디언트_41-12);}.cls-13{fill:url(#무제_그라디언트_41-13);}.cls-14{fill:url(#무제_그라디언트_41-14);}.cls-15{fill:url(#무제_그라디언트_41-15);}.cls-16{fill:url(#무제_그라디언트_41-16);}.cls-17{fill:url(#무제_그라디언트_41-17);}.cls-18{fill:url(#무제_그라디언트_41-18);}.cls-19{fill:url(#무제_그라디언트_41-19);}.cls-20{fill:url(#무제_그라디언트_41-20);}.cls-21{fill:url(#무제_그라디언트_41-21);}.cls-22{fill:url(#무제_그라디언트_41-22);}.cls-23{fill:url(#무제_그라디언트_41-23);}.cls-24{fill:url(#무제_그라디언트_41-24);}.cls-25{fill:url(#무제_그라디언트_41-25);}.cls-26{fill:url(#무제_그라디언트_41-26);}.cls-27{fill:url(#무제_그라디언트_41-27);}.cls-28{fill:url(#무제_그라디언트_41-28);}.cls-29{fill:url(#무제_그라디언트_41-29);}.cls-30{fill:url(#무제_그라디언트_41-30);}.cls-31{fill:url(#무제_그라디언트_41-31);}.cls-32{fill:url(#무제_그라디언트_41-32);}.cls-33{fill:url(#무제_그라디언트_41-33);}.cls-34{fill:url(#무제_그라디언트_41-34);}.cls-35{fill:url(#무제_그라디언트_41-35);}.cls-36{fill:url(#무제_그라디언트_41-36);}.cls-37{fill:url(#무제_그라디언트_41-37);}</style><linearGradient id="무제_그라디언트_41" x1="23.57" y1="137.38" x2="21.74" y2="135.74" gradientUnits="userSpaceOnUse"><stop offset="0" stop-color="#f0b927"/><stop offset="0.25" stop-color="#f3ec96"/><stop offset="0.62" stop-color="#d8ab4a"/><stop offset="1" stop-color="#e6c469"/></linearGradient><linearGradient id="무제_그라디언트_41-2" x1="139.05" y1="91.41" x2="125.77" y2="79.46" xlink:href="#무제_그라디언트_41"/><linearGradient id="무제_그라디언트_41-3" x1="18.78" y1="135.93" x2="17.67" y2="134.93" xlink:href="#무제_그라디언트_41"/><linearGradient id="무제_그라디언트_41-4" x1="156.77" y1="98.31" x2="152.92" y2="94.85" xlink:href="#무제_그라디언트_41"/><linearGradient id="무제_그라디언트_41-5" x1="111.74" y1="123.27" x2="100.56" y2="113.2" xlink:href="#무제_그라디언트_41"/><linearGradient id="무제_그라디언트_41-6" x1="131.3" y1="94.74" x2="127.34" y2="91.17" xlink:href="#무제_그라디언트_41"/><linearGradient id="무제_그라디언트_41-7" x1="171.11" y1="68.98" x2="161.34" y2="60.18" xlink:href="#무제_그라디언트_41"/><linearGradient id="무제_그라디언트_41-8" x1="131.66" y1="96.3" x2="127.34" y2="92.4" xlink:href="#무제_그라디언트_41"/><linearGradient id="무제_그라디언트_41-9" x1="81.93" y1="121.69" x2="78.2" y2="118.34" xlink:href="#무제_그라디언트_41"/><linearGradient id="무제_그라디언트_41-10" x1="143.04" y1="113.45" x2="125.03" y2="97.23" xlink:href="#무제_그라디언트_41"/><linearGradient id="무제_그라디언트_41-11" x1="137.23" y1="99.29" x2="133.38" y2="95.82" xlink:href="#무제_그라디언트_41"/><linearGradient id="무제_그라디언트_41-12" x1="58.37" y1="55.26" x2="47.81" y2="45.75" xlink:href="#무제_그라디언트_41"/><linearGradient id="무제_그라디언트_41-13" x1="69.64" y1="119.93" x2="52.26" y2="104.27" xlink:href="#무제_그라디언트_41"/><linearGradient id="무제_그라디언트_41-14" x1="74.02" y1="120.65" x2="55.25" y2="103.75" xlink:href="#무제_그라디언트_41"/><linearGradient id="무제_그라디언트_41-15" x1="58.22" y1="133.58" x2="56.68" y2="132.19" xlink:href="#무제_그라디언트_41"/><linearGradient id="무제_그라디언트_41-16" x1="60.38" y1="17.38" x2="51.67" y2="9.54" xlink:href="#무제_그라디언트_41"/><linearGradient id="무제_그라디언트_41-17" x1="161.79" y1="80.57" x2="155.6" y2="74.99" xlink:href="#무제_그라디언트_41"/><linearGradient id="무제_그라디언트_41-18" x1="61.63" y1="57.34" x2="46.02" y2="43.28" xlink:href="#무제_그라디언트_41"/><linearGradient id="무제_그라디언트_41-19" x1="65.16" y1="119.52" x2="48.88" y2="104.86" xlink:href="#무제_그라디언트_41"/><linearGradient id="무제_그라디언트_41-20" x1="35.06" y1="136.66" x2="32.92" y2="134.74" xlink:href="#무제_그라디언트_41"/><linearGradient id="무제_그라디언트_41-21" x1="49.6" y1="119.73" x2="36.47" y2="107.91" xlink:href="#무제_그라디언트_41"/><linearGradient id="무제_그라디언트_41-22" x1="42.11" y1="135.78" x2="40.07" y2="133.95" xlink:href="#무제_그라디언트_41"/><linearGradient id="무제_그라디언트_41-23" x1="28.11" y1="136.95" x2="26.98" y2="135.94" xlink:href="#무제_그라디언트_41"/><linearGradient id="무제_그라디언트_41-24" x1="52.95" y1="134.04" x2="51.77" y2="132.97" xlink:href="#무제_그라디언트_41"/><linearGradient id="무제_그라디언트_41-25" x1="55.6" y1="119.9" x2="40.97" y2="106.72" xlink:href="#무제_그라디언트_41"/><linearGradient id="무제_그라디언트_41-26" x1="47.94" y1="134.77" x2="46.51" y2="133.49" xlink:href="#무제_그라디언트_41"/><linearGradient id="무제_그라디언트_41-27" x1="60.73" y1="119.63" x2="45.18" y2="105.63" xlink:href="#무제_그라디언트_41"/><linearGradient id="무제_그라디언트_41-28" x1="160" y1="150.14" x2="27.25" y2="30.61" xlink:href="#무제_그라디언트_41"/><linearGradient id="무제_그라디언트_41-29" x1="96.38" y1="104.8" x2="83.98" y2="93.63" xlink:href="#무제_그라디언트_41"/><linearGradient id="무제_그라디언트_41-30" x1="50.1" y1="120.28" x2="40.15" y2="111.32" xlink:href="#무제_그라디언트_41"/><linearGradient id="무제_그라디언트_41-31" x1="57.16" y1="120.43" x2="43.93" y2="108.52" xlink:href="#무제_그라디언트_41"/><linearGradient id="무제_그라디언트_41-32" x1="60.93" y1="121.45" x2="48.29" y2="110.07" xlink:href="#무제_그라디언트_41"/><linearGradient id="무제_그라디언트_41-33" x1="57.97" y1="149.8" x2="19.07" y2="114.78" xlink:href="#무제_그라디언트_41"/><linearGradient id="무제_그라디언트_41-34" x1="73.07" y1="121.76" x2="59.25" y2="109.32" xlink:href="#무제_그라디언트_41"/><linearGradient id="무제_그라디언트_41-35" x1="70.31" y1="120.79" x2="55.2" y2="107.18" xlink:href="#무제_그라디언트_41"/><linearGradient id="무제_그라디언트_41-36" x1="115.64" y1="76.05" x2="102.81" y2="64.51" gradientTransform="translate(176.2 -41) rotate(88.3)" xlink:href="#무제_그라디언트_41"/><linearGradient id="무제_그라디언트_41-37" x1="111.16" y1="48.92" x2="96.99" y2="36.17" xlink:href="#무제_그라디언트_41"/></defs><path class="cls-1" d="M23.7,137.3l.4-.9h-.5l-2-.6-.5.8,2.5.6Z"/><path class="cls-2" d="M133.7,89.7l3.9-1.2.2.8H141c-1.1-8.6-3.9-15.2-7.1-16.1h-1.4c-3.7.9-6.9,9.3-7.6,19.9l8.9-2.9Zm2.9-4.3v-.5a1.3,1.3,0,0,0,.1-.6c0-.2.1-.4.1-.6s.1-.3.1-.5a.4.4,0,0,0,.1-.3h.1c.1.1.1.2.1.4a4.3,4.3,0,0,1,.1.5,1.3,1.3,0,0,0-.1.6,4.3,4.3,0,0,1-.1.5,1.7,1.7,0,0,0-.2.5l-.2.4h-.1v-.5Zm-1.9-1.6V82.6c.1-.4.1-.8.2-1.1s.1-.5.1-.7v0a2,2,0,0,0,.1.7v2.3c0,.4-.1.9-.1,1.2s-.1.8-.1,1.1-.1.6-.1.8v-.1a5.6,5.6,0,0,1-.1-.7V83.8Zm-5.1,6.4-.3-.5a1.8,1.8,0,0,1-.5-.7,2.2,2.2,0,0,0-.5-.8l-.3-1-.3-.8a1.3,1.3,0,0,1-.1-.6v0l.3.5a5.9,5.9,0,0,1,.4.8l.4.8a3.6,3.6,0,0,1,.4.9l.3.8a1.4,1.4,0,0,1,.2.6v.2Zm2.6-1.3-.4-.9a11.2,11.2,0,0,0-.5-1.3,8.8,8.8,0,0,0-.5-1.5c-.1-.5-.3-1-.4-1.5a9.3,9.3,0,0,1-.4-1.3,8.7,8.7,0,0,0-.2-1V81l.2.4a3.9,3.9,0,0,1,.4.9c.2.4.3.8.5,1.3a6.6,6.6,0,0,1,.5,1.5c.2.5.3,1,.5,1.5l.3,1.3a5.8,5.8,0,0,1,.2,1v.4Zm1.2-1a.6.6,0,0,1-.1.4v-.4c-.1-.3-.1-.7-.2-1.2s-.1-1.1-.2-1.7a12.3,12.3,0,0,0-.2-1.9v-2a10.3,10.3,0,0,1-.1-1.7,4.1,4.1,0,0,1,.1-1.2v0c0,.3.1.7.1,1.2a8.8,8.8,0,0,1,.2,1.7c.1.6.1,1.3.2,1.9a12.7,12.7,0,0,0,.1,2v2.9Z"/><path class="cls-3" d="M19.2,135.2l-1.4-.4-.6.8,1.5.4Z"/><path class="cls-4" d="M156.8,96.6c0-1.8-.9-3.3-2-3.3s-1.9,1.5-1.9,3.3.9,3.2,1.9,3.2S156.8,98.3,156.8,96.6Zm-2.9-.4c0-1.4.4-2.6,1-2.6s1.1,1.2,1.1,2.6-.4,2.7-1.1,2.7S153.9,97.7,153.9,96.2Z"/><path class="cls-5" d="M106.2,107.6c-1.7,0-3.5,4.4-3.5,10.6s1.8,10.7,3.5,10.7,3.4-4.4,3.4-10.7S107.8,107.6,106.2,107.6ZM105,120.1v.3l-.2.5v.4l-.3.5c0,.1-.1.2-.2.3l-.2.3h-.1v-.3a.9.9,0,0,0,.1-.5l.2-.5c.1-.1.1-.3.2-.4l.3-.4.2-.2h.1Zm1.8,6.3v-.2l-.3-.5a3.1,3.1,0,0,0-.2-.8c0-.3-.1-.6-.1-.9v-.9a2.2,2.2,0,0,1,0-.8,4.3,4.3,0,0,1,.1-.5v0a4.3,4.3,0,0,1,.1.5c0,.3.1.5.1.8s.1.6.1.9.1.6.1.9v.7c.1.3,0,.5.1.6Zm1-5.7a.5.5,0,0,1,.2.4l.2.4v1.1h-.1l-.2-.2c0-.1-.1-.2-.2-.4s-.1-.2-.1-.4a.6.6,0,0,1-.1-.4.8.8,0,0,1-.1-.4v-.3h.1A.2.2,0,0,1,107.8,120.7Zm-1.4-1c-.7,0-1.3-1.4-1.3-3s.6-2.9,1.3-2.9,1.2,1.3,1.2,2.9S107.1,119.7,106.4,119.7Z"/><path class="cls-6" d="M134.1,91l-9.3,3a4.1,4.1,0,0,1-.1,1.1l9.5-3.6Z"/><path class="cls-7" d="M161.3,68l9.7.7.5-.2a.5.5,0,0,0,.3-.5V61.8a.7.7,0,0,0-.7-.6l-9.7-.7a.6.6,0,0,0-.5.2.8.8,0,0,0-.2.5v6.1A.7.7,0,0,0,161.3,68Z"/><path class="cls-8" d="M134.5,92.4l-9.8,2.9v1.2l10-3.5Z"/><path class="cls-9" d="M80.1,116.7c-.8,0-1.6,1.3-1.6,3.3s.8,3.4,1.6,3.4,1.5-1.4,1.5-3.4S80.8,116.7,80.1,116.7Zm-.1,5.8c-.6,0-1.1-1.1-1.1-2.5s.5-2.4,1.1-2.4,1.1,1.1,1.1,2.4S80.6,122.5,80,122.5Z"/><path class="cls-10" d="M139.7,92.6,136,93.9c1,.4,1.8,1.9,1.8,3.7s-1.1,3.7-2.5,3.7-2.5-1.6-2.5-3.7a4.7,4.7,0,0,1,1.2-3.3l-9.3,3.3v.3c0,1.1,0,2.3.1,3.4l.7-.4,1.3-.7,1.4-.8,1.5-.6,1.3-.6,1-.3h.3l-.3.2-.9.5-1.2.7-1.5.7-1.4.7-1.3.5-.9.3c.6,12,4.2,21.4,8.3,21.4s8.4-11.4,8.4-24.9a47,47,0,0,0-.2-5.4Zm-11.9,15.2-.2.3v-.4a2.3,2.3,0,0,1,.3-.9,13.9,13.9,0,0,1,.6-1.3,9.1,9.1,0,0,1,.7-1.4l.9-1.4a4.4,4.4,0,0,1,.8-1.1,8.1,8.1,0,0,1,.6-.8l.3-.3-.2.3a4.1,4.1,0,0,1-.5.9,7.5,7.5,0,0,1-.7,1.2c-.2.5-.5,1-.7,1.4l-.8,1.4-.7,1.2Zm5.5-5.5-.5,1.7c-.2.7-.4,1.6-.6,2.5a21.3,21.3,0,0,0-.8,2.7c-.3.9-.6,1.9-.9,2.7l-.8,2.4L129,116a3.2,3.2,0,0,1-.2.6v-.7l.5-1.7q.3-1,.6-2.4a22.9,22.9,0,0,0,.8-2.8,14.3,14.3,0,0,0,.9-2.7l.9-2.4a13.8,13.8,0,0,1,.6-1.6l.2-.6A2.8,2.8,0,0,1,133.3,102.3Zm1.5,5a27.1,27.1,0,0,0-.1,2.9c-.1.9-.1,1.9-.2,2.8s-.1,1.8-.1,2.5-.1,1.3-.2,1.8a1.5,1.5,0,0,1-.1.6V113a26.2,26.2,0,0,1,.1-2.8c0-1,.1-2,.1-2.9a18.1,18.1,0,0,1,.2-2.5c0-.7.1-1.3.1-1.7v0c0,.4.1,1,.1,1.7Zm3.7,5.8a11.2,11.2,0,0,0-.5-1.3,18,18,0,0,0-.5-1.9l-.5-2.1c-.1-.7-.3-1.5-.4-2.2l-.3-1.9a6.6,6.6,0,0,1-.1-1.3,1.2,1.2,0,0,0-.1-.5l.2.5a8.6,8.6,0,0,1,.3,1.3,16.7,16.7,0,0,0,.5,1.8c.1.7.3,1.5.4,2.2l.5,2.1.3,1.9a13,13,0,0,0,.3,1.3v.1Zm1.3-8.4q-.2,0-.3-.3l-.5-.5-.4-.5-.4-.6-.4-.6a.8.8,0,0,1-.2-.4h.1l.3.2c.2.2.4.3.5.5l.5.5a4.3,4.3,0,0,0,.4.7l.3.5a1.7,1.7,0,0,1,.2.5v0Zm.6-3.1h-.3l-.4-.2-.4-.3-.4-.4q-.3-.1-.3-.3l-.2-.3h.3l.4.3.5.3.4.3.3.4.2.2v.2Zm.6-6-.3.2-.5.2-.5.2h-1.1l.4-.2.6-.2H141Z"/><path class="cls-11" d="M133.4,97.6c0,1.7.9,3.2,1.9,3.2s1.9-1.5,1.9-3.2-.9-3.3-1.9-3.3S133.4,95.8,133.4,97.6Zm2-3c.6,0,1.1,1.2,1.1,2.6s-.5,2.7-1.1,2.7-1.1-1.2-1.1-2.7S134.8,94.6,135.4,94.6Z"/><path class="cls-12" d="M53.1,57.9c3.8,0,6.8-3.3,6.8-7.4s-3-7.4-6.8-7.4-6.8,3.3-6.8,7.4S49.3,57.9,53.1,57.9Zm-.9-11.3,1.1-2.1-.6,2.1A4,4,0,0,1,55,47.8l1.6-1-1.4,1.3a3.4,3.4,0,0,1,.7,2.2,3.2,3.2,0,0,1-.5,1.9h.1L57,54.5l-1.8-1.9A3.6,3.6,0,0,1,52.3,54a3.8,3.8,0,0,1-2.4-.8,3.2,3.2,0,0,0,1.4.3A2.7,2.7,0,0,0,54,50.7a2.8,2.8,0,0,0-2.7-2.8,2.8,2.8,0,0,0-2.7,1.9A3.7,3.7,0,0,1,52.2,46.6Z"/><path class="cls-13" d="M58.7,132.1,65,91.4H63.8l-7.4,40.8Z"/><polygon class="cls-14" points="63.1 132.7 67.6 91.3 66.4 91.4 61.5 132.9 63.1 132.7"/><path class="cls-15" d="M56.2,133.5l2.3-.2.2-1.1-2.3.3Z"/><path class="cls-16" d="M61.8,13.5a5.8,5.8,0,1,0-11.5,0,5.8,5.8,0,1,0,11.5,0Zm-2-3.9a9.3,9.3,0,0,1-.1,3.1s0-2.1-2.8-4.6A6.1,6.1,0,0,1,59.8,9.6Zm-8.1,5.5a14.3,14.3,0,0,1,3.7-1.9,4.9,4.9,0,0,0-4.4,0,6.4,6.4,0,0,1,2.5-4.6,6.3,6.3,0,0,1,3.3,1.6A4.6,4.6,0,0,0,56,8.3a4.5,4.5,0,0,1,1.2,2.5,2.6,2.6,0,0,1,.5,1c-.9,1.2.2,2,1.3,2.1a2.9,2.9,0,0,0,0-1.3,6.4,6.4,0,0,0-.6-1.8,9.8,9.8,0,0,1,.8,1.8,2.8,2.8,0,0,1,.3,1.3l.5-.2a3.7,3.7,0,0,1-.5,1.1l1.2,1.5-1.6-1.2-.7.4a8.8,8.8,0,0,0,0,2.8,8.6,8.6,0,0,1-.4-2.8,2.1,2.1,0,0,1-2.2-1.9A15.6,15.6,0,0,0,51.7,15.1Zm.5,1.8s1.3-.2,3.2-2.5a2.8,2.8,0,0,0,2,1.3,8,8,0,0,0-.3,3S53.9,19.1,52.2,16.9Z"/><path class="cls-17" d="M158.7,73.5a4.3,4.3,0,1,0,4.1,4.3A4.2,4.2,0,0,0,158.7,73.5Zm0,8.2a3.9,3.9,0,0,1-3.8-3.9,3.8,3.8,0,1,1,7.6,0A3.9,3.9,0,0,1,158.7,81.7Z"/><path class="cls-18" d="M46.7,58.1a9.7,9.7,0,0,0,3.6,2.3,9.3,9.3,0,0,0,4,.6,9.9,9.9,0,0,0,7.1-3.5,10.7,10.7,0,0,0,2.8-7.2,10.9,10.9,0,0,0-2.8-7.2,10.3,10.3,0,0,0-7.1-3.5,11.2,11.2,0,0,0-4,.7,9.5,9.5,0,0,0-3.6,2.2,12.6,12.6,0,0,0-2.4,3.6,12,12,0,0,0-.8,4.2,11.6,11.6,0,0,0,.8,4.2A11.3,11.3,0,0,0,46.7,58.1Zm6.4-15.6c4,0,7.4,3.6,7.4,8s-3.4,8-7.4,8-7.4-3.6-7.4-8S49,42.5,53.1,42.5Z"/><path class="cls-19" d="M52,132.8l1.4-.2,8.9-41H60.8l-9.1,41.2Z"/><polygon class="cls-20" points="36.1 135 33.1 135.4 32.2 135.5 31.9 136.3 35.7 135.9 36.1 135"/><polygon class="cls-21" points="36.3 134.5 52.8 92 50.8 92.1 32.5 134.9 33.1 134.9 36.3 134.5"/><path class="cls-22" d="M43,134.2h-.4l-3.1.3-.3.9,3.5-.4Z"/><polygon class="cls-23" points="28.7 135.9 26.8 136.1 26.4 137 28.3 136.8 28.7 135.9"/><path class="cls-24" d="M53.3,132.9l-1.2.2h-.5l-.2,1,1.7-.2Z"/><path class="cls-25" d="M42.6,133.8h.6l13-41.9H54.3L39.6,134.1Z"/><path class="cls-26" d="M48.5,133.5l-2.3.3-.2.9,2.2-.2Z"/><path class="cls-27" d="M48.6,133.1,59.4,91.7H57.7L46.3,133.4Z"/><path class="cls-28" d="M173.3,43l5.4-2.6c-5.4-7.4-22.3-11.5-22.3-11.5-14.1-4-19.3-5.2-19.3-5.2L133,22.6h-.6a10.2,10.2,0,0,0-4.5-4.2V17.1H120v1.2a9.6,9.6,0,0,0-6,8.8h0l-1.9.5h-.2V24a8.6,8.6,0,0,0-5-7.9V14.3H100V16a8.7,8.7,0,0,0-5.3,8v3.8H93.3c0-.3.1-.6.1-1a6.2,6.2,0,0,0-1.8-4.3,1.2,1.2,0,0,1-.4-1.1,6.9,6.9,0,0,0,.2-1.3,4.3,4.3,0,0,0-4.3-4.2,4.3,4.3,0,0,0-4,4.5v.4a1.3,1.3,0,0,1-.4,1.2,6,6,0,0,0-1.3,8.3l-5.5-1V2a1.1,1.1,0,0,0-.6-1C73.7.3,69.9-.8,64.1,1a.7.7,0,0,0-.5.7c0,2.8-.1,5.8-.1,5.8L62.3,6.3V.7a.6.6,0,0,0-.6-.5H54.9a.6.6,0,0,0-.6.5V6.3a7.9,7.9,0,0,0-5,7.2,7.9,7.9,0,0,0,2.6,5.8l-.7,4H47.9v1.8h2.9v2.2C42,30.1,35.4,38.5,34.4,48.6H30.8a1.6,1.6,0,0,0-1.6,1.6v4.6a1.6,1.6,0,0,0,1.6,1.5h3.9a25.8,25.8,0,0,0,6.4,13v.3l-5.7,21H30.9v1.9h-8l-1,1.8L3.3,131.1l-1.2-.6L0,134.3l22.6,6.3,52.8-6.1c3.7,4.3,8.2.1,9-2.2l18.4-4.1c.8,1.6,1.9,2.6,3.1,2.6s2.8-1.7,3.6-4.2l19.4-4.5a5.3,5.3,0,0,0,4.2,2.4c2.4,0,4.4-1.9,5.6-4.6l12.1-2.9c.8,1.9,1.9,3,3.2,3s3-1.8,3.8-4.6l7.6-1.8c.8,1.8,1.9,2.9,3.1,2.9s3-1.8,3.8-4.5l2.2-.5c.6,1.7,1.5,2.7,2.4,2.7s2.2-1.5,2.8-3.9l3.6-.9c.6,1.8,1.5,3,2.5,3s2.2-1.7,2.8-4.2l1-.2c.6,1.6,1.5,2.7,2.4,2.7s2.2-1.6,2.8-4l5.4-1.2.3-40,1.3-6L173.3,48.4ZM31.7,54a1.9,1.9,0,0,1-1.8-1.9,1.8,1.8,0,1,1,3.6,0A1.9,1.9,0,0,1,31.7,54ZM170.9,40.2l-4.5-.9-4.5-1.1L157.4,37h-.2l-3.6-3.1-1.7-1.6-1.8-1.5a13.2,13.2,0,0,1,2,1.2l1.9,1.4,3.7,2.8,4.5,1.1,4.4,1.1,4.5,1.3,4.4,1.4ZM159.4,57.3l3.1.4,3.1.3,3.2.4,3.1.5-3.1-.2-3.2-.3-3.1-.2-2.9-.3c0,1.9,0,3.8-.1,5.6s-.1,4-.2,6c-.1-2-.1-4-.2-6V57.3Zm-.8,12s-.3-30-.3-30.3-.2,19-.2,19l-1.6,12.1s.4-31.8.4-32.2l2.5.7Zm2-30.2c0,1.3-.1,2.6-.1,3.9v4.3l-.3,8.6c-.1-2.9-.1-5.7-.1-8.6V43c0-1.4,0-2.8.1-4.2v-.4h.3l3.1.8h.2v.2c0,1.7-.1,3.4-.2,5.1s-.1,3.4-.2,5.1c0-1.7-.1-3.4-.1-5.1V39.7Zm1.7,1.3L162,55.6h-1.3l.4-15.4Zm2.6-.5c0,1.3,0,2.7-.1,4v4.3c-.1,2.8-.1,5.7-.3,8.5-.1-2.8-.1-5.7-.1-8.5V43.9c.1-1.4.1-2.9.1-4.3v-.3h.3l3.1.7h.2v.2c0,1.7-.1,3.4-.1,5.1l-.3,5.1V45.4c-.1-1.6-.1-3.2-.1-4.9Zm1.8,1.3-.3,15.3h-1.3l.4-15.3Zm2.4-.4c0,1.3,0,2.6-.1,3.9V49c0,2.9-.1,5.7-.3,8.6-.1-2.9-.1-5.7-.1-8.6V44.7c.1-1.4.1-2.8.1-4.3v-.3h.3l3.1.7h.2v.2c0,1.7-.1,3.4-.1,5.1l-.3,5.1V46.3c-.1-1.7-.1-3.3-.1-4.9Zm1.8,1.3-.3,15.2h-1.3l.4-15.4ZM160.2,61.2a1,1,0,0,1,.4-.9.8.8,0,0,1,.9-.3l9.7.6a1.3,1.3,0,0,1,1.1,1.2V68a1.5,1.5,0,0,1-.4.9,1.1,1.1,0,0,1-.8.3H171l-9.7-.7a1.1,1.1,0,0,1-1.1-1.2ZM147.9,69H147v0h-4.7l-5.5-.2-11.2-.3-11.1-.4-11.2-.7,11.2.2,11.1.4,11.2.4,5.5.3,4.7.3v-.7h-1l-5.5-.2-11.2-.3-11.1-.5c-3.7-.1-7.5-.3-11.2-.6l11.2.2,11.1.4,9.1.3a19.8,19.8,0,0,0,.3-3.5,21.4,21.4,0,0,1,.1,3.6h1.3l.3-2.3a16.4,16.4,0,0,1,.2,2.3h1.2a5.5,5.5,0,0,0,.1-1.8,5.8,5.8,0,0,1,.4,1.8l3.8.2h1a26.3,26.3,0,0,0-.8-7.4h-8.7l-11.2,5.6a4.1,4.1,0,0,1-1.6.3h-.2l-18.5-1.1a3.6,3.6,0,0,1-3.5-3.9v-.3a.8.8,0,0,1,.8-.7.9.9,0,0,1,.8.8v.3a2.1,2.1,0,0,0,2.1,2.2l11.1.7.8-1.4-.4,1.4h.8l1-2.4-.6,2.4h.7l1.4-5.1-.9,5.2,4.6.2a1.2,1.2,0,0,0,1-.2l11.2-5.5,1.4-.3h11a.8.8,0,0,1,.8.8.9.9,0,0,1-.8.8h-.5a27.4,27.4,0,0,1,.3,7,27.4,27.4,0,0,0-.8-7h-1.5a22.9,22.9,0,0,1,.3,7.4l4.5.2h-4.5c0,.2-.1.5-.1.7ZM106.3,86.5H84.1v.8s-1-.3-1-.1V85.1h1l.2-3.5.2,3.5h.1l.2-3.5.2,3.5h.1l.2-3.5.3,3.5h0l.3-3.5.2,3.5h.1l.2-3.5.2,3.5h.1l.2-3.5.2,3.5h.1l.2-3.5.2,3.5h.1l.2-3.5.3,3.5h.1l.2-3.5.2,3.5h.1l.2-3.5.2,3.5h.1l.2-3.5.2,3.5h.1l.2-3.5.2,3.5h.1l.3-3.5.2,3.5h.1l.2-3.5.2,3.5h.1l.2-3.5.2,3.5h.1l.2-3.5.2,3.5h.1l.2-3.5.3,3.5h0l.3-3.5.2,3.5h.1l.2-3.5.2,3.5H94l.2-3.5.2,3.5h.1l.2-3.5.2,3.5H95l.2-3.5.3,3.5h0l.3-3.5.2,3.5h.1l.2-3.5.2,3.5h.6V80.3h1.2v4h7.1l.2-3.5.2,3.5h.5Zm0,7a2.1,2.1,0,0,0,.4.6l.4.9.3,1.1a3.6,3.6,0,0,1,.2,1.1v.9c0,.3,0,.6-.1.7v0a1.5,1.5,0,0,0-.1-.6,4.4,4.4,0,0,0-.2-1,3.6,3.6,0,0,0-.2-1,4.3,4.3,0,0,1-.2-1.1l-.3-.9c-.1-.2-.1-.5-.2-.6v-.3Zm-.2,4.6c0,.3,0,.6-.1.7v0c0-.1-.1-.4-.1-.6a4.4,4.4,0,0,0-.2-1,3.6,3.6,0,0,0-.2-1l-.3-1.1c-.1-.3-.1-.6-.2-.9a2.1,2.1,0,0,1-.2-.6v-.3l.2.2a2.1,2.1,0,0,0,.4.6l.4.9.3,1.1c.1.3.1.7.2,1.1Zm-1.5,0a5.6,5.6,0,0,1-.1.7v0c0-.1-.1-.4-.1-.6a4.4,4.4,0,0,0-.2-1,3.6,3.6,0,0,0-.2-1l-.3-1.1c-.1-.3-.1-.6-.2-.9a2.1,2.1,0,0,1-.2-.6v-.3l.2.2.3.6.5.9.3,1.1c.1.3.1.7.2,1.1Zm-1.5,0a5.6,5.6,0,0,1-.1.7v0c0-.1-.1-.4-.1-.6s-.1-.6-.2-1-.1-.7-.2-1l-.3-1.1a2.9,2.9,0,0,1-.2-.9,2.1,2.1,0,0,1-.2-.6v-.3l.2.2.3.6a15.5,15.5,0,0,1,.8,2c.1.3.1.7.2,1.1Zm-1.5,0a5.6,5.6,0,0,1-.1.7v0c0-.1-.1-.4-.1-.6a3,3,0,0,1-.2-1c-.1-.3-.1-.7-.2-1l-.3-1.1-.3-.9c0-.2-.1-.5-.1-.6v-.1l.4.6a15.5,15.5,0,0,1,.8,2c0,.3.1.7.1,1.1A3.1,3.1,0,0,1,101.6,98.1Zm-3.2,1.1c0,5.3-3.7,9.6-8.2,9.6a7.4,7.4,0,0,1-5.4-2.3,15,15,0,0,1,1.6,3.4c.3.9.5,1.8.8,2.7s.3,1.8.5,2.7c-.3-.9-.5-1.8-.8-2.6l-.9-2.6a20.2,20.2,0,0,0-2.6-4.8,11.4,11.4,0,0,0-1.9-1.9,4.6,4.6,0,0,0-2.5-.8,3.3,3.3,0,0,0-2.4,1,8.6,8.6,0,0,0-1.5,2.2,5.6,5.6,0,0,1,1.3-2.4,3.7,3.7,0,0,1,2.6-1.2,4.3,4.3,0,0,1,2.7.8,6.4,6.4,0,0,1,1.5,1.3A10.7,10.7,0,0,1,82,99.2c0-4.8,3-8.8,7-9.5h-.9a8.1,8.1,0,0,1,3.5-.7,8.5,8.5,0,0,1,8.2,6.7l-1.7.8A10.9,10.9,0,0,1,98.4,99.2Zm-7.2,13.5c-.2-1-.3-2-.4-3h.5C91.2,110.7,91.2,111.7,91.2,112.7Zm.4,12.4h.9l-.2.2-.7.2-.9.3-1,.3-1.1.3H87l.6-.3.9-.3,1.1-.3,1-.2Zm-4.3,2.3,1.3-.4,1.5-.3,1.5-.3,1.3-.2h1l-.9.3-1.3.4-1.5.3-1.5.3-1.3.2h-1Zm5.3-18h.5a12.3,12.3,0,0,0-.2,1.9A5.8,5.8,0,0,1,92.6,109.4Zm-16.7,18,.6-1,.6-1,.6-.8.4-.6.2-.2v.2a6.4,6.4,0,0,0-.2.7,9.3,9.3,0,0,0-.5,1,9.3,9.3,0,0,1-.5,1l-.7,1-.6.8-.4.6-.2.2V129a1.1,1.1,0,0,1,.3-.6A10.4,10.4,0,0,0,75.9,127.4Zm-.3-3.6v-.5l.3-.3.3-.4.3-.4.4-.2.3-.2h.1l-.2.3-.2.4-.3.3-.4.4-.4.2-.2.2Zm7.3,1.9c.1.1.1.3.2.4v.3H83l-.2-.2-.3-.4a.5.5,0,0,1-.2-.4.8.8,0,0,1-.2-.5.6.6,0,0,1-.1-.4.4.4,0,0,1-.1-.3H82l.2.2.3.3.2.5Zm0-4.1h.3l.3.2.2.3c.1.2.2.3.2.4a.6.6,0,0,1,.1.4v.2h-.1c0-.1-.1-.1-.2-.2s-.1-.2-.2-.3l-.2-.3-.2-.3V122a.4.4,0,0,1-.1-.3Zm-.6,7.7h-.1l-.3-.5-.4-.7-.3-.9-.3-.9c-.1-.2-.1-.5-.2-.7s-.1-.4-.1-.6v0l.3.5.3.7.4.8.3.9c.1.3.1.5.2.8a.7.7,0,0,0,.1.5Zm-2.2-5.4c-1.2,0-2.1-1.7-2.1-3.9s.9-3.9,2.1-3.9,2.1,1.7,2.1,3.9S81.2,123.9,80.1,123.9Zm.2,8.1v.6a1.4,1.4,0,0,1-.2-.6c-.1-.2-.1-.5-.2-.8s-.1-.6-.1-1v-1.8c0-.2.1-.4.1-.6v0c0,.2.1.4.1.6s.1.5.1.8a3.4,3.4,0,0,1,.1,1,2.8,2.8,0,0,1,.1.9Zm-.8-7v.3a2.9,2.9,0,0,1-.2.9,5,5,0,0,1-.2,1.2,10.3,10.3,0,0,1-.4,1.4l-.3,1.3a8.3,8.3,0,0,1-.4,1.2,3.4,3.4,0,0,1-.3.8v0c0-.2.1-.5.1-.9s.1-.7.2-1.2l.3-1.4a6.5,6.5,0,0,0,.4-1.3l.5-1.2.3-.8Zm-3-33.8H77v2Zm1.5-.3h.6l-.2,2.2Zm1.4.7h.5l-.3,1.2Zm.9-32.2a43.6,43.6,0,0,1,5.1.3l5,.5,5.1.5,2.5.4,2.5.4L98,61.3l-2.6-.2-5-.4-5.1-.6Zm2.1,13.3c0,1.8-.1,3.5-.1,5.3s-.1,3.6-.2,5.3l-.3,5.4c-.1-1.8-.1-3.6-.1-5.4s0-3.5.1-5.3.1-3.5.1-5.3l.2-2.7c.1-.9.1-1.8.2-2.6v5.3ZM80.5,47.8h.7a1.7,1.7,0,0,1,.1.7H79.9a1.3,1.3,0,0,0-.1-.6Zm-.8-1a2.4,2.4,0,0,1-.2-.8h1.4a2.9,2.9,0,0,0,.2.9H79.7ZM112,55.7l10.5,1.1h.1V57c-.1,1-.3,2.1-.5,3.1s-.5,2.1-.8,3.1a59.7,59.7,0,0,0,1-6.1L112,56.2l-10.5-1.1L91,54,80.5,52.8l10.5.9,10.5.9Zm-4-3.8,1.6.2.3,1.7h-1.3Zm2,.2,1.8.2.3,1.7h-1.4A13.4,13.4,0,0,0,110,52.1Zm4.2,2.1h-1.3a14.2,14.2,0,0,0-.8-1.8h1.8A5.7,5.7,0,0,1,114.2,54.2Zm-.1-1.7,5.9.5a13.4,13.4,0,0,1,.7,1.8l-5.7-.5A5.1,5.1,0,0,0,114.1,52.5Zm-8.6,6.1-8.3-.7L88.8,57l-8.3-1,8.4.6,8.3.8,8.3.8,4.2.5,4.2.5-4.2-.2Zm1.7,1.8-3.4-.3-3.3-.2-6.7-.6-6.7-.8-6.7-.8,6.7.4,6.7.7,6.7.7,3.4.4Zm3.3-3-9.9-.9-10-1-10-1.2,10,.8,10,.8,10,1.1,5,.5,4.9.6-5-.3ZM82.3,49.7h1.3c.1.5.1,1,.2,1.6H82.6Zm2.2.2h1.3c.1.5.1,1,.2,1.6H84.8Zm2.1.2H88c0,.5.1,1,.1,1.6H87A7.5,7.5,0,0,0,86.6,50.1Zm2.2.2h1.4c0,.5.1,1,.1,1.6H89.1Zm1.9-.6-.3-1,1.6.2a2.9,2.9,0,0,1,.2.9Zm1.6.9c.1.5.1,1,.2,1.6H91.3a7.5,7.5,0,0,0-.4-1.6Zm2.7-.4-.3-1.1h1.6l.3,1.1Zm1.6.8a7.8,7.8,0,0,1,.2,1.6H95.6a10.5,10.5,0,0,0-.4-1.7Zm-1.9,1.4H93.5a10.5,10.5,0,0,1-.4-1.7l1.4.2C94.6,51.3,94.6,51.8,94.7,52.4Zm-1.8-2.5a4.2,4.2,0,0,0-.4-1h1.7c.1.4.1.7.2,1.1Zm8.7,1.5h1.6a9.9,9.9,0,0,0,.2,1.7h-1.3A8.4,8.4,0,0,0,101.6,51.4Zm2.1.2h1.6a9.9,9.9,0,0,1,.2,1.7h-1.2Zm2.7,1.9a8.4,8.4,0,0,0-.5-1.7h1.6a9.9,9.9,0,0,1,.2,1.7Zm-.7-2.2A8.3,8.3,0,0,0,105,50h2a10.3,10.3,0,0,1,.4,1.4Zm-.5,0-1.6-.2-.6-1.3,1.9.2Zm-2.1-.2-1.6-.2-.6-1.3,1.9.2Zm-2.1.2c.1.6.1,1.1.2,1.7H99.9a10.5,10.5,0,0,0-.4-1.7H101Zm-.8-.6h-.9c-.1-.4-.3-.8-.4-1.2l1.7.2.3,1.2ZM99,52.8H97.8c-.1-.6-.3-1.1-.4-1.7h1.4A9.9,9.9,0,0,1,99,52.8Zm-1.8-2.4a7.6,7.6,0,0,1-.4-1.1h1.7a5,5,0,0,1,.2,1.2Zm-.7-1.7a6.1,6.1,0,0,0-.5-1.2h2c.1.5.3.9.4,1.3Zm-.3,0-1.8-.2a6.1,6.1,0,0,0-.5-1.2h2Zm-2.1-.3-1.8-.2c-.1-.3-.3-.7-.4-1.1l1.9.2Zm-2.2-.2L90.2,48c-.1-.4-.3-.7-.4-1.1l1.8.2Zm-2,.5c0,.3.1.6.1.9h-.3l-1.1-.2-.3-.9ZM88,47.8l-.3-1.1,1.8.2a3.6,3.6,0,0,1,.2,1.1Zm-.3.7c.1.3.1.6.2.8H86.4a2.9,2.9,0,0,1-.2-.9Zm-1.8-1-.3-1,1.7.2.3,1Zm-.2,1.6H84.2a1.9,1.9,0,0,0-.2-.7h1.6C85.6,48.6,85.7,48.8,85.7,49.1Zm-1.9-1.8-.3-1h1.7c.1.3.1.6.2,1Zm-.3,1.5H82.1a2.5,2.5,0,0,1-.2-.7h1.5C83.4,48.3,83.5,48.6,83.5,48.8ZM81.6,47l-.3-.9,1.7.2a2.9,2.9,0,0,1,.2.9Zm-1.2,2.5h1.1c0,.5.1,1,.1,1.6L80.2,51s0-.5-.1-1.5ZM83.1,79h23.1v1.1H83.1Zm23.1-.6H83.1V77.3h23.1ZM85.1,77l.7-.9h18.6l.8.9Zm10-2.9h-.5V71a1.3,1.3,0,0,0-.6-1l-7.7-4.5.2-.4,7.7,4.4a1.6,1.6,0,0,1,.9,1.5ZM87.7,63.7l-4.1-1.9,15.7,1.4,3.4,1.8Zm23.1,4.7,11.1.3,11.2.4,5.5.3,5.6.3H133l-11.1-.4-11.2-.4-11.1-.6Zm34.4-15.9a20.3,20.3,0,0,1,1,4.9l-.6-2.4a22.5,22.5,0,0,0-.8-2.4,31,31,0,0,0-2.1-4.5l-.6-1.1-.6-1.1c-.4-.8-.9-1.4-1.4-2.2a24.3,24.3,0,0,0-1.4-2c-.5-.7-1-1.4-1.4-2.1l1.6,1.9,1.6,2a38.7,38.7,0,0,1,2.7,4.3A51.1,51.1,0,0,1,145.2,52.5Zm-.3-10.3a19.4,19.4,0,0,0-2.1-2.9,31.9,31.9,0,0,0-2.6-2.6,36.4,36.4,0,0,0-6.3-3.8,20.2,20.2,0,0,1,6.8,3.2,17.1,17.1,0,0,1,5.1,5.6,18.6,18.6,0,0,1,2.4,7.2,31.3,31.3,0,0,1-.1,7.5c-.1-1.2-.1-2.5-.2-3.7s-.3-2.4-.5-3.6A23.8,23.8,0,0,0,144.9,42.2Zm-6.4,1.2a37.4,37.4,0,0,1,2.7,4.2,27.6,27.6,0,0,1,2,4.7,17.1,17.1,0,0,1,1,4.9,20.5,20.5,0,0,0-.5-2.4l-.9-2.4a45.4,45.4,0,0,0-2.1-4.5l-.5-1.1-.7-1.1-1.3-2.1c-.5-.7-1-1.4-1.4-2.1l-1.5-2,1.7,1.8ZM125.9,62.8l.3-.6,2.7-1.7-2.2.8,1.8-3.4,14.2.6h-6.1L125,64.5l.2-.5,5.4-3.2Zm10.7-19.6a38.7,38.7,0,0,1,2.7,4.3,26.7,26.7,0,0,1,2,4.6,21.1,21.1,0,0,1,1,5,11.4,11.4,0,0,0-.6-2.5,20.9,20.9,0,0,0-.8-2.3,38.2,38.2,0,0,0-2.1-4.6l-.6-1.1-.6-1a16.4,16.4,0,0,0-1.4-2.2c-.4-.7-.9-1.4-1.4-2.1a14.3,14.3,0,0,1-1.4-2l1.6,1.9Zm-2-.2a38.7,38.7,0,0,1,2.7,4.3,27.6,27.6,0,0,1,2,4.7,13.8,13.8,0,0,1,1,4.9,20.5,20.5,0,0,0-.5-2.4c-.3-.8-.5-1.6-.8-2.4l-2.1-4.5-.6-1.1-.7-1.1-1.3-2.1-1.4-2.1-1.5-2.1,1.7,1.9Zm-1.9-.1a31.2,31.2,0,0,1,2.7,4.3,26.7,26.7,0,0,1,2,4.6,21.1,21.1,0,0,1,1,5,10.2,10.2,0,0,0-.6-2.5A15.5,15.5,0,0,0,137,52a38.2,38.2,0,0,0-2.1-4.6l-.6-1.1-.6-1.1-1.3-2.1L130.9,41c-.4-.7-1-1.3-1.4-2s1.1,1.2,1.6,1.9A15.6,15.6,0,0,1,132.7,42.9Zm-2-.2a38.7,38.7,0,0,1,2.7,4.3,24.6,24.6,0,0,1,2,4.7,16.6,16.6,0,0,1,1.1,4.9l-.6-2.4c-.3-.8-.5-1.6-.8-2.4L133,47.2l-.6-1.1-.7-1c-.4-.8-.9-1.4-1.3-2.2a24.3,24.3,0,0,0-1.4-2l-1.5-2.1,1.7,1.9Zm-1.9-.2a38.7,38.7,0,0,1,2.7,4.3,27.6,27.6,0,0,1,2,4.7,21.3,21.3,0,0,1,1,4.9,10.5,10.5,0,0,0-.6-2.4,22.5,22.5,0,0,0-.8-2.4,45.4,45.4,0,0,0-2.1-4.5l-.6-1.1-.6-1.1-1.3-2.1L127,40.7a24.3,24.3,0,0,0-1.4-2l1.7,1.8Zm-2-.1a38.7,38.7,0,0,1,2.7,4.3,26.7,26.7,0,0,1,2,4.6,17.2,17.2,0,0,1,1.1,5l-.6-2.5c-.3-.8-.5-1.6-.8-2.3s-1.4-3.1-2.1-4.6l-.6-1.1-.7-1.1-1.3-2.1-1.4-2.1-1.5-2,1.7,1.9C125.8,41.1,126.4,41.7,126.8,42.4Zm-1.9-.2a38.7,38.7,0,0,1,2.7,4.3,27.6,27.6,0,0,1,2,4.7,16.4,16.4,0,0,1,1,4.9,10.5,10.5,0,0,0-.6-2.4,22.5,22.5,0,0,0-.8-2.4,36.8,36.8,0,0,0-2.1-4.5l-.6-1.1-.6-1.1-1.3-2.1c-.5-.8-1-1.4-1.4-2.1l-1.5-2.1a15.4,15.4,0,0,0,1.7,1.9Zm-1.9-.1a44.5,44.5,0,0,1,2.6,4.3,38.2,38.2,0,0,1,2.1,4.6,21.1,21.1,0,0,1,1,5l-.6-2.5a22.5,22.5,0,0,0-.8-2.4,45.4,45.4,0,0,0-2.1-4.5l-.6-1.1-.7-1.1a23.9,23.9,0,0,0-1.3-2.1c-.4-.7-.9-1.4-1.4-2.1l-1.5-2a15.4,15.4,0,0,1,1.7,1.9Zm-2-.2a38.7,38.7,0,0,1,2.7,4.3,26.7,26.7,0,0,1,2,4.6,17.8,17.8,0,0,1,1,5,10.5,10.5,0,0,0-.6-2.4,22.5,22.5,0,0,0-.8-2.4,38.2,38.2,0,0,0-2.1-4.6l-.6-1.1-.6-1c-.4-.8-.9-1.5-1.3-2.2a24.3,24.3,0,0,1-1.4-2L117.8,38l1.7,1.9Zm-1.9-.2a38.7,38.7,0,0,1,2.7,4.3c.7,1.5,1.4,3.1,2,4.7a20.3,20.3,0,0,1,1,4.9l-.6-2.4a22.5,22.5,0,0,0-.8-2.4,45.4,45.4,0,0,0-2.1-4.5l-.6-1.1-.7-1.1a23.9,23.9,0,0,0-1.3-2.1l-1.4-2.1-1.5-2,1.7,1.8Zm31.1,11.8v-.7l3-.2-3-.2h0l2.9-.2-2.9-.2h0l2.9-.2-2.9-.3h0l2.9-.2-2.9-.2h0l2.8-.2-2.8-.2h0L153,50l-2.8-.2v-.2l2.8-.2-2.8-.2h0l2.7-.2-2.7-.2v-.2l2.7-.2h-2.7V48l2.7-.2-2.7-.2h0l2.6-.2-2.6-.2v-.2l2.6-.2h-2.6v-.2l2.6-.2-2.6-.2h0l2.5-.2-2.5-.2v-.2l2.5-.2h-2.5v-.2l2.5-.2-2.5-.2v-.2h2.4l-2.4-.2v-.2l2.4-.2h-2.4v-.2l2.4-.2-2.4-.2v-.2h2.3l-2.3-.2v-.2l2.3-.2h-2.3v-.2l2.3-.2-2.3-.2V41h2.2l-2.2-.2v-.2l2.2-.2h-2.2v-.3h2.2l-2.2-.2v-.2l2.1-.2h-2.1v-.2l2.1-.2h-2.1v-.3h2.1l-2.1-.2v-.2l2-.2h-2v-.2l2-.2h-2v-.3h2l-2-.2V33.3l3.3,3.3.2,14.2,1.2-13V53.5Zm4.9.7V68.8l-1.7-14-1.1-.6Zm5.7-23.5s11.6,4.3,16.4,9.1l-19.6-5.5-1.4-1.2L173.7,38l-18.5-5.8-1.3-.9,16.4,4.6-17.7-5.5a39.4,39.4,0,0,0-5.1-2.7S166.9,34,160.8,30.7Zm-13.3-.3h.6l.2.2c0,.1,0,.2.1.2v.2h-.1c0-.1-.1-.1-.2-.1h-.3l-.2-.2h-.1v-.2h.1Zm-1.8.7.4.2a.9.9,0,0,1,.6.3l.5.5.5.5.3.6a.8.8,0,0,1,.1.4v.2H148c0-.1-.2-.2-.3-.3l-.4-.5-.5-.5-.4-.5-.5-.4-.3-.3V31Zm-2.4.4.7.3a2.4,2.4,0,0,1,.9.6l.9.8a3.6,3.6,0,0,1,.7,1,4.7,4.7,0,0,1,.6.9l.3.7V36l-.2-.2-.5-.6-.6-.8-.8-.8-.8-.9-.8-.7-.5-.5-.2-.2Zm-3-.6.9.6,1.3.9,1.3,1.2a7.1,7.1,0,0,1,1.2,1.3l1,1.3.5.9.2.4-.2-.3-.8-.8-1-1.2L143.5,34l-1.3-1.3-1.2-1-.8-.7-.3-.3Zm-2.2-.8-1.7-.6-.6,1.1.9-.2a20.4,20.4,0,0,1,8.5,8.2s-3.3-4.4-10.5-6.5a34.5,34.5,0,0,0-1-7.8Zm6.1,16.4a22.8,22.8,0,0,0-7.6-8.6,79.6,79.6,0,0,0-11-1.7c-4.5-.3-8.2,4-11-.7,0,0,2.2,2.2,8.1-.5l9.9-.3S141.4,38.2,144.2,46.5ZM120.7,19.2A12.1,12.1,0,0,0,119,21a10,10,0,0,0-2.1,2l1.9-1a1,1,0,0,0,.6.7,12.5,12.5,0,0,0-3.7,1.3C117.7,19.8,120.7,19.2,120.7,19.2Zm3.2,1.2a1.6,1.6,0,0,0,.4.7,2.8,2.8,0,0,1-1.2,1.9,2.6,2.6,0,0,0,1.9-1.4c.9.4,1.8-.1,2.3-1.2a5.9,5.9,0,0,1,3,2.2,6.2,6.2,0,0,0-2.8-3v-.5c3.4,1.2,4.6,5.1,4.6,5.1-9.5-.1-16.4.2-16.4.2C124.9,22.9,123.9,20.4,123.9,20.4ZM119.4,25l4.4-.2a32.4,32.4,0,0,1,4.4.2,31.8,31.8,0,0,1,4.3.6H117.3l-2.2.2Zm-.1,1.2a32.5,32.5,0,0,1,4.4-.3,33.1,33.1,0,0,1,4.4.2,31.8,31.8,0,0,1,4.3.6h-8.7l-4.4.2h-2.1l-2.2.2A32.1,32.1,0,0,1,119.3,26.2Zm-.1,1.1a31.1,31.1,0,0,1,4.3-.3l4.4.2a33.5,33.5,0,0,1,4.4.7l-2.2-.2h-2.2c-1.5,0-2.9-.1-4.3,0H117l-2.1.2A20.4,20.4,0,0,1,119.2,27.3Zm-.2,1.1a33.1,33.1,0,0,1,4.4-.2,32.3,32.3,0,0,1,4.4.1l4.3.7h-2.2l-2.1-.2H116.9l-2.2.2Zm-.1,1.1,4.4-.2a33.1,33.1,0,0,1,4.4.2,31.8,31.8,0,0,1,4.3.6h-8.7l-4.4.2h-2.1l-2.2.2Zm-.1,1.2a31.1,31.1,0,0,1,4.3-.3l4.4.2a22.4,22.4,0,0,1,4.4.7l-2.2-.2h-6.5l-4.4.2h-2.2l-2.1.3A20.4,20.4,0,0,1,118.8,30.7Zm-.2,1.1,4.4-.3,4.4.2,4.3.7-2.2-.2h-13l-2.2.2A32.5,32.5,0,0,1,118.6,31.8Zm-7.7-9.5a60.4,60.4,0,0,0-7.5-.5v-.2l.6-1-1,.6-.4.3-.3.2a.1.1,0,0,0-.1.1h-.9a17.9,17.9,0,0,1,2.3-2.5,17.7,17.7,0,0,0-3.5,2.6h-.4a12.6,12.6,0,0,1,6.8-5.1A7.8,7.8,0,0,1,110.9,22.3Zm-10.7-5.5h1.6l-1.9,1.6,3.3-1.7h.7a26.2,26.2,0,0,0-8,5.5C96.2,19,100.2,16.8,100.2,16.8Zm3,6.1,4,.2,3.9.5H97.3l-2,.2A29.9,29.9,0,0,1,103.2,22.9Zm0,1.1,4,.2a26.3,26.3,0,0,1,3.9.6H99.2l-1.9.2h-2A34.8,34.8,0,0,1,103.2,24Zm0,1.2h4l3.9.6H95.3A34.7,34.7,0,0,1,103.2,25.2Zm0,1.1a27.5,27.5,0,0,1,4,.2,26,26,0,0,1,3.9.5H95.3A34.7,34.7,0,0,1,103.2,26.3Zm5.9,7s-6.2-.3-13.7-1V29l4.7.5S98.5,30.6,109.1,33.3Zm1.2,1.1,2.6,1.7-19-3.2Zm2.4,2.8A37.3,37.3,0,0,1,123.1,55h-1.2L121,53h0a81.6,81.6,0,0,0-7.2-12.9A88.8,88.8,0,0,1,120,52.9l-6-.6c-.1-.1-.1-.3-.2-.4a.4.4,0,0,0,.1.3L112,52l-.5-.7a1.9,1.9,0,0,1,.2.7l-1.8-.2-.6-1.1.3,1.1-1.8-.2-.7-1.5,10.4.9-12.6-1.4c-.1,0-.1-.1-.2-.2a.3.3,0,0,1,.1.2l-2-.2-.3-.6c.1.2.1.4.2.6l-2-.2a5.4,5.4,0,0,0-.5-1.1l.3,1.1L98.7,49,98,47.6,113.7,49l-18-2.1h-2l-.3-.5.2.5-2-.2-.4-.9a3.1,3.1,0,0,1,.2.8l-1.9-.2L88.9,45a5.6,5.6,0,0,1,.4,1.2L87.4,46c-.2-.6-.5-1.1-.7-1.7s.3,1.1.4,1.6l-1.8-.2-.9-2,.6,2H83.1a24.4,24.4,0,0,0-1-2.4,20.2,20.2,0,0,1,.7,2.3L81,45.2c-.3-.9-.7-1.9-1.1-2.8.3.9.5,1.9.8,2.8L79.5,45h-.3a27.3,27.3,0,0,0-2.8-7.2l14.9,1.4a17.1,17.1,0,0,1,.9,3,15.9,15.9,0,0,0-.6-3h1.1l-1.1-.2A27.3,27.3,0,0,0,89,33ZM71,81.3a25.9,25.9,0,0,0,0-2.8l.9-2.9-1,2a6.4,6.4,0,0,0-.4-1.5L72.2,73l-1.6,1.8c-1.8-.4-6.4.3-6.4.3a19,19,0,0,0,11.7-9.3L77.3,67c-4.6,13.5-7,21-7,21s.4-2.6.5-3.8l3-10.2Zm5.6-19.4a18.6,18.6,0,0,1-1,2l-1.1,1.9a10.4,10.4,0,0,1-1.2,1.7l-1.5,1.7-1.6,1.5a11.3,11.3,0,0,1-1.8,1.2,16.7,16.7,0,0,1-8.1,2.8,21.7,21.7,0,0,0,7.4-3.8,15.8,15.8,0,0,0,3-2.8,1.2,1.2,0,0,0,.5-.5c-.6-.9-1.3-1.7-1.8-2.6a15.5,15.5,0,0,0,2.4,1.9c.1-.1.2-.2.2-.3a17.7,17.7,0,0,0,1.2-1.7,10.8,10.8,0,0,0,1.1-1.8l.9-1.8.6-1.6a22.1,22.1,0,0,1-3.4-1.8,23.4,23.4,0,0,0,3.8.9c.1-.5.3-.9.4-1.4a36.9,36.9,0,0,0,1.2-8.2,20.3,20.3,0,0,1,0,8.5,12.9,12.9,0,0,1-.5,2.1ZM40.9,57.7,40.6,56l.8.6a14.3,14.3,0,0,0,3.6,7,13.8,13.8,0,0,1-2.6-6.4,10.6,10.6,0,0,0,1.9,1.1s.2,6.5,9.2,11.7c0,0-11.3-1.6-14.4-15.5l.6.7a25,25,0,0,0,.7,2.6,13.3,13.3,0,0,0,2.1,3.9A11.6,11.6,0,0,1,40.9,57.7Zm29.5-6.1.3-.2s.6,5.1-5.1,12.1v-.8a21.9,21.9,0,0,0,3.5-6.1,20.6,20.6,0,0,1-3.6,5v-.3a17.6,17.6,0,0,0,.9-2l-1.1,1.2a12,12,0,0,0-.6-2.4,14.6,14.6,0,0,0,2.1-5A9.5,9.5,0,0,0,69.7,52a8.1,8.1,0,0,1,0,2.2A7.7,7.7,0,0,0,70.4,51.6Zm-1.9-2.4a14.5,14.5,0,0,0-4.1-9.4,12.9,12.9,0,0,0-18.5,0,14.6,14.6,0,0,0-4.2,9.4,13.7,13.7,0,0,1,.8-5.3,15,15,0,0,1,2.8-4.7A12.5,12.5,0,0,1,49.7,36a14.6,14.6,0,0,1,5.4-1.2A14.2,14.2,0,0,1,60.5,36,12,12,0,0,1,65,39.2a15,15,0,0,1,2.8,4.7A12,12,0,0,1,68.5,49.2Zm-22,9.1a12.2,12.2,0,0,1,0-16,10.9,10.9,0,0,1,7.8-3.7,10.3,10.3,0,0,1,4.6.7,11.8,11.8,0,0,1,3.9,2.5,11.6,11.6,0,0,1,2.6,3.9,12.2,12.2,0,0,1,0,9.2,11.6,11.6,0,0,1-2.6,3.9,11.8,11.8,0,0,1-3.9,2.5,10.3,10.3,0,0,1-4.6.7A10.9,10.9,0,0,1,46.5,58.3Zm14.2,9.3A16.7,16.7,0,0,0,65,65.1a17,17,0,0,0,5.5-8,18.9,18.9,0,0,0-3.4-18.4,15.6,15.6,0,0,0-3.7-3.1A13.4,13.4,0,0,0,59,33.7a15.5,15.5,0,0,0-4.8-.3,19.1,19.1,0,0,0-4.7,1.2,17.4,17.4,0,0,0-7.2,6.5l-.7,1.1-.5,1.1-.5,1.2c-.1.4-.3.8-.4,1.2l-.3,1.2a5,5,0,0,0-.2,1.2l-.2.6v1.9a19.2,19.2,0,0,1,2.2-9.9l.7-1.1c0-.1.1-.2.2-.3l-1.6-1.8L43,38.6h0l.8-1.1.9-.9A18.8,18.8,0,0,1,49,33.5,18,18,0,0,1,54,32h1l.2-3.8.3,3.8a23.4,23.4,0,0,1,3.8.3,14.4,14.4,0,0,1,4.6,1.9A31.7,31.7,0,0,1,66,31.4c-.6.9-1.1,1.9-1.7,2.9a18.5,18.5,0,0,1,4,3.4,18.7,18.7,0,0,1,3.8,6.9l3.2-1-3.1,1.5a11.7,11.7,0,0,1,.5,2l.2,1.3v1.4a22.5,22.5,0,0,1,0,2.6,22.3,22.3,0,0,1-1.2,5.1c-.4.9-.8,1.8-1.3,2.7l2.3,2.1L69.9,61a18,18,0,0,1-4.4,4.7A16.5,16.5,0,0,1,60.9,68a17.9,17.9,0,0,1-5.1.7A15.9,15.9,0,0,0,60.7,67.6ZM81.6,26.7a2.4,2.4,0,0,1,.5-1.4,6.5,6.5,0,0,1,1.2-1.1,6.4,6.4,0,0,0,2.4-2.5,7.5,7.5,0,0,1-2.6,2.1l-.8.3c1.6-2.4,4.9-3.7,3.7-6.4a1.1,1.1,0,0,0-.5.9s-.5-1.6,2-1.8a2.3,2.3,0,0,1,2.2,1.4h0a2,2,0,0,1-.5,1.6l-1.4,1.4a16.3,16.3,0,0,0,1.7-1.1l.6-.4A1.9,1.9,0,0,1,89,21.9c-2,.4-3.3,3.8,1.9,6.2-3,1.2-7.4-3.5-9.3-1a.6.6,0,0,1-.1-.4Zm6.1,6.1a24.5,24.5,0,0,1,3.6,6.3L75.8,36.9l-.5-.8,6.2.5-6.7-1.1-.6-.9,2.4.2-3-.9A20.5,20.5,0,0,0,67,29.1ZM78,30.5,75,30l-3-.5-2.9-.6-3-.6h0l-2.2-.9-2.2-.8,2.3.6,2.2.6,3,.6,2.9.6,2.9.7ZM65.1,21.6l2.3,2.3-4.5-.6-2.1-2.4Zm-4.7-2a6.4,6.4,0,0,1-2.5,1.2,8.2,8.2,0,0,1-2.7.1,8,8,0,0,1-2.6-.9,10.2,10.2,0,0,0,5.2.3,9.4,9.4,0,0,0,2.3-1A6.6,6.6,0,0,0,62,17.5,4.7,4.7,0,0,1,60.4,19.6Zm10.4,3.3H68.1l2.7-.2v-.2H68.1l2.7-.2v-.2l-2.7-.2,2.7-.2v-.2H68.1l2.7-.2v-.2H68.1l2.7-.2v-.2l-2.7-.2,2.7-.2v-.2H68.1l2.7-.2v-.2H68.1l2.7-.2v-.2l-2.6-.2,2.6-.2v-.2H68.1l2.6-.2v-.2H68.1l2.6-.2v-.2l-2.6-.2,2.6-.2v-.2H68.1l2.6-.2V16H68.1l2.6-.2v-.2l-2.6-.2h2.6v-.3H68.1l2.6-.2v-.2H68.1l2.6-.2v-.2l-2.6-.2h2.6v-.3H68.1l2.6-.2v-.2l-2.6-.2h2.6v-.2l-2.6-.2h2.6v-.3H68.1l2.6-.2v-.2L68.1,11h2.6v-.2l-2.6-.2h2.6v-.3H68.1l2.6-.2V9.6l-2.5-.2h2.5V9.1l-2.5-.2h2.5V8.6l-2.5-.2,2.5-.2V8l-2.5-.2h2.5V7.5l-2.5-.2h2.5V7l-2.5-.2,2.5-.2V6.4l-2.5-.2h2.5V5.9l-2.5-.2h2.5V5.4l-2.5-.2L70.6,5V4.8l-2.5-.2h2.5V4.3l-2.5-.2h2.5V3.8l-2.5-.2h2.5V3.2L68.1,3h2.5V2.7l-2.5-.2h2.5V2.2L68.1,2h2.5a4.1,4.1,0,0,1,1.7-.1h.1a4.5,4.5,0,0,1,2.5.7V23.6H72.5l-4.4-.2,2.7-.2ZM61.1,1.3V5.8L67.3,12l.5,4.3-3,4.3,2.4-4.4-3.9-.8L63,10.6a18,18,0,0,0-3.3-4.7V1.4ZM49.7,13.5A6.5,6.5,0,0,1,56,6.9a6.5,6.5,0,0,1,6.3,6.6A6.4,6.4,0,0,1,56,20,6.4,6.4,0,0,1,49.7,13.5Zm-.8,10.9v-.5H62l5.4.6V25l-5.4-.6ZM36.7,60.1a32.5,32.5,0,0,1-1.5-8.8,32.5,32.5,0,0,1,1.5-8.8,26,26,0,0,1,4.5-7.7,20.3,20.3,0,0,1,7-5.3,18.1,18.1,0,0,1,8.5-1.8,19.7,19.7,0,0,0-8.3,2.2,22,22,0,0,0-6.6,5.5,25.4,25.4,0,0,0-5.5,15.9,25.7,25.7,0,0,0,5,15.3L43.2,65l-1.3,2.3a21.1,21.1,0,0,0,6.5,5.4,18.3,18.3,0,0,0,8.3,2.2,18.1,18.1,0,0,1-8.5-1.8,20.3,20.3,0,0,1-7-5.3A26,26,0,0,1,36.7,60.1Zm7.8,29.2H38v-.9h8.6l2.1,2.7-4.4,9.3,2-7.3Zm.1-1.4c-2.1,0-4.1-.1-6.2-.3,2.1-.2,4.1-.3,6.2-.3l6.2.3Zm5.7-1.8H42.2L39,85.9l3.2-.2h9.7Zm1-1.7H42.9l-3.3-.2,3.3-.2h8.4Zm1.1-1.6H43.6l-3.4-.2,3.4-.2H54.1Zm1-1.7h-9L40.7,81l3.7-.2h9l1.8.2Zm-1.1-4.4a21.4,21.4,0,0,1-3.4-.9,18.2,18.2,0,0,1-3.1-1.6A12.4,12.4,0,0,1,43,72c.5.3.9.7,1.5,1l.7.5.8.4,3.1,1.4,3.3,1,1.7.4,1.8.3A21.9,21.9,0,0,1,52.3,76.7ZM37.2,86.5l1.5-5.3,1.5-5.3.8-2.7.9-2.6-.6,2.7L40.6,76l-1.4,5.3c-.5,1.8-1,3.5-1.6,5.3s-1,3.5-1.6,5.2Zm.4,7.2h1l-1.8,5.7,2.8-5.8h.2l-2.3,5.9-5.4,8.7Zm-4,.1c-.4,2.8-1,5.6-1.6,8.3,1-2.8,1.8-5.6,2.6-8.4h.7l-4.8,16.5-2.6,4.6,4.7-20.8Zm-2.1.2-6,24.8L30,94.1Zm-2.3-.1-6.4,28.8,4.9-28.6Zm-4.9,4.9.9-4.5,1.5-.3L17,132l5.5-25c-2,3.9-4,7.8-6.1,11.6,2.3-4.5,4.5-9.1,6.5-13.7l.9-4.2c-4.6,9.1-9.4,18-14.6,26.8C14.5,118.1,19.6,108.5,24.3,98.8Zm61.4,22.8a42.2,42.2,0,0,1-.7,6.1,19.9,19.9,0,0,1-2.2,5.9,5.1,5.1,0,0,1-2.3,2.3,2.8,2.8,0,0,1-1.8,0,3,3,0,0,1-1.3-.9,6.9,6.9,0,0,1-1.6-2.7l-.2-.3v1.4l-.5-1.1-51.9,7.1L1.5,133.7l.9-2L16,135.3l.5-.8-2.4-.7L4.7,131l9.5,2.5,2.5.6L40.2,96.2h2.5L18,134.5l1.5.4L43.4,99.2,21.8,135.5l1.9.5h.7l19.2-34.5L27.1,135.6l1.8-.2L49.4,91.6v-.5l9.6-.5,1.2-11.5V90.6h.3l1.1-10.1v10h.3l.9-8.7v8.7h.3l.9-7.3.2,7.2h.3l.7-5.9.3,5.9h.3l.6-4.4.4,4.4h.4l.5-3,.4,2.9h2.6l9.4-27.6,1.5.5L74.2,84.9l1.3.2-1.5.2-.4,1.1,1.2.3H73.5l-.3.9,2,.4H73l-.2.6,5.9.4h-6l-.3.8,11-.5v1.1l-8,.3v7l-.4-7-5.9.3-2.9,41.1,9.3-1.1a11.7,11.7,0,0,1-.5-2,11.8,11.8,0,0,0,.7,2h.1l.3.8a10.4,10.4,0,0,0,1.7,2.4,3.7,3.7,0,0,0,1.2.7,2,2,0,0,0,1.3-.1,5.2,5.2,0,0,0,1.9-2,18.2,18.2,0,0,0,1.9-5.7,58,58,0,0,0,.6-6,30.2,30.2,0,0,0-.3-6,24,24,0,0,0-1.3-5.9,9.6,9.6,0,0,0-1.3-2.7,2.9,2.9,0,0,0-2.2-1.5,2.1,2.1,0,0,0-1.3.3l-1.1,1a13.5,13.5,0,0,0-1.5,2.6,10.2,10.2,0,0,1,1.3-2.8,5.7,5.7,0,0,1,1.1-1.1,2.3,2.3,0,0,1,3.1,0,4.3,4.3,0,0,1,1.2,1.1,10.8,10.8,0,0,1,1.5,2.8A34.1,34.1,0,0,1,85.7,121.6ZM74.1,111.3c0,3,0,6.1-.1,9.1s-.2,6.2-.4,9.2c-.2-3-.4-6.1-.4-9.2s-.1-6.1-.1-9.1,0-6.1.1-9.2.2-6.1.4-9.1c.2,3,.3,6.1.4,9.1S74.1,108.2,74.1,111.3Zm-3.2,0c0,3,0,6.1-.1,9.1s-.2,6.2-.4,9.2c-.2-3-.3-6.1-.4-9.2s-.1-6.1-.1-9.1,0-6.1.1-9.2.2-6.1.4-9.1c.2,3,.4,6.1.4,9.1S70.9,108.2,70.9,111.3Zm25.4,15.6-1.2.3-1.8.5-2,.4-2,.3-1.8.3-1.2.2h0l1.2-.4,1.7-.4,2-.4,2-.4,1.8-.3h1.7Zm8-21.4h3.4a3.8,3.8,0,0,0,1.3-.9,10.9,10.9,0,0,0,.8-1.5,13.9,13.9,0,0,0,.6-6.7,9.4,9.4,0,0,0-1.1-3.2,4.5,4.5,0,0,0-1.1-1.3,4.3,4.3,0,0,0-1.6-.5,3.5,3.5,0,0,1,1.7.4,4.6,4.6,0,0,1,1.2,1.2,8.4,8.4,0,0,1,1.3,3.3,14,14,0,0,1,.2,3.5,13.6,13.6,0,0,1-.7,3.5,8.3,8.3,0,0,1-.9,1.6,2.5,2.5,0,0,1-1.6,1H97.3Zm3.4-12.2v.2l.4.6.4.9.3,1.1a3.6,3.6,0,0,1,.2,1.1,2.7,2.7,0,0,1,0,.9v.7c-.1-.1-.1-.4-.2-.6s-.1-.6-.1-1l-.3-1c-.1-.4-.1-.7-.2-1.1l-.3-.9c-.1-.2-.1-.5-.2-.6Zm-.8-11.8,10.2-.5a1.4,1.4,0,0,1,1-.5,1.3,1.3,0,0,1,0,2.6,1.2,1.2,0,0,1-1.2-1.1Zm-7.1,43.8h-.1c0-.1-.1-.2-.2-.4a1.1,1.1,0,0,1-.2-.6c-.1-.2-.1-.4-.2-.6s-.1-.4-.1-.7v-1h.1c.1.1.1.2.2.4a1.4,1.4,0,0,0,.2.6v.6c0,.2.1.4.1.6a1.3,1.3,0,0,1,.1.6v.6Zm1.2,0a10.4,10.4,0,0,1-.4-1.3,10.5,10.5,0,0,1-.5-1.9l-.3-2.2v-2.2a11.2,11.2,0,0,1,.2-2,8.3,8.3,0,0,0,.2-1.3l.2-.5v1.9a10.9,10.9,0,0,0-.1,1.9c0,.7.1,1.4.1,2.2l.3,2.1a9.5,9.5,0,0,0,.3,1.9,9.3,9.3,0,0,1,.2,1.4l.2.5Zm5.2,4.7c-3,0-4.5-6.1-4.5-11.8s1.5-11.7,4.5-11.7,4.4,6.1,4.4,11.7S109.1,130,106.2,130Zm5.3-16.4v0a3.1,3.1,0,0,0-.2-.8,3.6,3.6,0,0,0-.2-1,5.6,5.6,0,0,0-.4-1.2l-.3-1.2a6.9,6.9,0,0,1-.4-1,2.4,2.4,0,0,0-.3-.7v-.3l.2.2a4.3,4.3,0,0,1,.4.7l.6.9c.1.4.3.8.4,1.2a3.1,3.1,0,0,1,.3,1.3,4.1,4.1,0,0,1,.1,1.1A2.1,2.1,0,0,1,111.5,113.6Zm.9-3.9c0,.1-.1.1-.1.2h-.1a.1.1,0,0,1-.1-.1l-.2-.2v-.5c-.1,0,0-.1,0-.2v-.2h.2l.2.2v.7Zm10.1,6c-.1-.2-.2-.6-.4-1s-.3-.9-.4-1.4l-.3-1.7a11.1,11.1,0,0,1-.2-1.7,8.6,8.6,0,0,1-.1-1.5v-1.1l.2,1c.1.5.1,1,.2,1.5l.3,1.7.3,1.7a7.8,7.8,0,0,1,.2,1.4,6.5,6.5,0,0,1,.2,1.1v.4A1,1,0,0,0,122.5,115.7Zm2.3,2.3c-.2-.5-.5-1.2-.8-2.1s-.6-2-.9-3.1-.5-2.4-.7-3.7l-.3-3.7v-3.2c.1-1,.1-1.8.2-2.3v2.3c0,.9.1,2,.2,3.2s.2,2.4.4,3.6a22,22,0,0,0,.6,3.7,23.8,23.8,0,0,0,.7,3.1,16.2,16.2,0,0,0,.6,2.2,2.4,2.4,0,0,1,.2.8Zm20.7-10.9c0,.3-.1.5-.1.7v0a5.6,5.6,0,0,1-.1-.7,3.4,3.4,0,0,1-.1-1,4.9,4.9,0,0,1-.1-1.2v-2.2a1.9,1.9,0,0,1,.1-.8v0c0,.2.1.4.1.7s.1.7.1,1.1v3.4Zm2.5,5.3-.5-2.1q-.3-1.3-.6-3c-.2-1.1-.3-2.3-.4-3.4l-.3-3.5V97.3c.1-.8.1-1.6.2-2.1v2.1c.1.9.1,2,.2,3.1l.3,3.4c.1,1.2.2,2.3.4,3.4a21.9,21.9,0,0,0,.4,3q.1,1.3.3,2.1a6,6,0,0,1,.1.8A2.3,2.3,0,0,0,148,112.4Zm2.5-5.4a6.1,6.1,0,0,1,.5-1.2l.6-1.4.7-1.3a12.7,12.7,0,0,1,.7-1.2l.5-.8.2-.3a1,1,0,0,0-.1.4l-.4.9-.5,1.2-.6,1.3a9.1,9.1,0,0,0-.7,1.4l-.7,1.1-.5.8-.2.3a.4.4,0,0,0,.1-.3A6.3,6.3,0,0,1,150.5,107Zm-.2-4.1v-.5c.1-.1.1-.3.2-.5l.2-.5c.1-.2.2-.3.2-.5l.3-.4c0-.2.1-.3.2-.3v.4a.7.7,0,0,0-.1.5l-.2.5-.3.5-.3.4-.2.3Zm3,10.8a20.9,20.9,0,0,1,.1-2.4c0-.8.1-1.7.1-2.6s.2-1.9.3-2.7.2-1.7.3-2.3a7.2,7.2,0,0,1,.2-1.7v0a11.6,11.6,0,0,1-.1,1.7,18.5,18.5,0,0,1-.1,2.3c0,.9-.1,1.8-.1,2.7l-.3,2.7c0,.8-.2,1.6-.2,2.3s-.2,1.3-.3,1.7a1.5,1.5,0,0,1-.1.6v-.7C153.3,114.9,153.2,114.4,153.3,113.7Zm-.9-17.1c0-2.1,1.1-3.8,2.4-3.8s2.5,1.7,2.5,3.8-1.1,3.8-2.5,3.8S152.4,98.7,152.4,96.6Zm3.3,5.5v0c.1.3.1.6.2,1.1a10,10,0,0,0,.2,1.6,12.3,12.3,0,0,0,.2,1.9c0,.6.1,1.2.1,1.8s.1,1.2.2,1.7v1.5a1.6,1.6,0,0,0-.1-.4,6.5,6.5,0,0,0-.2-1.1l-.3-1.6a11.1,11.1,0,0,1-.2-1.9c-.1-.6-.1-1.2-.2-1.8v-2.8Zm1-.4a4.3,4.3,0,0,0-.1-.5V101l.2.2c.1,0,.2.2.3.3a2.1,2.1,0,0,0,.4.6l.3.7.3.7a1.7,1.7,0,0,1,.1.7.8.8,0,0,1,.1.4v.2h-.1a.8.8,0,0,0-.2-.4c-.1-.2-.3-.4-.3-.6a2.5,2.5,0,0,1-.4-.7l-.3-.7C156.8,102.1,156.8,101.8,156.7,101.7Zm1.5-3.6h-.1a.1.1,0,0,1,.1-.1h.1c.1,0,.1-.1.2,0h-.1s-.1.1-.1,0Zm.1-6.5-9.4.5h0a78.5,78.5,0,0,0,0,8.4,59.7,59.7,0,0,0,.8,8.4c.3,1.4.5,2.7.9,4.1a15.3,15.3,0,0,0,1.6,3.7,2.7,2.7,0,0,0,1.3,1.3,1.3,1.3,0,0,0,1.4-.3,4.4,4.4,0,0,0,1.2-1.5,10.8,10.8,0,0,0,.8-1.9,37.6,37.6,0,0,0,1.9-8.2,58.3,58.3,0,0,0,.8-8.4,80.4,80.4,0,0,1-.2,8.5,40.4,40.4,0,0,1-1.7,8.4,16.7,16.7,0,0,1-.8,2,6.2,6.2,0,0,1-1.4,1.8,2,2,0,0,1-1.1.6,2,2,0,0,1-1.3-.1,2.6,2.6,0,0,1-1-.7l-.8-.9a22.8,22.8,0,0,1-1.7-4,31.5,31.5,0,0,1-.9-4.2,64.8,64.8,0,0,1-.6-17l-5.7.2c.1,1.8.2,3.6.2,5.5,0,14.6-4.2,26-9.5,26s-9.5-11.4-9.5-25.9l-1.9.7h-.1l-9.9.6v-1l9.9-.7,2.1-.7a5.3,5.3,0,0,1,.1-1.3l-1.7.5,1.7-.6V94.3l-2,.7h-.1l-5.9.2.2,2h5.7v.5l-10,.5a8.1,8.1,0,0,0-.9-3.8l2.1-.2V90.4a.5.5,0,0,1,.5-.5h.7a.6.6,0,0,1,.6.5v3.5l7.2-.4v.3l2-.6c.6-9.8,3.1-17.5,6.6-20.2L96.8,71.9v-.5l34.3,1a4.6,4.6,0,0,1,2-.5,3.6,3.6,0,0,1,2.2.7h4.4V72L96.5,70.7V69.1l77,2.4v1.6L140.1,72l-.3,3.6V73.2h-3.6c2.8,2.5,5,8.4,6,16.1h6.4a51.2,51.2,0,0,1,1-5.4,21.7,21.7,0,0,1,1.5-4,17.4,17.4,0,0,1,1.1-1.8,2.7,2.7,0,0,1,1.9-1,3.1,3.1,0,0,0-1.8,1.1,16.2,16.2,0,0,0-1,1.8,27.7,27.7,0,0,0-1.2,4.1,43.4,43.4,0,0,0-.8,5.2l8.8-.4c.3-1.8,2-.8,2.2,1S158.9,92.6,158.3,91.6Zm-35.6-9.1-.6,3.2c-.2,1.1-.3,2.1-.5,3.2l-.4,3.3V88.9c.1-1.1.2-2.2.4-3.3s.4-2.1.7-3.2a28.3,28.3,0,0,1,1.1-3.1C123.2,80.4,122.9,81.4,122.7,82.5Zm.8.1a32.6,32.6,0,0,1,1.5-4.4,18.6,18.6,0,0,1,2.3-4.1,21.2,21.2,0,0,0-1.1,2.1,14.3,14.3,0,0,0-.8,2.2c-.5,1.4-1,2.9-1.4,4.4a17.4,17.4,0,0,1-.5,2.2l-.2,1.2-.2,1.1c-.2,1.5-.4,3.1-.5,4.6a8.9,8.9,0,0,1,0-2.3,16.9,16.9,0,0,1,.1-2.3C122.9,85.7,123.2,84.2,123.5,82.6Zm50.9-19.3h-.8v1.1l.9.5h-.9v.9l1.4.6h-1.4v1.1l1.8.5h-1.8v.9l2,.5h-2v.9H173V59.5h.5v3.3Zm.5,12.4v.5l-3-.3Zm-3-1.1,3-.2v.5Zm3,2.4v.5l-3-.2Zm0,1.3v.6l-3-.3Zm0,1.4v.5l-3-.3Zm0,1.3v.5l-3-.2Zm0,1.3v.5l-3-.2Zm.3,1.6v.5l-3-.3Zm-5.1-6.1a4.7,4.7,0,0,1-1.4,3.3,3.8,3.8,0,0,1-1.5.9l-1.7.3a4.6,4.6,0,0,0,2.9-1.5,4.4,4.4,0,0,0,0-6,4.1,4.1,0,0,0-2.9-1.5,3.5,3.5,0,0,1,1.7.2,4,4,0,0,1,1.5,1A4.5,4.5,0,0,1,170.1,77.8Zm-21.2,3v.3c-.1.2-.1.5-.2.8a10.4,10.4,0,0,0-.3,1.2l-.3,1.3-.3,1.3-.3,1.1-.3.8v0c.1-.2,0-.5.1-.8a4.9,4.9,0,0,1,.1-1.2l.3-1.4a6.5,6.5,0,0,1,.4-1.3c.1-.4.3-.8.4-1.1a5.9,5.9,0,0,1,.4-.8Zm-5,6.5v0a11.5,11.5,0,0,0-.2-1.4,16.2,16.2,0,0,0-.3-2l-.3-2.3c-.1-.7-.3-1.5-.4-2.2a17.7,17.7,0,0,1-.4-2,10.6,10.6,0,0,0-.3-1.4v-.5l.2.5.5,1.3a11.7,11.7,0,0,1,.5,2,17.4,17.4,0,0,1,.5,2.2l.3,2.3a16.2,16.2,0,0,1,.1,2.1A6.4,6.4,0,0,1,143.9,87.3Zm9.7.1v0a3.9,3.9,0,0,0-.2-.6,2.9,2.9,0,0,0-.2-.9c-.1-.4-.1-.7-.2-1.1V82.1a2.1,2.1,0,0,0,.2.6c0,.3.1.6.1,1a3.6,3.6,0,0,1,.2,1,4.1,4.1,0,0,1,.1,1.1,3.1,3.1,0,0,1,.1.9Zm-1.5.9H152c0-.1-.1-.1-.2-.2l-.3-.4-.2-.4c-.1-.1-.1-.3-.2-.4a.9.9,0,0,1-.1-.5.4.4,0,0,0-.1-.3h.1l.3.2.2.4.3.4.2.4c0,.2,0,.3.1.4v.4Zm2.8-3.7v-.7a4.3,4.3,0,0,1,.1-.5v-.2h.1c0,.2.1.3.1.5a1.9,1.9,0,0,1,.2.7,2.8,2.8,0,0,0,.1.9,1.9,1.9,0,0,0-.1.8,1.7,1.7,0,0,1-.1.7.7.7,0,0,1-.1.5v0a1.1,1.1,0,0,0-.1-.5V84.6Zm1.8,1.9v-.3c0-.1.1-.2.1-.3a.1.1,0,0,0,.1-.1h.1c.1,0,.1.1.1.2a.3.3,0,0,1,.1.2V87l-.2.2h-.1V87a.4.4,0,0,1-.1-.3Zm6,9.5c-.1.7-.2,1.3-.3,1.7v0c.1-.4,0-1,.1-1.7s-.1-1.5-.1-2.4-.1-1.8-.1-2.7l-.3-2.7q-.2-1.4-.3-2.4c-.1-.7-.2-1.3-.3-1.7a1.5,1.5,0,0,0-.1-.6l.2.6.5,1.7c.2.6.3,1.5.5,2.3l.3,2.8a25.3,25.3,0,0,1,.1,2.7C162.8,94.5,162.7,95.3,162.7,96Zm-4-13.5a4.7,4.7,0,0,1-4.7-4.7,4.8,4.8,0,0,1,4.7-4.8,4.7,4.7,0,0,1,4.6,4.8A4.6,4.6,0,0,1,158.7,82.5Zm3.7-8.4,4.9.2a5.8,5.8,0,0,1,1.7,2.3h-5.2A4.7,4.7,0,0,0,162.4,74.1Zm9.7,36a8.3,8.3,0,0,1-1.3,3.4,2.3,2.3,0,0,1-1.4,1.3,1.9,1.9,0,0,1-1.9-.3,4.4,4.4,0,0,1-1.2-1.5,8.7,8.7,0,0,1-.7-1.7,11.3,11.3,0,0,1-.6-3.6,15.1,15.1,0,0,1,.1-3.7,14,14,0,0,1,1-3.5,8.6,8.6,0,0,1,1-1.6,2.1,2.1,0,0,1,1.6-.7,2.2,2.2,0,0,0-1.5.8,8,8,0,0,0-.8,1.6,13.9,13.9,0,0,0-.9,3.5,19,19,0,0,0,.6,7.1,5.4,5.4,0,0,0,1.7,2.9,1.4,1.4,0,0,0,1.5.3,2.5,2.5,0,0,0,1.2-1.1,7.4,7.4,0,0,0,1.3-3.3,13.6,13.6,0,0,0,.5-3.6A15.1,15.1,0,0,1,172.1,110.1Zm7.8-1.6a14.3,14.3,0,0,1-.9,3.4,3.2,3.2,0,0,1-1.2,1.4,1.2,1.2,0,0,1-1,.1l-.8-.5a6.7,6.7,0,0,1-1.5-3.2,21.2,21.2,0,0,1-.3-7.1,20.5,20.5,0,0,1,.7-3.4l.8-1.6c.4-.4.8-.9,1.4-.9a1.7,1.7,0,0,0-1.3,1,4.4,4.4,0,0,0-.6,1.6,9.7,9.7,0,0,0-.6,3.4,22.1,22.1,0,0,0,.4,6.8,6.6,6.6,0,0,0,1.3,3.1l.6.4a.6.6,0,0,0,.7-.1,2.4,2.4,0,0,0,1-1.2,11.5,11.5,0,0,0,1-3.3,13.2,13.2,0,0,0,.4-3.4A20.8,20.8,0,0,1,179.9,108.5Zm-5.4-15.9h.5l-.3,1.8Zm1.4-.1h.5l-.2,1.7Zm1.5-.2h.5l-.3,1.8Zm1.4-.2h.5l-.2,1.8Zm1.7,1.6-.2-1.8h.5Zm1.5-.2-.3-1.7h.5Zm6.6,12.8a10.7,10.7,0,0,1-.9,3.4,3.8,3.8,0,0,1-1.1,1.4,1.8,1.8,0,0,1-1,.2,2,2,0,0,1-.9-.6,7.7,7.7,0,0,1-1.4-3.2,20.6,20.6,0,0,1-.3-7,13.6,13.6,0,0,1,.7-3.5,11.9,11.9,0,0,1,.8-1.6,1.9,1.9,0,0,1,1.4-.9,1.9,1.9,0,0,0-1.3,1,11.1,11.1,0,0,0-.7,1.6,18.6,18.6,0,0,0-.6,3.4,22.9,22.9,0,0,0,.4,6.9,6.4,6.4,0,0,0,1.4,3,.8.8,0,0,0,.6.4.8.8,0,0,0,.7,0,4.5,4.5,0,0,0,1-1.3,11.9,11.9,0,0,0,1-3.2c.2-1.2.3-2.3.4-3.5A20.6,20.6,0,0,1,188.6,106.3Zm6.3-1.6a10.2,10.2,0,0,1-1,3.4,2.5,2.5,0,0,1-1.1,1.4,1.8,1.8,0,0,1-1,.2,2.4,2.4,0,0,1-.8-.6,6.7,6.7,0,0,1-1.5-3.2,20.6,20.6,0,0,1-.3-7,19.7,19.7,0,0,1,.7-3.5c.3-.5.5-1.1.8-1.5a1.8,1.8,0,0,1,1.4-1,1.9,1.9,0,0,0-1.3,1,5.2,5.2,0,0,0-.6,1.6,10.2,10.2,0,0,0-.6,3.4,22.9,22.9,0,0,0,.4,6.9,6.3,6.3,0,0,0,1.3,3l.6.5h.7a3.2,3.2,0,0,0,1-1.3,11.9,11.9,0,0,0,1-3.2,13.9,13.9,0,0,0,.4-3.5A20.5,20.5,0,0,1,194.9,104.7Zm1.8-14.5-.2,1.7-.3-1.7-.9.2L195,92l-.2-1.6-1,.2-.2,1.6-.3-1.6h-.9l-.3,1.7-.2-1.6h-1l-.2,1.6-.3-1.5h-.9l-.3,1.6-.2-1.6h-1l-.2,1.7-.3-1.7h-.9l-.3,1.7-.2-1.6h-1l-.2,1.7-.3-1.7h-.9l-.3,1.8-.2-1.8-3.6.3-3.2.2-3.2.2h-.4v-.4c.1-1.9.3-3.8.5-5.8.1,1.8.1,3.6.2,5.4l2.8-.3,3.2-.3h.4l.4-2.1v2l2.4-.2.3-2.2.2,2.2,2.6-.2H187l.3-1.8v1.8l5-.3c2.1-.1,4.3-.2,6.4-.1Zm-16.4-9.3h.1l4.5-3.4-4,3.5,1.7.2.8-.6,2.1-1.6-1.9,1.8-.5.4,1.8.2,2.3-1.3-1.7,1.4h1.4a7.8,7.8,0,0,0,1.8-1.1,13.6,13.6,0,0,1-1.2,1.2l1.8.2a4.2,4.2,0,0,0,1.4-.9,4.3,4.3,0,0,1-.9,1l8.9.9-21-.3V67.3l21.2,1.9-.7,1.7s-16-2.3-17.8,1.6l-.5,7.2-1.1,1.7Zm-3.2-14.6V84.7h-.6v-19h.3L199,67.9v.6Zm22,20.2-21.2-.3v-.5l21.2.2Zm0-1-21.2-.3v-.5l21.2.2Zm0-1-21.2-.3v-.5l21.2.3Zm-2.9-17.7-2.9-.3a59,59,0,0,1-5.9-.6l-5.8-.7-5.9-.8,5.9.4,5.9.6,5.8.7,3,.4,2.9.5Zm1.2-1.3-2.1-.2-4.2-.6L187,64l-4.1-.8,4.2.4,4.1.6,4.2.7,2,.4,2.1.4Zm-.1-1.5-2.4-.6-2.4-.6-2.4-.9,2.5.4,2.4.6,2.4.7,2.3.8Zm-22-13.7-.3,1.9,1.1-1.6.4.2-.2,1.8,1.1-1.5h.4l-.3,1.9,1.1-1.5h.5l-.3,1.9,1.1-1.5h.5l-.3,1.9,1.1-1.6.4.2-.2,1.9,1.1-1.6.4.2-.2,1.8,1-1.5.5.2-.3,1.8L185,54l.5.2-.3,1.8,1.1-1.5.4.2-.2,1.8,1.1-1.5.4.2-.2,1.8,1-1.5.5.2-.2,1.7,1-1.4.5.2-.3,1.7,1.1-1.4h.4l-.2,1.8,1.1-1.4h.4l-.2,1.8,1.1-1.4h.4l-.2,1.8,1-1.5.5.2-.2,1.7,1-1.4.4.2-.2,1.7,1.1-1.4.4.2-.2,1.7,1.1-1.4,1.6.7-1,3.1-.4-1.8L174,51.9l.2.8L198,61.9l-23.7-8.6.2.8,12.3,4.8-12.1-4.2,1.7,7-3.5-9.6.2-2.7Z"/><path class="cls-29" d="M90.2,90.1c-4.3,0-7.7,4.1-7.7,9.1s3.4,9.1,7.7,9.1,7.7-4.1,7.7-9.1S94.4,90.1,90.2,90.1Zm-1.8,16.8a2,2,0,0,1-.8-.4l-.8-.4a7.2,7.2,0,0,1-2.4-2.5,8.2,8.2,0,0,1-.9-3.4,2.1,2.1,0,0,1,0-.8v-.9a10.5,10.5,0,0,1,.4-1.7,12.9,12.9,0,0,0,0,3.4,8.7,8.7,0,0,0,1,3.1,7.5,7.5,0,0,0,2.2,2.5l.6.4.8.4.7.4.8.2A4.5,4.5,0,0,1,88.4,106.9Zm1.4-5.4a2.1,2.1,0,0,1-2.1-2.1,2,2,0,0,1,2.1-2,2.1,2.1,0,1,1,0,4.1Zm2.6,5.8a1,1,0,0,0-.1-.4,8.7,8.7,0,0,0,3.3-3.6,8.1,8.1,0,0,1-3.5,2.6,19.3,19.3,0,0,0-1.4-4,4.1,4.1,0,0,0,1.6-1.8,19.4,19.4,0,0,0,5,.1A9.2,9.2,0,0,1,92.4,107.3Zm.2-10.6a4.1,4.1,0,0,0,3.3-1.3,5,5,0,0,1-3.4,3.5c-.9-2.5-2.4-2.6-4.3-1.8a9.6,9.6,0,0,1-.9-4.4,8.6,8.6,0,0,1,2.3-.6,10.1,10.1,0,0,1,3,.2,16.3,16.3,0,0,0-3-.7,5.5,5.5,0,0,0-2.2.1v-.5a7.1,7.1,0,0,1,8.3,2.6C89.9,92.7,90.6,96.6,92.6,96.7Z"/><path class="cls-30" d="M45.4,115.9l3-8.5,1.5-4.2c.4-1.4.9-2.8,1.4-4.3l-1.7,4.2L48,107.3c-1.1,2.8-2.1,5.6-3.1,8.4s-2.1,5.6-3.1,8.5-1.9,5.6-2.8,8.5c1.1-2.8,2.2-5.6,3.2-8.4Z"/><path class="cls-31" d="M50.8,114.5c.9-3.2,1.7-6.4,2.6-9.6l1.2-4.8c.4-1.6.9-3.2,1.3-4.8L54.4,100,53,104.8l-2.7,9.6c-.9,3.2-1.8,6.4-2.6,9.6s-1.7,6.4-2.5,9.7c1-3.2,2-6.4,2.9-9.6Z"/><path class="cls-32" d="M54.9,115.8c.6-2.8,1.3-5.7,1.9-8.5l.9-4.3c.2-1.4.5-2.8.8-4.3-.4,1.4-.7,2.8-1.1,4.3l-1,4.2c-.7,2.8-1.4,5.7-2,8.5s-1.3,5.7-1.9,8.5l-1.8,8.6c.8-2.8,1.5-5.7,2.2-8.5S54.2,118.7,54.9,115.8Z"/><path class="cls-33" d="M48.8,134.8l-12.6,1.6L23.6,138l-10.3-2.7L2.9,132.7l10.3,2.9,10.3,2.8h.1l12.6-1.6,12.7-1.6,12.6-1.7,12.6-1.7-12.6,1.4Z"/><path class="cls-34" d="M66.6,107.9c-.3,2.5-.5,5.1-.7,7.6s-.4,5.1-.5,7.6-.3,5.1-.4,7.7c.3-2.6.5-5.1.8-7.6l.6-7.6.6-7.7.2-3.8c0-1.2.1-2.5.2-3.8-.2,1.3-.3,2.5-.5,3.8Z"/><path class="cls-35" d="M64.1,105.2l.4-4.4c.2-1.5.3-3,.5-4.5-.3,1.5-.5,3-.7,4.4l-.6,4.4c-.5,3-.8,5.9-1.2,8.9s-.7,5.8-1.1,8.8l-.9,8.8c.5-2.9.9-5.8,1.3-8.8s.8-5.8,1.2-8.8S63.7,108.1,64.1,105.2Z"/><rect class="cls-36" x="109" y="59.2" width="0.5" height="22.17" transform="translate(35.7 177.4) rotate(-88.3)"/><path class="cls-37" d="M103.1,45.7c-2.2.6-8.6.2-8.6.2l17.4,2.2c-9.5-4.2-8.5-6-5.8-6.9s6.1-1,5.6-3.8c-6.9-1-13.8-2.3-13.8-2.3,9.8,2.4,3,3.8,2.2,5.9S105.2,45.1,103.1,45.7Z"/></svg>