<?xml version="1.0" encoding="utf-8"?>
<!-- Generator: Adobe Illustrator 25.3.1, SVG Export Plug-In . SVG Version: 6.00 Build 0)  -->
<svg version="1.1" id="Layer_1" xmlns="http://www.w3.org/2000/svg" xmlns:xlink="http://www.w3.org/1999/xlink" x="0px" y="0px"
	 viewBox="0 0 255.56 44.08" style="enable-background:new 0 0 255.56 44.08;" xml:space="preserve">
<style type="text/css">
	.st0{fill:#FFFFFF;}
</style>
<g>
	<g>
		<g>
			<g>
				<g>
					<g>
						<path class="st0" d="M232.86,7.86c0,4.35-3.52,7.86-7.86,7.86c-4.35,0-7.86-3.51-7.86-7.86c0-4.34,3.51-7.86,7.86-7.86
							C229.34,0,232.86,3.52,232.86,7.86"/>
						<path class="st0" d="M255.56,7.86c0,4.35-3.52,7.86-7.86,7.86c-4.34,0-7.85-3.51-7.85-7.86c0-4.34,3.51-7.86,7.85-7.86
							C252.05,0,255.56,3.52,255.56,7.86"/>
						<path class="st0" d="M15.73,7.86c0,4.35-3.51,7.86-7.86,7.86C3.53,15.72,0,12.21,0,7.86c0-2.17,0.9-4.14,2.31-5.55
							C3.74,0.88,5.7,0,7.87,0c1.97,0,3.8,0.74,5.18,1.94C14.7,3.39,15.73,5.5,15.73,7.86"/>
						<path class="st0" d="M139.89,18.74c0.18-2.17,1.91-3.4,4.21-3.4c2.72,0,4.07,1.5,4.07,4.62v1.27h-2.77
							c-6.59,0-11.66,2.18-11.66,7.56c0,4.9,3.66,6.98,7.69,6.98c3.26,0,5.66-1.23,6.78-3.18v2.8h5.3V19.88
							c0-6.52-4.34-8.61-9.14-8.61c-4.75,0-9.23,2.18-9.73,7.47H139.89z M142.6,31.73c-2.54,0-3.57-1.36-3.57-3.26
							c0-2.49,2.49-3.71,6.5-3.71h2.63v1.71C148.16,29.7,145.95,31.73,142.6,31.73 M29.73,35.95c5.91,0,9.5-2.72,9.5-7.51
							c0-4.79-3.63-6.38-8.88-7.24c-3.7-0.59-4.7-1.54-4.7-3.17c0-1.69,1.42-2.77,3.73-2.77c2.53,0,3.83,0.92,4.24,3.49h5.08
							c-0.46-5.56-4.58-7.59-9.32-7.59c-4.37,0-8.93,2.35-8.93,7.1c0,3.98,2.45,6.15,8.52,7.18c3.42,0.6,4.87,1.63,4.87,3.44
							c0,1.9-1.27,2.89-4.15,2.89c-3.22,0-4.27-1.72-4.45-3.66h-5.16C20.26,32.96,23.7,35.95,29.73,35.95 M49.96,18.74
							c0.17-2.17,1.91-3.4,4.22-3.4c2.71,0,4.06,1.5,4.06,4.62v1.27h-2.76c-6.6,0-11.67,2.18-11.67,7.56c0,4.9,3.65,6.98,7.69,6.98
							c3.26,0,5.66-1.23,6.79-3.18v2.8h5.3V19.88c0-6.52-4.34-8.61-9.14-8.61c-4.74,0-9.25,2.18-9.72,7.47H49.96z M52.67,31.73
							c-2.54,0-3.56-1.36-3.56-3.26c0-2.49,2.49-3.71,6.5-3.71h2.62v1.71C58.23,29.7,56.02,31.73,52.67,31.73 M70.65,35.39h5.43
							V22.24c0-3.76,2.16-6.16,4.98-6.16c2.54,0,3.71,1.62,3.71,5.11v14.2h5.43V21.87c0-3.61,2.12-5.79,4.75-5.79
							c2.58,0,3.94,1.67,3.94,5.15v14.16h5.44V20.55c0-6.56-3.5-9.19-7.73-9.19c-3.08,0-5.94,1.36-7.48,4.13
							c-1.05-2.91-3.27-4.13-6.15-4.13c-3.3,0-5.79,1.68-6.88,3.85v-3.48h-5.43V35.39z M112.73,43.5h5.34l13.63-31.77h-5.62
							l-6.23,15.7l-6.25-15.7h-5.76l9.2,21.49L112.73,43.5z M160.72,35.39h5.43V22.01c0-3.62,2.35-6.07,5.3-6.07
							c2.99,0,4.52,1.62,4.52,5.2v14.25h5.43V20.65c0-6.52-3.45-9.28-7.92-9.28c-3.21,0-5.75,1.18-7.33,3.81v-3.45h-5.43V35.39z
							 M204.25,30.83c-0.82,2.13-3.67,3.67-6.52,3.67c-7.38,0-10.86-5.26-10.86-11.5c0-6.33,3.53-11.72,10.72-11.72
							c2.75,0,5.52,1.22,6.66,3.32v-2.86h5.42v21.18c0,8.22-5.52,11.17-11.5,11.17c-5.74,0-10.05-2.8-10.63-7.88h5.56
							c0.41,2.37,2.54,3.68,5.29,3.68c3.63,0,5.85-2.22,5.85-6.61V30.83z M198.68,15.58c-4.08,0-6.24,2.76-6.24,7.42
							c0,4.66,2.03,7.33,6.28,7.33c3.31,0,5.56-2.21,5.56-6.52v-1.75C204.29,18.34,202.25,15.58,198.68,15.58"/>
					</g>
				</g>
			</g>
		</g>
	</g>
</g>
</svg>
