<svg id="레이어_1" data-name="레이어 1" xmlns="http://www.w3.org/2000/svg" xmlns:xlink="http://www.w3.org/1999/xlink" viewBox="0 0 144.1 405.7"><defs><style>.cls-1{fill:url(#무제_그라디언트_2);}.cls-2{fill:url(#무제_그라디언트_2-2);}</style><linearGradient id="무제_그라디언트_2" x1="159.5" y1="219.77" x2="-18.99" y2="59.06" gradientTransform="translate(18.6 -5.1) rotate(5.2)" gradientUnits="userSpaceOnUse"><stop offset="0" stop-color="#f9c10e"/><stop offset="0.25" stop-color="#f9f295"/><stop offset="0.62" stop-color="#deae47"/><stop offset="1" stop-color="#edc967"/></linearGradient><linearGradient id="무제_그라디언트_2-2" x1="119.44" y1="376.02" x2="31.52" y2="296.85" xlink:href="#무제_그라디언트_2"/></defs><path class="cls-1" d="M142.2,171.3c-.7,13-2.9,25.8-5,38.7s-5.2,26.2-10.1,38.7c-2.3,5.9-4.9,11.7-9.4,16.4a4.3,4.3,0,0,1-3.8,1.6,51.1,51.1,0,0,1-5.5-.5q-15.7-2.6-31.8-4.2l-38.1-4.3h-1c-3-.6-3.7-1.2-4.1-4.2-.6-5-1.2-9.9-2.1-14.8-1.8-9.5-3.3-19-6.3-28.1a91.1,91.1,0,0,0-6.6-15c-3.4-6.1-7.1-12.2-9.9-18.7A85.6,85.6,0,0,1,1.6,152C.8,145.4.3,138.7,0,132c-.1-4.4.2-8.8.5-13.1.4-7.3.8-14.6,1.8-21.8S4.2,81.8,5.9,74.4c3-12.8,6.6-25.5,12.6-37.2S32.9,14,44.9,6.7C48.9,4.3,53,2.3,57.8,2S64.2.6,67.5.2c6.4-.7,12.6.5,18.8,1.7,10.2,2,18.2,8,25.3,15.5S121.7,31.2,125.5,39c5.6,11.5,8.6,23.7,11.6,36,2.1,8.5,3.4,17.1,5.1,25.7a99.2,99.2,0,0,1,1.8,18.1c.2,10.1-.1,20.2-.4,30.3C143.5,156.5,142.7,163.9,142.2,171.3Z"/><path class="cls-2" d="M114.4,331.7a126.8,126.8,0,0,1-8.5,35.9c-5.2,13.3-12.8,25-25.5,32.3-8.1,4.7-16.9,7.1-26.6,5a50.3,50.3,0,0,1-13.3-4.8,39.2,39.2,0,0,1-11.5-10,55.9,55.9,0,0,1-12.1-24.2,82.1,82.1,0,0,1-2.4-19.2c.1-3.7.1-7.5.5-11.3.9-9.5,3.6-18.5,6.4-27.6a182.5,182.5,0,0,1,7.7-18.9c1.5-3.2,2-3.3,5.3-2.7,9.9,1.5,19.6,4,29.4,5.5s20.7,3.2,31,5.3c5.1,1,10.3,1.7,15.4,2.5s4.9,1.3,4.5,5.1.7,9.2.4,13.8S115.1,328.4,114.4,331.7Z"/></svg>