<?xml version="1.0" encoding="utf-8"?>
<!-- Generator: Adobe Illustrator 25.0.1, SVG Export Plug-In . SVG Version: 6.00 Build 0)  -->
<svg version="1.1" id="레이어_1" xmlns="http://www.w3.org/2000/svg" xmlns:xlink="http://www.w3.org/1999/xlink" x="0px"
	 y="0px" viewBox="0 0 368.04 255.94" style="enable-background:new 0 0 368.04 255.94;" xml:space="preserve">
<style type="text/css">
	.st0{fill:#FFFFFF;}
</style>
<g>
	<g>
		<path class="st0" d="M365.15,0.54c-1.62,1.81-3.24,3.63-4.87,5.45c-4.41,4.94-8.83,9.88-13.24,14.82
			c-6.53,7.3-13.06,14.61-19.59,21.91c-7.97,8.91-15.93,17.83-23.9,26.73c-8.73,9.76-17.45,19.53-26.18,29.29
			c-8.81,9.85-17.62,19.71-26.42,29.56c-8.21,9.18-16.43,18.38-24.64,27.56c-6.94,7.77-13.88,15.52-20.82,23.29
			c-4.99,5.58-9.98,11.16-14.96,16.74c-2.34,2.62-4.92,5.18-7.08,7.92c-0.09,0.11-0.2,0.22-0.3,0.34c0.3-0.2,0.6-0.4,0.9-0.59
			c-6.06,1.65-12.13,3.3-18.19,4.96c-14.56,3.97-29.13,7.93-43.69,11.9c-17.62,4.8-35.24,9.6-52.87,14.4
			c-15.24,4.15-30.47,8.3-45.71,12.45c-7.37,2.01-14.97,3.73-22.22,6.05c-0.1,0.03-0.21,0.06-0.31,0.09
			c-1.83,0.5-1.05,2.99,0.8,2.48c9.6-2.61,19.19-5.22,28.79-7.83c20.96-5.7,41.92-11.42,62.88-17.12c20.93-5.7,41.87-11.4,62.8-17.1
			c6.92-1.88,13.84-3.77,20.76-5.65c1.91-0.52,3.83-1.04,5.74-1.56c0.73-0.2,1.73-0.32,2.39-0.68c0.51-0.28,0.95-0.92,1.32-1.33
			c0.79-0.88,1.59-1.78,2.38-2.66c3.04-3.4,6.09-6.81,9.13-10.21c10.48-11.73,20.96-23.45,31.44-35.18
			c13.87-15.51,27.74-31.03,41.6-46.54c14.32-16.02,28.65-32.05,42.97-48.07c11.62-13.01,23.25-26.01,34.87-39.01
			c6-6.71,12-13.43,18-20.14c0.27-0.3,0.54-0.6,0.81-0.91C368.91,0.52,366.31-0.76,365.15,0.54L365.15,0.54z"/>
	</g>
</g>
</svg>
