<?xml version="1.0" encoding="utf-8"?>
<!-- Generator: Adobe Illustrator 25.0.1, SVG Export Plug-In . SVG Version: 6.00 Build 0)  -->
<svg version="1.1" id="레이어_1" xmlns="http://www.w3.org/2000/svg" xmlns:xlink="http://www.w3.org/1999/xlink" x="0px"
	 y="0px" viewBox="0 0 363.93 78.79" style="enable-background:new 0 0 363.93 78.79;" xml:space="preserve">
<style type="text/css">
	.st0{fill:#FFFFFF;}
</style>
<g>
	<g>
		<path class="st0" d="M362.94,3.04c1.76-0.72,0.99-3.62-0.79-2.93c-0.36,0.15-0.71,0.29-1.07,0.44
			c-7.83,3.22-15.66,6.44-23.49,9.66c-14.6,6.01-29.21,12.01-43.82,18.02c-16.78,6.9-33.55,13.79-50.32,20.69
			c-14.32,5.89-28.64,11.77-42.96,17.66c-7.23,2.98-14.66,5.67-21.76,8.95c-0.18,0.08-0.36,0.15-0.54,0.22
			c-0.26,0.1,0.61-0.03,0.21-0.03c-0.73,0.01-1.47-0.03-2.21-0.05c-3.82-0.09-7.63-0.17-11.45-0.26
			c-14.3-0.32-28.61-0.65-42.91-0.97c-18.12-0.41-36.23-0.82-54.35-1.23c-15.42-0.35-30.83-0.7-46.25-1.05
			c-6.6-0.15-13.19-0.3-19.78-0.45c-1.93-0.04-1.93,2.96,0,3c0.43,0.01,0.87,0.02,1.3,0.03c9.34,0.22,18.67,0.43,28.01,0.64
			c16.68,0.38,33.36,0.76,50.04,1.14c17.73,0.4,35.47,0.81,53.2,1.21c12.52,0.28,25.03,0.57,37.54,0.85
			c2.24,0.06,4.61,0.33,6.85,0.16c1.24-0.09,2.5-0.85,3.63-1.32c9.33-3.84,18.67-7.68,28.01-11.52
			c15.37-6.32,30.74-12.64,46.11-18.96c16.67-6.85,33.35-13.71,50.02-20.56c13.41-5.51,26.81-11.02,40.22-16.53
			C351.9,7.58,357.42,5.31,362.94,3.04L362.94,3.04z"/>
	</g>
</g>
</svg>
