<svg id="Layer_1" data-name="Layer 1" xmlns="http://www.w3.org/2000/svg" viewBox="0 0 255.6 44.1"><defs><style>.cls-1{fill:#e94e24;}.cls-2{fill:#a9ba00;}.cls-3{fill:#189ace;}.cls-4{fill:#231916;}</style></defs><path class="cls-1" d="M232.9,7.9a7.9,7.9,0,0,1-15.8,0,7.9,7.9,0,1,1,15.8,0"/><path class="cls-2" d="M255.6,7.9a7.9,7.9,0,0,1-7.9,7.8,7.9,7.9,0,0,1,0-15.7,7.9,7.9,0,0,1,7.9,7.9"/><path class="cls-3" d="M15.7,7.9A7.9,7.9,0,0,1,0,7.9,7.9,7.9,0,0,1,7.9,0,7.6,7.6,0,0,1,13,1.9a7.9,7.9,0,0,1,2.7,6"/><path class="cls-4" d="M139.9,18.7c.2-2.1,1.9-3.4,4.2-3.4s4.1,1.5,4.1,4.7v1.2h-2.8c-6.6,0-11.7,2.2-11.7,7.6s3.7,7,7.7,7,5.7-1.3,6.8-3.2v2.8h5.3V19.9c0-6.5-4.3-8.6-9.1-8.6s-9.3,2.2-9.8,7.4Zm2.7,13c-2.5,0-3.6-1.3-3.6-3.2s2.5-3.7,6.5-3.7h2.7v1.7c0,3.2-2.3,5.2-5.6,5.2M29.7,35.9c5.9,0,9.5-2.7,9.5-7.5s-3.6-6.3-8.9-7.2c-3.7-.6-4.7-1.5-4.7-3.2s1.5-2.7,3.8-2.7,3.8.9,4.2,3.4h5.1c-.5-5.5-4.6-7.5-9.3-7.5s-9,2.3-9,7.1,2.5,6.1,8.6,7.1c3.4.6,4.8,1.7,4.8,3.5s-1.2,2.9-4.1,2.9-4.3-1.8-4.5-3.7H20.1c.2,4.9,3.6,7.8,9.6,7.8M50,18.7c.1-2.1,1.9-3.4,4.2-3.4s4,1.5,4,4.7v1.2H55.5c-6.6,0-11.7,2.2-11.7,7.6s3.7,7,7.7,7,5.7-1.3,6.8-3.2v2.8h5.3V19.9c0-6.5-4.4-8.6-9.2-8.6s-9.2,2.2-9.7,7.4Zm2.7,13c-2.6,0-3.6-1.3-3.6-3.2s2.5-3.7,6.5-3.7h2.6v1.7c0,3.2-2.2,5.2-5.5,5.2m18,3.7h5.4V22.2c0-3.7,2.1-6.1,5-6.1s3.7,1.6,3.7,5.1V35.4h5.4V21.9c0-3.6,2.1-5.8,4.8-5.8s3.9,1.6,3.9,5.1V35.4h5.4V20.6c0-6.6-3.5-9.2-7.7-9.2a8.3,8.3,0,0,0-7.5,4.1c-1-2.9-3.2-4.1-6.1-4.1a7.4,7.4,0,0,0-6.9,3.8V11.7H70.7Zm42,8.1h5.4l13.6-31.8h-5.6l-6.3,15.7-6.2-15.7h-5.8L117,33.2Zm48-8.1h5.5V22c0-3.6,2.3-6.1,5.3-6.1s4.5,1.7,4.5,5.2V35.4h5.4V20.6c0-6.5-3.4-9.2-7.9-9.2s-5.8,1.1-7.3,3.8V11.7h-5.5Zm43.5-4.6c-.8,2.2-3.6,3.7-6.5,3.7-7.3,0-10.8-5.3-10.8-11.5s3.5-11.7,10.7-11.7c2.7,0,5.5,1.2,6.6,3.3V11.7h5.5V32.9c0,8.2-5.5,11.2-11.5,11.2s-10.1-2.8-10.7-7.9h5.6c.4,2.4,2.5,3.7,5.3,3.7s5.8-2.2,5.8-6.6Zm-5.5-15.2c-4.1,0-6.3,2.7-6.3,7.4s2.1,7.3,6.3,7.3,5.6-2.2,5.6-6.5V22.1c0-3.8-2-6.5-5.6-6.5"/></svg>